<svg width="22" height="20" viewBox="0 0 22 20" fill="none" xmlns="http://www.w3.org/2000/svg">
<path d="M14.0941 1H7.67937C7.06739 0.999041 6.46594 1.15771 5.93557 1.45999C5.4052 1.76227 4.96463 2.19751 4.65817 2.72193L1.46676 8.22473C1.16098 8.74906 1 9.34378 1 9.94923C1 10.5547 1.16098 11.1495 1.46676 11.6738L4.65817 17.1766C4.96437 17.7016 5.40475 18.1376 5.93507 18.4408C6.46539 18.744 7.06697 18.9036 7.67937 18.9037H14.0941C14.7065 18.9036 15.3081 18.744 15.8384 18.4408C16.3687 18.1376 16.8091 17.7016 17.1153 17.1766L20.3067 11.6738C20.6125 11.1495 20.7735 10.5547 20.7735 9.94923C20.7735 9.34378 20.6125 8.74906 20.3067 8.22473L17.1153 2.72193C16.8088 2.19751 16.3683 1.76227 15.8379 1.45999C15.3075 1.15771 14.7061 0.999041 14.0941 1Z" stroke="white" stroke-width="2" stroke-linecap="round" stroke-linejoin="round"/>
<path d="M10.8867 9.33057V14.2541" stroke="white" stroke-width="2" stroke-linecap="round" stroke-linejoin="round"/>
<path d="M10.9028 6.98172C11.6149 6.98172 12.2007 6.40895 12.2007 5.69185C12.2007 4.97474 11.6149 4.40198 10.9028 4.40198C10.1908 4.40198 9.60498 4.97474 9.60498 5.69185C9.60498 6.40895 10.1908 6.98172 10.9028 6.98172Z" fill="white" stroke="white"/>
</svg>
