<svg width="20" height="20" viewBox="0 0 20 20" fill="none" xmlns="http://www.w3.org/2000/svg">
<g clip-path="url(#clip0_237_3134)">
<path d="M19.9939 10.4144C19.9931 9.90257 19.9619 9.39122 19.9006 8.88301C19.5597 6.1451 18.3149 3.89139 16.1505 2.16691C13.6668 0.188112 10.834 -0.416376 7.75153 0.275448C4.87233 0.921682 2.76624 2.63737 1.31421 5.16738C0.635293 6.35026 0.235067 7.63229 0.0651987 8.97804C-0.00799658 9.55946 0.0033267 10.1527 1.21979e-05 10.7407C-0.00164505 10.9821 0.165738 11.131 0.39803 11.198C0.863718 11.3331 1.1971 11.0607 1.19903 10.5289C1.20373 9.49025 1.33714 8.47215 1.65146 7.47849C2.22764 5.65963 3.2752 4.16951 4.79417 3.00814C6.86573 1.43252 9.20494 0.943379 11.7414 1.42126C13.7339 1.79642 15.3696 2.8071 16.6731 4.35636C17.9226 5.84162 18.6391 7.54633 18.77 9.47322C18.8399 10.5023 18.822 11.538 18.8253 12.5709C18.8314 14.0298 18.8419 15.489 18.8106 16.9471C18.7899 17.9198 18.0301 18.6715 17.052 18.7007C15.9698 18.7328 14.8863 18.7133 13.8035 18.7152C13.7643 18.7113 13.7254 18.7043 13.6873 18.6941C13.7196 18.5408 13.7588 18.4156 13.7701 18.2881C13.8776 17.1259 12.9158 16.3091 11.9935 16.2632C11.1406 16.2206 10.2833 16.2388 9.42922 16.2679C8.79173 16.2896 8.2349 16.5373 7.85759 17.072C7.42671 17.6823 7.41566 18.3483 7.74021 18.9964C8.07884 19.6707 8.6818 19.9879 9.42508 19.9909C11.8791 20.0015 14.3334 20.0015 16.788 19.9909C17.8257 19.9846 18.7151 19.6171 19.3598 18.7699C19.8147 18.172 19.995 17.4856 19.995 16.7458C19.9986 14.6348 20.0039 12.5245 19.9939 10.4144ZM12.4736 18.2843C12.4106 18.5886 12.1974 18.749 11.8176 18.7564C11.4168 18.7641 11.0166 18.7581 10.6153 18.7581C10.223 18.7581 9.83083 18.7622 9.43889 18.7581C8.99088 18.7528 8.72931 18.523 8.72241 18.1387C8.7155 17.7545 8.99364 17.4977 9.44331 17.4955C10.2275 17.492 11.0119 17.49 11.7961 17.4955C12.299 17.4996 12.5694 17.8221 12.4736 18.2843Z" fill="#10C19F"/>
<path d="M7.43048 8.60786C7.41639 8.04017 7.01091 7.60212 6.43833 7.5428C5.96325 7.49363 5.48016 7.49473 5.00205 7.50737C3.57902 7.54444 2.50512 8.54634 2.46341 9.93054C2.43579 10.8824 2.44076 11.8426 2.5344 12.7887C2.63383 13.7928 3.22492 14.4915 4.19414 14.8329C4.88466 15.0771 5.61219 15.0342 6.31929 14.9669C7.10842 14.892 7.48931 14.3962 7.48959 13.6044V11.2098H7.43628C7.436 10.3425 7.45202 9.476 7.43048 8.60786ZM6.20052 13.7217C5.7108 13.7217 5.23379 13.7747 4.77445 13.7091C4.09387 13.6121 3.71381 13.1892 3.69171 12.5103C3.66409 11.6185 3.67486 10.7234 3.71243 9.83167C3.73729 9.23871 4.18972 8.8034 4.796 8.75809C5.25505 8.72376 5.71881 8.75122 6.20052 8.75122V13.7217Z" fill="#10C19F"/>
<path d="M12.5418 13.6715C12.5492 14.4353 12.9345 14.9156 13.6991 14.9942C14.2109 15.0469 14.7371 14.9843 15.2555 14.9513C16.5065 14.8714 17.5058 13.7336 17.505 12.5562C17.505 11.6364 17.5226 10.7161 17.4895 9.79739C17.4544 8.8345 16.7437 7.95372 15.8226 7.67798C15.0624 7.45085 14.2794 7.52116 13.5102 7.59037C12.982 7.63761 12.5987 8.06769 12.5796 8.59721C12.5484 9.48924 12.571 10.3824 12.571 11.2763H12.5401C12.5401 12.0747 12.534 12.8731 12.5418 13.6715ZM13.7372 8.7554C14.2399 8.7554 14.7039 8.72574 15.1619 8.76254C15.7972 8.81362 16.2159 9.29287 16.2355 9.99294C16.2593 10.8333 16.2604 11.6757 16.2355 12.5161C16.2142 13.2027 15.7602 13.6696 15.0478 13.7407C14.618 13.7838 14.1805 13.7487 13.738 13.7487L13.7372 8.7554Z" fill="#10C19F"/>
</g>
<defs>
<clipPath id="clip0_237_3134">
<rect width="20" height="20" fill="white"/>
</clipPath>
</defs>
</svg>
