<svg width="27" height="27" viewBox="0 0 27 27" fill="none" xmlns="http://www.w3.org/2000/svg">
<g clip-path="url(#clip0_167_4720)">
<path d="M26.382 13.742C26.3809 13.0666 26.3398 12.3918 26.2588 11.7213C25.8091 8.10859 24.1664 5.13481 21.3106 2.85936C18.0334 0.248336 14.2955 -0.549286 10.2281 0.363576C6.42904 1.21628 3.65006 3.48014 1.7341 6.81848C0.838269 8.37929 0.310171 10.0709 0.0860297 11.8466C-0.0105515 12.6138 0.00438958 13.3966 1.60951e-05 14.1725C-0.00217065 14.491 0.218692 14.6874 0.5252 14.7759C1.13968 14.9541 1.57958 14.5947 1.58213 13.8931C1.58832 12.5225 1.76436 11.1791 2.17911 9.868C2.93937 7.468 4.32163 5.50179 6.3259 3.96936C9.05933 1.89033 12.1459 1.24491 15.4927 1.87547C18.1219 2.3705 20.2802 3.70409 22.0001 5.74834C23.6489 7.70815 24.5943 9.95751 24.7671 12.5C24.8593 13.8579 24.8356 15.2245 24.84 16.5874C24.848 18.5125 24.8618 20.4378 24.8207 22.3618C24.7933 23.6454 23.7907 24.6372 22.5002 24.6756C21.0722 24.718 19.6424 24.6923 18.2138 24.6948C18.1619 24.6897 18.1106 24.6804 18.0603 24.6669C18.103 24.4647 18.1547 24.2995 18.1697 24.1313C18.3114 22.5977 17.0424 21.5199 15.8255 21.4594C14.7 21.4033 13.5688 21.4272 12.4419 21.4656C11.6007 21.4942 10.8659 21.8211 10.3681 22.5267C9.79954 23.3319 9.78496 24.2107 10.2132 25.0659C10.66 25.9556 11.4556 26.3742 12.4364 26.3781C15.6745 26.3922 18.9129 26.3922 22.1517 26.3781C23.521 26.3698 24.6945 25.8849 25.5452 24.767C26.1455 23.978 26.3834 23.0724 26.3834 22.0961C26.3882 19.3108 26.3951 16.5262 26.382 13.742ZM16.4589 24.1263C16.3758 24.5278 16.0944 24.7394 15.5933 24.7492C15.0645 24.7593 14.5364 24.7514 14.0068 24.7514C13.4893 24.7514 12.9718 24.7568 12.4546 24.7514C11.8635 24.7445 11.5183 24.4412 11.5092 23.9342C11.5001 23.4272 11.8671 23.0884 12.4604 23.0855C13.4951 23.0808 14.5302 23.0782 15.5649 23.0855C16.2286 23.0909 16.5854 23.5163 16.4589 24.1263Z" fill="white"/>
<path d="M9.80486 11.3581C9.78627 10.609 9.25125 10.031 8.49573 9.95271C7.86886 9.88784 7.23142 9.88929 6.60055 9.90596C4.72286 9.95488 3.30585 11.2769 3.25082 13.1033C3.21437 14.3594 3.22093 15.6263 3.34448 16.8747C3.47569 18.1996 4.25562 19.1216 5.53451 19.572C6.44565 19.8942 7.40563 19.8376 8.33865 19.7489C9.3799 19.6499 9.88249 18.9958 9.88285 17.951V14.7914H9.81251C9.81215 13.6469 9.83329 12.5036 9.80486 11.3581ZM8.18193 18.1058C7.53574 18.1058 6.90633 18.1757 6.30023 18.0891C5.40221 17.9612 4.90072 17.4031 4.87156 16.5073C4.83511 15.3306 4.84933 14.1496 4.89889 12.9729C4.9317 12.1905 5.52868 11.6161 6.32866 11.5563C6.93439 11.511 7.54631 11.5472 8.18193 11.5472V18.1058Z" fill="white"/>
<path d="M16.5491 18.0394C16.559 19.0472 17.0674 19.681 18.0762 19.7847C18.7515 19.8543 19.4458 19.7716 20.1299 19.7281C21.7805 19.6227 23.0992 18.1213 23.0981 16.5677C23.0981 15.3541 23.1214 14.1397 23.0777 12.9275C23.0314 11.657 22.0936 10.4948 20.8781 10.131C19.8752 9.83125 18.8419 9.92403 17.8269 10.0153C17.1301 10.0777 16.6242 10.6452 16.5991 11.3439C16.5579 12.5209 16.5878 13.6994 16.5878 14.879H16.5469C16.5469 15.9325 16.5389 16.9859 16.5491 18.0394ZM18.1265 11.5526C18.7898 11.5526 19.4021 11.5135 20.0064 11.562C20.8446 11.6294 21.3971 12.2618 21.423 13.1855C21.4544 14.2945 21.4558 15.4059 21.423 16.5148C21.395 17.4208 20.7958 18.0369 19.8558 18.1307C19.2888 18.1876 18.7115 18.1412 18.1276 18.1412L18.1265 11.5526Z" fill="white"/>
</g>
<defs>
<clipPath id="clip0_167_4720">
<rect width="26.39" height="26.39" fill="white"/>
</clipPath>
</defs>
</svg>
