<svg width="25" height="23" viewBox="0 0 25 23" fill="none" xmlns="http://www.w3.org/2000/svg">
<g clip-path="url(#clip0_835_132)">
<path d="M23.4375 0.5625H6.25C5.38574 0.5625 4.6875 1.29819 4.6875 2.20536V19.4554C4.6875 19.9071 4.33789 20.2768 3.90625 20.2768C3.47461 20.2768 3.125 19.9071 3.125 19.4554V3.84821H1.5625C0.699707 3.84821 0 4.58237 0 5.49107V20.2768C0 22.0916 1.39893 23.5625 3.125 23.5625H21.875C23.6011 23.5625 25 22.0916 25 20.2768V2.20536C25 1.29819 24.3018 0.5625 23.4375 0.5625ZM13.2812 20.2768H8.59375C8.16406 20.2768 7.8125 19.9071 7.8125 19.4554C7.8125 19.0036 8.16406 18.6339 8.59375 18.6339H13.2812C13.7127 18.6339 14.0625 19.0016 14.0625 19.4554C14.0625 19.9071 13.7109 20.2768 13.2812 20.2768ZM13.2812 15.3482H8.59375C8.16406 15.3482 7.8125 14.9786 7.8125 14.5268C7.8125 14.075 8.16406 13.7054 8.59375 13.7054H13.2812C13.7109 13.7054 14.0625 14.075 14.0625 14.5268C14.0625 14.9786 13.7109 15.3482 13.2812 15.3482ZM21.0938 20.2768H16.4062C15.9748 20.2768 15.625 19.909 15.625 19.4554C15.625 19.0016 15.9748 18.6339 16.4062 18.6339H21.0938C21.5252 18.6339 21.875 19.0016 21.875 19.4554C21.875 19.9071 21.5234 20.2768 21.0938 20.2768ZM21.0938 15.3482H16.4062C15.9766 15.3482 15.625 14.9786 15.625 14.5268C15.625 14.075 15.9766 13.7054 16.4062 13.7054H21.0938C21.5234 13.7054 21.875 14.075 21.875 14.5268C21.875 14.9786 21.5234 15.3482 21.0938 15.3482ZM21.875 9.59821C21.875 10.05 21.5234 10.4196 21.0938 10.4196H8.59375C8.16406 10.4196 7.8125 10.05 7.8125 9.59821V4.66964C7.8125 4.21786 8.16406 3.84821 8.59375 3.84821H21.0938C21.5234 3.84821 21.875 4.21786 21.875 4.66964V9.59821Z" fill="#BDBDBD"/>
</g>
<defs>
<clipPath id="clip0_835_132">
<rect width="25" height="23" fill="white"/>
</clipPath>
</defs>
</svg>
