<svg width="25" height="25" viewBox="0 0 25 25" fill="none" xmlns="http://www.w3.org/2000/svg">
<path fill-rule="evenodd" clip-rule="evenodd" d="M8.62406 0.887207C7.37693 0.887207 6.36592 1.89457 6.36592 3.13721V6.88721H1.84966C1.01824 6.88721 0.344238 7.55878 0.344238 8.38721V23.3872C0.344238 24.2157 1.01824 24.8872 1.84966 24.8872H16.9039C17.7353 24.8872 18.4093 24.2157 18.4093 23.3872V18.8872H22.1729C23.42 18.8872 24.431 17.8799 24.431 16.6372V3.13721C24.431 1.89457 23.42 0.887207 22.1729 0.887207H8.62406ZM18.4093 17.3872H22.1729C22.5886 17.3872 22.9256 17.0514 22.9256 16.6372V3.13721C22.9256 2.72299 22.5886 2.38721 22.1729 2.38721H8.62406C8.20833 2.38721 7.87135 2.723 7.87135 3.13721V6.88721H16.9039C17.7353 6.88721 18.4093 7.55878 18.4093 8.38721V17.3872Z" fill="#828282"/>
</svg>
