<svg width="22" height="23" viewBox="0 0 22 23" fill="none" xmlns="http://www.w3.org/2000/svg">
<path fill-rule="evenodd" clip-rule="evenodd" d="M7.73599 0.887207C6.62259 0.887207 5.71999 1.78655 5.71999 2.89595V6.24385H1.68799C0.945724 6.24385 0.343994 6.84341 0.343994 7.58301V20.9746C0.343994 21.7142 0.945723 22.3138 1.68799 22.3138H15.128C15.8703 22.3138 16.472 21.7142 16.472 20.9746V16.9571H19.832C20.9454 16.9571 21.848 16.0578 21.848 14.9484V2.89595C21.848 1.78655 20.9454 0.887207 19.832 0.887207H7.73599ZM16.472 15.618H19.832C20.2031 15.618 20.504 15.3182 20.504 14.9484V2.89595C20.504 2.52614 20.2031 2.22637 19.832 2.22637H7.73599C7.36485 2.22637 7.06399 2.52615 7.06399 2.89595V6.24385H15.128C15.8703 6.24385 16.472 6.84341 16.472 7.58301V15.618Z" fill="#828282"/>
</svg>
