<svg width="22" height="21" viewBox="0 0 22 21" fill="none" xmlns="http://www.w3.org/2000/svg">
<path d="M5.66275 8.25485C7.18028 9.78279 9.34887 9.66229 10.7834 8.24251C11.5027 8.91536 12.3262 9.36204 13.3509 9.36055C14.3671 9.35907 15.1828 8.9161 15.8571 8.29411C16.3602 8.57906 16.8196 8.90104 17.3259 9.11413C18.6385 9.66698 20.1401 9.25586 20.9498 8.11164C21.6184 7.16792 21.6814 6.13456 21.2133 5.07873C21.1088 4.85019 20.987 4.62973 20.8491 4.41921C20.1758 3.36561 19.491 2.31917 18.8205 1.26359C18.5548 0.845062 18.1974 0.641109 17.6911 0.641602C13.0905 0.647364 8.4898 0.647364 3.88904 0.641602C3.38669 0.641602 3.0248 0.826543 2.75613 1.25124C2.04635 2.37423 1.31182 3.48191 0.600288 4.60391C-0.178974 5.83258 -0.118242 7.23483 0.781233 8.32917C1.27108 8.92524 1.93463 9.26747 2.71189 9.30821C4.006 9.37809 4.50485 9.18055 5.66275 8.25485Z" fill="#828282"/>
<path d="M19.6028 10.5718H17.7483V13.7153H3.84432V10.5715H1.97338C1.97164 10.6076 1.96464 10.6896 1.96464 10.7713C1.96464 13.1786 1.96464 15.5856 1.96464 17.9924C1.96689 19.2404 2.67692 20.1616 3.88905 20.4863C4.13445 20.5497 4.38717 20.5813 4.64082 20.5801C8.73307 20.5859 12.8253 20.587 16.9176 20.5836C18.4696 20.5836 19.595 19.5199 19.6075 17.9929C19.6272 15.56 19.613 13.1269 19.6122 10.694C19.6116 10.6531 19.6084 10.6123 19.6028 10.5718ZM17.7268 15.6057C17.7321 15.6934 17.7396 15.7608 17.7396 15.8279C17.7396 16.5378 17.7428 17.2475 17.7396 17.9571C17.7366 18.5003 17.5054 18.7265 16.9506 18.7265C12.8426 18.7275 8.73482 18.7275 4.62707 18.7265C4.05225 18.7265 3.84306 18.5255 3.83981 17.9658C3.83581 17.2475 3.83831 16.5292 3.83981 15.8109C3.83981 15.7452 3.85281 15.6795 3.86056 15.6055L17.7268 15.6057Z" fill="#828282"/>
</svg>
