<svg width="26" height="23" viewBox="0 0 26 23" fill="none" xmlns="http://www.w3.org/2000/svg">
<path d="M22.3663 10.0266C22.1902 10.049 22.0097 10.0625 21.8201 10.0625C20.6465 10.0625 19.5992 9.55039 18.8815 8.75977C18.1638 9.55039 17.1166 10.0625 15.9385 10.0625C14.7603 10.0625 13.7131 9.55039 12.9954 8.75977C12.2777 9.55039 11.235 10.0625 10.0524 10.0625C8.87874 10.0625 7.83152 9.55039 7.11381 8.75977C6.3961 9.55039 5.34888 10.0625 4.16895 10.0625C3.98568 10.0625 3.80107 10.049 3.62186 10.0266C1.12478 9.69414 -0.0567311 6.76523 1.2787 4.66289L3.86652 0.589824C4.09673 0.223666 4.50794 0 4.94714 0H21.0527C21.4906 0 21.9013 0.223621 22.1315 0.589824L24.718 4.66289C26.0586 6.76973 24.8715 9.69414 22.3663 10.0266ZM22.5558 11.4506C22.7093 11.4281 22.9305 11.3922 23.111 11.3473V20.125C23.111 21.7107 21.8156 23 20.2222 23H5.7777C4.18249 23 2.88881 21.7107 2.88881 20.125V11.3473C3.0635 11.3922 3.2436 11.4281 3.42912 11.4506H3.43454C3.67197 11.482 3.91933 11.5 4.16895 11.5C4.73048 11.5 5.27214 11.4146 5.7777 11.2574V17.25H20.2222V11.2619C20.7277 11.4146 21.2649 11.5 21.8201 11.5C22.0729 11.5 22.3166 11.482 22.5558 11.4506Z" fill="#BDBDBD"/>
</svg>
