<svg width="27" height="25" viewBox="0 0 27 25" fill="none" xmlns="http://www.w3.org/2000/svg">
<path d="M7.43826 9.8033C9.26445 11.642 11.8741 11.497 13.6004 9.78844C14.466 10.5981 15.457 11.1357 16.6901 11.1339C17.913 11.1321 18.8946 10.599 19.7061 9.85054C20.3115 10.1934 20.8643 10.5809 21.4736 10.8373C23.0532 11.5026 24.8601 11.0079 25.8346 9.63096C26.6391 8.49529 26.7149 7.25176 26.1516 5.98119C26.0258 5.70617 25.8793 5.44087 25.7134 5.18754C24.9031 3.91964 24.079 2.66037 23.2721 1.39009C22.9524 0.886444 22.5223 0.641008 21.913 0.641603C16.3767 0.648536 10.8403 0.648536 5.3038 0.641603C4.69928 0.641603 4.26379 0.864158 3.94047 1.37524C3.08633 2.72663 2.20241 4.0596 1.34616 5.4098C0.408402 6.88836 0.481485 8.57582 1.5639 9.89274C2.15338 10.61 2.95189 11.0219 3.88724 11.0709C5.44455 11.155 6.04486 10.9173 7.43826 9.8033Z" fill="#828282"/>
<path d="M24.2134 12.5911H21.9818V16.374H5.24992V12.5908H2.99847C2.99636 12.6342 2.98794 12.7329 2.98794 12.8312C2.98794 15.7281 2.98794 18.6247 2.98794 21.521C2.99065 23.0228 3.8451 24.1314 5.30376 24.5221C5.59907 24.5985 5.90318 24.6364 6.20843 24.6351C11.133 24.642 16.0576 24.6434 20.9821 24.6392C22.8498 24.6392 24.2041 23.3591 24.2192 21.5216C24.2429 18.5939 24.2258 15.6659 24.2249 12.7382C24.224 12.689 24.2202 12.6399 24.2134 12.5911V12.5911ZM21.956 18.6489C21.9623 18.7544 21.9713 18.8355 21.9713 18.9163C21.9713 19.7706 21.9752 20.6246 21.9713 21.4785C21.9677 22.1322 21.6895 22.4044 21.0218 22.4044C16.0784 22.4056 11.1351 22.4056 6.19188 22.4044C5.50015 22.4044 5.24841 22.1626 5.2445 21.4889C5.23969 20.6246 5.2427 19.7602 5.2445 18.8958C5.2445 18.8168 5.26015 18.7377 5.26947 18.6486L21.956 18.6489Z" fill="#828282"/>
</svg>
