<svg width="27" height="25" viewBox="0 0 27 25" fill="none" xmlns="http://www.w3.org/2000/svg">
<path fill-rule="evenodd" clip-rule="evenodd" d="M24.202 11.5349C24.0897 11.4416 23.9728 11.3446 23.8491 11.2424L23.8464 11.6644C23.8498 14.2381 23.8487 16.8117 23.8431 19.3854C23.8425 19.6854 23.8276 19.9916 23.7681 20.2842C23.383 22.1619 22.0469 23.2738 20.1298 23.2792C15.8574 23.2877 11.585 23.2872 7.31257 23.2777C6.65659 23.2765 6.01251 23.1604 5.42974 22.8235C4.17076 22.0946 3.60287 20.9762 3.60019 19.5496V11.6475V11.2308C3.48049 11.3265 3.36757 11.4182 3.25888 11.5065C3.01057 11.7083 2.78431 11.8921 2.54955 12.0641C2.22334 12.3031 1.87928 12.5269 1.44117 12.3683C0.569994 12.0525 0.46076 11.0412 1.22478 10.3933C5.08826 7.11725 8.95164 3.84112 12.8149 0.564884C13.4837 -0.00238535 13.923 0.0068409 14.5915 0.572324C17.3694 2.92156 20.1473 5.2703 22.9252 7.61854C24.0485 8.56241 25.1686 9.50994 26.2855 10.4611C26.8611 10.9504 26.8555 11.7823 26.2855 12.2085C25.8554 12.5302 25.3655 12.4853 24.8539 12.0716C24.6414 11.8996 24.431 11.725 24.202 11.5349ZM8.70679 21.1069C8.93269 21.1057 9.16096 21.1044 9.39243 21.1044L9.39451 20.7211C9.39451 20.1071 9.39804 19.493 9.40156 18.8788C9.40998 17.4113 9.4184 15.9438 9.37874 14.4776C9.34779 13.3311 10.2148 12.3763 11.4488 12.424C12.5222 12.4656 13.5979 12.4561 14.6737 12.4467C15.1365 12.4426 15.5994 12.4385 16.0621 12.4385C17.2931 12.4397 18.0547 13.1954 18.0577 14.4311C18.0599 15.8319 18.0592 17.2329 18.0584 18.6338C18.0581 19.3343 18.0577 20.0349 18.0577 20.7354V21.0925C18.3178 21.0925 18.5754 21.0978 18.8311 21.103C19.4119 21.1148 19.9824 21.1265 20.5474 21.0759C21.2704 21.0113 21.6871 20.3985 21.6969 19.5758C21.7027 19.0902 21.7014 18.6046 21.7001 18.1189C21.6995 17.9108 21.699 17.7027 21.699 17.4946C21.699 16.9061 21.6987 16.3176 21.6985 15.7291C21.6978 13.7536 21.6971 11.7781 21.7046 9.8028C21.7055 9.51857 21.6302 9.33047 21.4049 9.13969C18.9008 7.0107 16.3985 4.87982 13.898 2.74706C13.863 2.71716 13.8257 2.68989 13.7826 2.65842C13.761 2.64259 13.7379 2.6257 13.7129 2.60687C13.0456 3.17355 12.3801 3.73963 11.7164 4.30511C9.84563 5.90811 7.96945 7.50396 6.08781 9.09267C5.84554 9.29714 5.74166 9.50041 5.74315 9.8278C5.75228 13.0453 5.75417 16.2627 5.74881 19.48C5.74792 20.0303 5.85506 20.5279 6.3411 20.8512C6.51908 20.9696 6.73874 21.086 6.94321 21.0931C7.52489 21.1132 8.1075 21.1101 8.70679 21.1069ZM15.4499 18.1428C15.9285 18.1428 16.3166 17.7591 16.3166 17.2857C16.3166 16.8123 15.9285 16.4285 15.4499 16.4285C14.9713 16.4285 14.5832 16.8123 14.5832 17.2857C14.5832 17.7591 14.9713 18.1428 15.4499 18.1428Z" fill="#828282"/>
</svg>
