<svg width="27" height="25" viewBox="0 0 27 25" fill="none" xmlns="http://www.w3.org/2000/svg">
<path fill-rule="evenodd" clip-rule="evenodd" d="M24.202 11.5346C24.0897 11.4414 23.9728 11.3444 23.8491 11.2422L23.8464 11.6642C23.8498 14.2378 23.8487 16.8115 23.8431 19.3851C23.8425 19.6851 23.8276 19.9914 23.7681 20.2839C23.383 22.1616 22.0469 23.2736 20.1298 23.2789C15.8574 23.2874 11.585 23.2869 7.31257 23.2774C6.65659 23.2762 6.01251 23.1602 5.42974 22.8233C4.17076 22.0944 3.60287 20.9759 3.60019 19.5494V11.6472V11.2305C3.48049 11.3262 3.36757 11.418 3.25888 11.5063C3.01057 11.708 2.78431 11.8919 2.54955 12.0639C2.22334 12.3029 1.87928 12.5267 1.44117 12.3681C0.569994 12.0523 0.46076 11.041 1.22478 10.393C5.08826 7.117 8.95164 3.84087 12.8149 0.56464C13.4837 -0.00262949 13.923 0.00659676 14.5915 0.57208C17.3694 2.92132 20.1473 5.27006 22.9252 7.6183C24.0485 8.56216 25.1686 9.50969 26.2855 10.4609C26.8611 10.9502 26.8555 11.782 26.2855 12.2082C25.8554 12.53 25.3655 12.485 24.8539 12.0713C24.6414 11.8994 24.431 11.7248 24.202 11.5346ZM8.70679 21.1066C8.93269 21.1054 9.16096 21.1042 9.39243 21.1042L9.39451 20.7208C9.39451 20.1068 9.39804 19.4927 9.40156 18.8786C9.40998 17.4111 9.4184 15.9435 9.37874 14.4773C9.34779 13.3309 10.2148 12.3761 11.4488 12.4237C12.5222 12.4653 13.5979 12.4559 14.6737 12.4464C15.1365 12.4424 15.5994 12.4383 16.0621 12.4383C17.2931 12.4395 18.0547 13.1952 18.0577 14.4309C18.0599 15.8317 18.0592 17.2326 18.0584 18.6336C18.0581 19.3341 18.0577 20.0346 18.0577 20.7351V21.0923C18.3178 21.0923 18.5754 21.0975 18.8311 21.1028C19.4119 21.1146 19.9824 21.1262 20.5474 21.0756C21.2704 21.011 21.6871 20.3982 21.6969 19.5756C21.7027 19.09 21.7014 18.6043 21.7001 18.1187C21.6995 17.9106 21.699 17.7024 21.699 17.4943C21.699 16.9058 21.6987 16.3173 21.6985 15.7289C21.6978 13.7533 21.6971 11.7779 21.7046 9.80256C21.7055 9.51832 21.6302 9.33023 21.4049 9.13945C18.9008 7.01045 16.3985 4.87958 13.898 2.74681C13.863 2.71691 13.8257 2.68965 13.7826 2.65818C13.761 2.64235 13.7379 2.62546 13.7129 2.60663C13.0456 3.1733 12.3801 3.73938 11.7164 4.30487C9.84563 5.90786 7.96945 7.50372 6.08781 9.09243C5.84554 9.29689 5.74166 9.50017 5.74315 9.82755C5.75228 13.0451 5.75417 16.2625 5.74881 19.4798C5.74792 20.0301 5.85506 20.5277 6.3411 20.8509C6.51908 20.9694 6.73874 21.0857 6.94321 21.0929C7.52489 21.113 8.1075 21.1098 8.70679 21.1066ZM15.4499 18.1426C15.9285 18.1426 16.3166 17.7588 16.3166 17.2854C16.3166 16.8121 15.9285 16.4283 15.4499 16.4283C14.9713 16.4283 14.5832 16.8121 14.5832 17.2854C14.5832 17.7588 14.9713 18.1426 15.4499 18.1426Z" fill="#828282"/>
</svg>
