<svg width="26" height="23" viewBox="0 0 26 23" fill="none" xmlns="http://www.w3.org/2000/svg">
<g clip-path="url(#clip0_835_136)">
<path d="M25.6197 11.4775C25.6197 12.2861 24.9523 12.9195 24.1959 12.9195H22.7721L22.8032 20.1115C22.8032 20.2373 22.7943 20.3541 22.781 20.4754V21.2031C22.781 22.1959 21.9845 23 21.0012 23H20.2893C20.2403 23 20.1914 22.9596 20.1425 22.9955C20.0802 22.9596 20.0179 23 19.9556 23H17.4417C16.4583 23 15.6619 22.1959 15.6619 21.2031V17.25C15.6619 16.4549 15.0256 15.8125 14.2381 15.8125H11.3905C10.6029 15.8125 9.96667 16.4549 9.96667 17.25V21.2031C9.96667 22.1959 9.17022 23 8.18691 23H5.69969C5.63295 23 5.56621 22.9955 5.49946 22.991C5.44607 22.9955 5.39268 23 5.33929 23H4.62738C3.64451 23 2.84762 22.1959 2.84762 21.2031V16.1719C2.84762 16.1314 2.84895 16.0865 2.85162 16.0461V12.9195H1.42603C0.623807 12.9195 0 12.2861 0 11.4775C0 11.0732 0.13366 10.7139 0.445385 10.3994L11.8532 0.360094C12.1647 0.0450117 12.5206 0 12.8321 0C13.1435 0 13.4995 0.0900234 13.7709 0.315082L25.1302 10.3994C25.4862 10.7139 25.6686 11.0732 25.6197 11.4775Z" fill="#BDBDBD"/>
</g>
<defs>
<clipPath id="clip0_835_136">
<rect width="25.6286" height="23" fill="white"/>
</clipPath>
</defs>
</svg>
