<svg width="31" height="26" viewBox="0 0 31 26" fill="none" xmlns="http://www.w3.org/2000/svg">
<path d="M7.77364 11.1328C7.04723 11.1328 6.37152 11.1648 5.69991 11.1261C4.11076 11.0317 2.79996 10.318 1.7294 9.14815C-0.309065 6.92087 -0.513416 3.67517 1.21711 1.18128C1.38934 0.932914 1.59684 0.706951 1.80749 0.490592C2.07513 0.215343 2.48761 0.170535 2.78358 0.362569C3.07956 0.554604 3.15733 0.879785 3.06697 1.28562C2.88308 2.11233 2.67149 2.93871 2.57797 3.77727C2.52287 4.26951 2.61922 4.80145 2.74328 5.28761C2.95739 6.12969 3.61579 6.44878 4.40202 6.47183C5.61363 6.50383 6.82651 6.49007 8.0397 6.48271C8.13605 6.48271 8.26735 6.40686 8.32308 6.32492C9.02902 5.28121 10.0338 4.90995 11.2369 4.91667C14.1337 4.92883 17.0324 4.91667 19.9301 4.92307C20.6742 4.92307 21.3873 5.07414 21.9768 5.57183C22.2208 5.77826 22.4069 6.05383 22.638 6.27595C22.7416 6.37517 22.8934 6.47983 23.0247 6.48175C24.1192 6.49807 25.214 6.49359 26.3088 6.48815C26.5122 6.48277 26.715 6.46428 26.9161 6.43278C27.6936 6.32748 28.129 5.849 28.317 5.10006C28.624 3.87616 28.3507 2.70251 28.0213 1.53366C28.0037 1.46965 27.9728 1.41236 27.9524 1.35059C27.8072 0.911788 27.9165 0.528361 28.238 0.344968C28.5752 0.152934 28.9773 0.252789 29.2751 0.589809C30.9622 2.49543 31.3756 4.69871 30.528 7.06586C29.7569 9.21952 28.1904 10.5887 25.9498 11.0346C25.2212 11.1799 24.4573 11.1421 23.7092 11.1847C23.5603 11.193 23.4101 11.1847 23.2233 11.1847C23.2174 11.3175 23.2079 11.4327 23.2079 11.5479C23.2079 12.6605 23.1878 13.7736 23.2117 14.8858C23.246 16.4928 22.2491 17.854 20.7601 18.1674C20.6531 18.1898 20.5268 18.346 20.4925 18.465C19.9547 20.3265 19.4304 22.1918 18.903 24.0561C18.7478 24.6044 18.4937 25.0742 17.903 25.2285C17.6749 25.2876 17.4406 25.3186 17.2052 25.3207C16.089 25.3299 14.9728 25.3248 13.8569 25.3245C12.8179 25.3245 12.2882 24.9219 12.0108 23.9121C11.5121 22.0958 11.0096 20.2804 10.5243 18.4602C10.4614 18.2227 10.3512 18.1309 10.127 18.0826C8.85679 17.8089 7.89486 16.7457 7.82842 15.4392C7.76545 14.1772 7.78781 12.9107 7.77332 11.6465C7.77364 11.5054 7.77364 11.3658 7.77364 11.1328ZM15.5128 7.30718C14.0106 7.30718 12.508 7.3043 11.0058 7.30718C10.3861 7.3091 10.076 7.57122 10.0738 8.13517C10.0647 10.4368 10.0647 12.7382 10.0738 15.0394C10.076 15.5615 10.3301 15.8294 10.8474 15.9206C11.1529 15.9793 11.4613 16.021 11.7712 16.0454C12.0889 16.0652 12.2391 16.192 12.3292 16.5255C12.8808 18.5646 13.4693 20.5934 14.0257 22.6309C14.105 22.9228 14.2275 22.9999 14.51 22.9903C15.1639 22.9682 15.8198 22.9644 16.4732 22.9903C16.7789 23.0031 16.8916 22.9023 16.9729 22.6063C17.5396 20.5371 18.1297 18.4749 18.7015 16.4074C18.7626 16.1865 18.8574 16.0816 19.0847 16.0652C19.3838 16.0438 19.683 15.9977 19.9783 15.9516C20.7299 15.8351 20.9116 15.6207 20.9119 14.8577C20.9119 12.687 20.9119 10.5164 20.9119 8.34577C20.9119 7.56066 20.6635 7.30622 19.8908 7.30558C18.4319 7.30558 16.9726 7.30611 15.5128 7.30718Z" fill="#828282"/>
<path d="M12.4202 14.212C11.5385 14.2184 10.8886 13.5975 10.8726 12.7314C10.8571 11.889 11.5209 11.221 12.3896 11.2044C13.2489 11.1881 13.9224 11.841 13.9306 12.6978C13.9385 13.568 13.3024 14.2056 12.4202 14.212Z" fill="#828282"/>
<path d="M18.5865 14.2118C17.7049 14.2095 17.0537 13.5716 17.0559 12.7145C17.0578 11.8673 17.7301 11.2055 18.5896 11.2039C19.4549 11.2023 20.1142 11.8558 20.1139 12.7152C20.1133 13.5832 19.4694 14.214 18.5865 14.2118Z" fill="#828282"/>
</svg>
