<svg width="26" height="23" viewBox="0 0 26 23" fill="none" xmlns="http://www.w3.org/2000/svg">
<g clip-path="url(#clip0_835_138)">
<path d="M12.8939 9.88819C8.89631 9.88819 3.26881 16.0682 3.26881 19.9717C3.22449 21.7295 4.5713 22.7821 6.83982 22.7821C9.29773 22.7821 10.9246 21.5179 12.8939 21.5179C14.8834 21.5179 16.5153 22.7821 18.948 22.7821C21.1692 22.7821 22.5614 21.7305 22.5614 19.9742C22.5191 16.0733 16.8931 9.88819 12.8939 9.88819ZM5.47992 9.25356C4.95761 7.50986 3.33932 6.3766 1.87264 6.72917C0.405951 7.08174 -0.357813 8.78012 0.164693 10.5228C0.686999 12.2705 2.30529 13.4038 3.77197 13.0512C5.23866 12.6987 5.9987 10.9963 5.47992 9.25356ZM9.746 8.20593C11.3008 7.7967 12.0815 5.73291 11.4837 3.50317C10.8858 1.27342 9.14159 -0.0779221 7.58072 0.286231C6.02589 0.695463 5.24521 2.75925 5.84306 4.98899C6.44193 7.17341 8.18462 8.61894 9.746 8.20593ZM23.9193 6.73018C22.4526 6.42294 20.8343 7.51087 20.312 9.25457C19.7897 10.9988 20.5512 12.6982 22.0179 13.0507C23.4846 13.358 25.0963 12.27 25.6252 10.5263C26.1455 8.78012 25.3396 7.08275 23.9193 6.73018ZM16.0419 8.20593C17.5579 8.61516 19.3469 7.17341 19.9448 4.98899C20.5427 2.80458 19.7622 0.695211 18.2071 0.286231C16.6911 -0.123001 14.9021 1.31875 14.3042 3.50317C13.7048 5.68758 14.4855 7.79796 16.0419 8.20593Z" fill="#BDBDBD"/>
</g>
<defs>
<clipPath id="clip0_835_138">
<rect width="25.7879" height="23" fill="white"/>
</clipPath>
</defs>
</svg>
