<svg width="31" height="25" viewBox="0 0 31 25" fill="none" xmlns="http://www.w3.org/2000/svg">
<path d="M7.77364 10.6636C7.04723 10.6636 6.37152 10.6943 5.69991 10.6572C4.11076 10.5669 2.79996 9.88389 1.7294 8.76449C-0.309065 6.6332 -0.513416 3.52736 1.21711 1.14095C1.38934 0.903285 1.59684 0.687059 1.80749 0.480024C2.07513 0.216636 2.48761 0.173759 2.78358 0.357518C3.07956 0.541277 3.15733 0.852445 3.06697 1.24079C2.88308 2.03187 2.67149 2.82265 2.57797 3.62506C2.52287 4.0961 2.61922 4.60511 2.74328 5.07032C2.95739 5.87611 3.61579 6.18145 4.40201 6.2035C5.61363 6.23413 6.82651 6.22096 8.0397 6.21392C8.13605 6.21392 8.26735 6.14133 8.32308 6.06293C9.02902 5.0642 10.0338 4.70893 11.2369 4.71536C14.1337 4.727 17.0324 4.71536 19.9301 4.72149C20.6742 4.72149 21.3873 4.86605 21.9768 5.34229C22.2208 5.53983 22.4069 5.80352 22.638 6.01607C22.7416 6.11101 22.8934 6.21116 23.0247 6.213C24.1192 6.22862 25.214 6.22433 26.3088 6.21912C26.5122 6.21398 26.715 6.19628 26.9161 6.16614C27.6936 6.06538 28.129 5.60751 28.317 4.89085C28.624 3.7197 28.3507 2.59662 28.0213 1.47814C28.0037 1.41689 27.9728 1.36207 27.9524 1.30296C27.8072 0.883069 27.9165 0.516166 28.238 0.340676C28.5752 0.156917 28.9773 0.252469 29.2751 0.574966C30.9622 2.39847 31.3756 4.5068 30.528 6.77193C29.7569 8.83279 28.1904 10.143 25.9498 10.5696C25.2212 10.7087 24.4573 10.6725 23.7092 10.7133C23.5603 10.7212 23.4101 10.7133 23.2233 10.7133C23.2174 10.8404 23.2079 10.9506 23.2079 11.0609C23.2079 12.1254 23.1878 13.1906 23.2117 14.2549C23.246 15.7927 22.2491 17.0952 20.7601 17.395C20.6531 17.4165 20.5268 17.5659 20.4925 17.6799C19.9547 19.4611 19.4304 21.246 18.903 23.03C18.7478 23.5546 18.4937 24.0042 17.903 24.1519C17.6749 24.2084 17.4406 24.238 17.2052 24.2401C16.089 24.2489 14.9728 24.244 13.8569 24.2437C12.8179 24.2437 12.2882 23.8585 12.0108 22.8922C11.5121 21.1541 11.0096 19.417 10.5243 17.6753C10.4614 17.448 10.3512 17.3601 10.127 17.3139C8.85679 17.052 7.89486 16.0346 7.82842 14.7844C7.76545 13.5768 7.78781 12.3649 7.77332 11.1552C7.77364 11.0201 7.77364 10.8866 7.77364 10.6636ZM15.5128 7.00285C14.0106 7.00285 12.508 7.0001 11.0058 7.00285C10.3861 7.00469 10.076 7.25552 10.0738 7.79516C10.0647 9.99762 10.0647 12.1999 10.0738 14.4019C10.076 14.9014 10.3301 15.1578 10.8474 15.2451C11.1529 15.3013 11.4613 15.3412 11.7712 15.3645C12.0889 15.3835 12.2391 15.5048 12.3292 15.8239C12.8808 17.7751 13.4693 19.7165 14.0257 21.6662C14.105 21.9455 14.2275 22.0193 14.51 22.0101C15.1639 21.989 15.8198 21.9853 16.4732 22.0101C16.7789 22.0224 16.8916 21.9259 16.9729 21.6426C17.5396 19.6626 18.1297 17.6894 18.7015 15.7109C18.7626 15.4996 18.8574 15.3991 19.0847 15.3835C19.3838 15.363 19.683 15.3189 19.9783 15.2748C20.7299 15.1633 20.9116 14.9581 20.9119 14.228C20.9119 12.1509 20.9119 10.0738 20.9119 7.99669C20.9119 7.24542 20.6635 7.00194 19.8908 7.00133C18.4319 7.00133 16.9726 7.00183 15.5128 7.00285Z" fill="#828282"/>
<path d="M12.4202 13.6102C11.5385 13.6163 10.8886 13.0222 10.8726 12.1934C10.8571 11.3873 11.5209 10.7481 12.3896 10.7322C13.2489 10.7166 13.9224 11.3414 13.9306 12.1613C13.9385 12.994 13.3024 13.6041 12.4202 13.6102Z" fill="#828282"/>
<path d="M18.5865 13.6102C17.7049 13.6081 17.0537 12.9977 17.0559 12.1775C17.0578 11.3668 17.7301 10.7335 18.5896 10.7319C19.4549 10.7304 20.1142 11.3558 20.1139 12.1781C20.1133 13.0087 19.4694 13.6124 18.5865 13.6102Z" fill="#828282"/>
</svg>
