<svg width="26" height="23" viewBox="0 0 26 23" fill="none" xmlns="http://www.w3.org/2000/svg">
<g clip-path="url(#clip0_376_1082)">
<path d="M12.5273 8.61207C13.4867 8.48355 14.4247 8.35803 15.3626 8.23183L21.4332 7.41424C21.7585 7.3704 22.0832 7.32292 22.4089 7.28141C22.8383 7.2286 23.082 7.36808 23.2752 7.7895C23.8194 8.9767 24.3661 10.1632 24.8989 11.3568C25.295 12.2441 24.94 13.1885 24.077 13.4635C21.8758 14.1649 19.6703 14.8497 17.4604 15.5181C16.8188 15.7137 16.293 15.4829 15.9208 14.8164C14.7884 12.79 13.6775 10.7477 12.5588 8.7107C12.5463 8.67866 12.5358 8.6457 12.5273 8.61207Z" fill="#828282"/>
<path d="M13.4955 20.6002C14.7697 20.2511 15.997 19.9151 17.2243 19.5783C18.4083 19.2539 19.5909 18.9235 20.7771 18.609C20.9887 18.5528 21.0737 18.4685 21.0664 18.2105C21.0471 17.5307 21.0664 16.8489 21.0561 16.1691C21.0537 15.9762 21.1048 15.8885 21.2829 15.84C21.8477 15.6873 22.4071 15.5113 22.9892 15.3383C22.997 15.4429 23.0076 15.5189 23.0076 15.595C23.0076 16.5358 23.0121 17.4766 23.0076 18.4177C23.0019 19.5179 22.4576 20.3146 21.487 20.5855C18.7355 21.3527 15.984 22.1201 13.2228 22.8437C12.7804 22.9596 12.2679 22.9434 11.8232 22.8285C9.07951 22.1111 6.34645 21.3467 3.60915 20.6002C2.85989 20.3959 2.36401 19.8878 2.09521 19.1021C2.05908 19.01 2.0378 18.9117 2.03232 18.8115C2.02778 17.6725 2.02929 16.5334 2.02929 15.3442C2.26665 15.4133 2.49826 15.4801 2.72987 15.5485C3.05522 15.6448 3.37753 15.7567 3.70651 15.8337C3.90062 15.8796 3.9484 15.9828 3.94477 16.1861C3.93509 16.8864 3.94477 17.5871 3.93903 18.2878C3.93751 18.4539 3.97954 18.5339 4.13798 18.5771C6.53371 19.2289 8.92823 19.8851 11.3215 20.5457C11.3726 20.5596 11.4259 20.5646 11.516 20.5789V20.2103C11.516 18.2284 11.5138 16.2465 11.519 14.266C11.519 14.0591 11.5311 13.8409 11.5906 13.6476C11.7542 13.1163 12.1651 12.8782 12.6955 12.9692C13.1575 13.0482 13.4898 13.4553 13.4913 13.989C13.498 16.0609 13.4952 18.1328 13.4958 20.2046L13.4955 20.6002Z" fill="#828282"/>
<path d="M12.4662 8.62035C12.0641 9.36986 11.6858 10.0752 11.307 10.7806C10.6033 12.0892 9.89917 13.3977 9.19466 14.7061C8.77135 15.4932 8.2401 15.728 7.44277 15.4809C5.3238 14.8251 3.20534 14.1673 1.08738 13.5073C0.114075 13.2041 -0.261157 12.2723 0.189063 11.2764C0.707314 10.1302 1.22818 8.98553 1.75168 7.84227C1.97149 7.36008 2.21853 7.22359 2.69808 7.28902C5.77009 7.70678 8.8421 8.1231 11.9141 8.53799C12.0825 8.56123 12.2531 8.58847 12.4662 8.62035Z" fill="#828282"/>
<path d="M7.31998 6.42539C6.76575 6.35366 6.24418 6.28658 5.7229 6.2185C5.46075 6.1853 5.19921 6.12751 4.93675 6.11888C4.66946 6.10925 4.62653 5.9442 4.63439 5.70875C4.66009 4.94064 4.79888 4.19577 5.08794 3.49806C5.74316 1.91634 6.80657 0.808168 8.32837 0.281812C10.1825 -0.359777 12.3933 0.213071 13.7304 1.85656C14.5577 2.87341 15.0024 4.0553 15.078 5.40988C15.0805 5.4577 15.0874 5.50485 15.101 5.63769C15.1678 5.46865 15.2093 5.37434 15.2434 5.27671C15.681 4.02608 16.1127 2.77279 16.556 1.52414C16.8432 0.71452 17.3479 0.175877 18.1564 0.0261069C19.4826 -0.219968 20.7265 1.25482 20.3207 2.66253C19.9881 3.81288 19.5612 4.92968 19.1654 6.05711C19.1379 6.13515 19.026 6.21585 18.945 6.22747C17.0863 6.49845 15.2259 6.75881 13.367 7.02447C13.1499 7.05469 12.9343 7.0972 12.7175 7.12111C12.5784 7.13539 12.4372 7.12377 12.27 7.12377C12.6933 5.64698 12.55 4.33425 11.3765 3.41205C10.4694 2.6984 9.44863 2.68146 8.4989 3.34132C7.49505 4.0367 7.08928 5.07148 7.31998 6.42539Z" fill="#828282"/>
</g>
<defs>
<clipPath id="clip0_376_1082">
<rect width="25.0602" height="22.9245" fill="white"/>
</clipPath>
</defs>
</svg>
