<svg width="27" height="24" viewBox="0 0 27 24" fill="none" xmlns="http://www.w3.org/2000/svg">
<g clip-path="url(#clip0_164_819)">
<path d="M13.115 9.01606C14.1194 8.88152 15.1013 8.7501 16.0833 8.61799L22.4386 7.76204C22.7792 7.71614 23.1192 7.66643 23.4601 7.62297C23.9096 7.56769 24.1648 7.71371 24.367 8.1549C24.9368 9.3978 25.5091 10.64 26.0669 11.8895C26.4816 12.8185 26.1099 13.8072 25.2065 14.0951C22.902 14.8294 20.593 15.5464 18.2795 16.2461C17.6078 16.4509 17.0573 16.2092 16.6676 15.5115C15.4821 13.39 14.3191 11.2519 13.1479 9.11932C13.1348 9.08577 13.1238 9.05127 13.115 9.01606V9.01606Z" fill="#828282"/>
<path d="M14.1287 21.5665C15.4626 21.2011 16.7475 20.8492 18.0324 20.4967C19.272 20.157 20.51 19.8111 21.7518 19.4819C21.9734 19.4231 22.0623 19.3348 22.0547 19.0647C22.0345 18.353 22.0547 17.6392 22.044 16.9276C22.0415 16.7256 22.0949 16.6338 22.2814 16.583C22.8727 16.4231 23.4583 16.2388 24.0677 16.0577C24.0759 16.1672 24.087 16.2468 24.087 16.3265C24.087 17.3114 24.0917 18.2963 24.087 19.2816C24.081 20.4334 23.5112 21.2675 22.4951 21.5512C19.6145 22.3543 16.7339 23.1577 13.8432 23.9153C13.38 24.0366 12.8435 24.0196 12.3778 23.8993C9.50549 23.1483 6.6442 22.348 3.77849 21.5665C2.99408 21.3527 2.47494 20.8207 2.19353 19.9981C2.1557 19.9017 2.13342 19.7988 2.12769 19.6939C2.12294 18.5015 2.12452 17.309 2.12452 16.064C2.37301 16.1363 2.61549 16.2062 2.85797 16.2778C3.19857 16.3786 3.53601 16.4958 3.88042 16.5764C4.08364 16.6244 4.13365 16.7325 4.12986 16.9453C4.11973 17.6785 4.12986 18.4121 4.12384 19.1457C4.12226 19.3195 4.16626 19.4033 4.33213 19.4485C6.84025 20.1308 9.34711 20.8178 11.8527 21.5094C11.9062 21.524 11.9619 21.5293 12.0562 21.5442V21.1583C12.0562 19.0834 12.054 17.0086 12.0594 14.9351C12.0594 14.7185 12.0721 14.4901 12.1344 14.2878C12.3057 13.7315 12.7359 13.4822 13.2911 13.5775C13.7748 13.6602 14.1227 14.0865 14.1243 14.6452C14.1312 16.8142 14.1284 18.9833 14.129 21.1524L14.1287 21.5665Z" fill="#828282"/>
<path d="M13.0511 9.02459C12.6301 9.80927 12.2341 10.5477 11.8374 11.2861C11.1007 12.6562 10.3636 14.0261 9.62601 15.3959C9.18284 16.2199 8.62667 16.4657 7.79193 16.207C5.57356 15.5205 3.35571 14.8317 1.1384 14.1408C0.119427 13.8234 -0.273409 12.8479 0.197932 11.8052C0.740496 10.6053 1.2858 9.4069 1.83385 8.21001C2.06398 7.7052 2.32261 7.56231 2.82465 7.6308C6.04078 8.06816 9.25692 8.50402 12.473 8.93837C12.6494 8.9627 12.8279 8.99121 13.0511 9.02459Z" fill="#828282"/>
<path d="M7.6633 6.72663C7.08307 6.65154 6.53702 6.58131 5.99129 6.51004C5.71684 6.47527 5.44303 6.41478 5.16826 6.40574C4.88843 6.39566 4.84348 6.22287 4.85171 5.97637C4.87862 5.17222 5.02392 4.39241 5.32654 3.66197C6.0125 2.00604 7.1258 0.845883 8.71899 0.294835C10.6601 -0.376854 12.9747 0.222868 14.3745 1.94346C15.2405 3.00801 15.7062 4.24535 15.7853 5.66347C15.7878 5.71354 15.7951 5.76291 15.8094 5.90197C15.8793 5.72501 15.9227 5.62627 15.9585 5.52406C16.4165 4.21475 16.8685 2.90267 17.3326 1.59545C17.6333 0.747842 18.1616 0.18393 19.0081 0.0271334C20.3965 -0.230486 21.6988 1.31349 21.274 2.78724C20.9257 3.99155 20.4788 5.16075 20.0644 6.34107C20.0356 6.42277 19.9185 6.50725 19.8337 6.51942C17.8878 6.80312 15.9401 7.07569 13.994 7.35382C13.7667 7.38546 13.541 7.42996 13.314 7.45499C13.1684 7.46994 13.0206 7.45777 12.8455 7.45777C13.2887 5.91171 13.1386 4.53739 11.9101 3.57192C10.9605 2.82479 9.8918 2.80706 8.89752 3.49787C7.84658 4.22588 7.42177 5.3092 7.6633 6.72663Z" fill="#828282"/>
</g>
<defs>
<clipPath id="clip0_164_819">
<rect width="26.2359" height="24" fill="white"/>
</clipPath>
</defs>
</svg>
