<svg width="26" height="23" viewBox="0 0 26 23" fill="none" xmlns="http://www.w3.org/2000/svg">
<g clip-path="url(#clip0_835_142)">
<path d="M7.68703 8.58473H18.1006L14.4473 1.57564C14.1742 1.04737 14.3802 0.396501 14.904 0.121807C15.4323 -0.152887 16.0814 0.0526729 16.3545 0.581083L20.5226 8.58473H24.355C25.1474 8.58473 25.7876 9.26753 25.7876 10.0222C25.7876 10.8577 25.1474 11.4597 24.355 11.4597L22.0314 20.8213C21.6732 22.1016 20.5674 23 19.2512 23H6.49615C5.2202 23 4.07408 22.1016 3.75532 20.8213L1.43264 11.4597C0.641556 11.4597 0 10.8577 0 10.0222C0 9.26753 0.641556 8.58473 1.43264 8.58473H5.26497L9.43307 0.581083C9.70616 0.0526729 10.3553 -0.152887 10.8836 0.121807C11.4074 0.396501 11.6134 1.04737 11.3403 1.57564L7.68703 8.58473ZM8.55557 13.6159C8.55557 13.2566 8.27352 12.8972 7.83925 12.8972C7.48557 12.8972 7.12293 13.2566 7.12293 13.6159V17.9284C7.12293 18.3641 7.48557 18.6471 7.83925 18.6471C8.27352 18.6471 8.55557 18.3641 8.55557 17.9284V13.6159ZM12.1372 13.6159V17.9284C12.1372 18.3641 12.4998 18.6471 12.8535 18.6471C13.2878 18.6471 13.6101 18.3641 13.6101 17.9284V13.6159C13.6101 13.2566 13.2878 12.8972 12.8535 12.8972C12.4998 12.8972 12.1372 13.2566 12.1372 13.6159ZM18.6244 13.6159C18.6244 13.2566 18.302 12.8972 17.9081 12.8972C17.5141 12.8972 17.1917 13.2566 17.1917 13.6159V17.9284C17.1917 18.3641 17.5141 18.6471 17.9081 18.6471C18.302 18.6471 18.6244 18.3641 18.6244 17.9284V13.6159Z" fill="#BDBDBD"/>
</g>
<defs>
<clipPath id="clip0_835_142">
<rect width="25.7876" height="23" fill="white"/>
</clipPath>
</defs>
</svg>
