<svg width="23" height="23" viewBox="0 0 23 23" fill="none" xmlns="http://www.w3.org/2000/svg">
<path d="M22.5777 7.60977L15.3902 0.422266C15.1117 0.140381 14.7433 0 14.375 0C14.0066 0 13.6391 0.140381 13.3588 0.421143C12.7973 0.982666 12.7973 1.89233 13.3588 2.45386L13.6722 2.76728L1.48036 14.9411C-0.260363 16.6818 -0.546965 19.5231 1.05922 21.3874C1.98012 22.4609 3.26848 23 4.55953 23H4.57962C5.76466 23 6.94925 22.5912 7.85353 21.647L20.216 9.31141L20.5469 9.64235C20.8257 9.92324 21.1941 10.0625 21.5625 10.0625C21.9308 10.0625 22.2983 9.92212 22.5786 9.64136C23.1392 9.07871 23.1392 8.17129 22.5777 7.60977ZM13.9527 11.5H8.99332L15.7002 4.80215L18.1789 7.27824L13.9527 11.5Z" fill="#BDBDBD"/>
</svg>
