<svg width="26" height="23" viewBox="0 0 26 23" fill="none" xmlns="http://www.w3.org/2000/svg">
<g clip-path="url(#clip0_164_827)">
<g clip-path="url(#clip1_164_827)">
<path d="M14.5039 4.04373C14.4866 3.76954 14.3963 3.47726 14.467 3.22611C14.6868 2.45071 15.5732 2.2829 16.2168 2.88063C16.9071 3.52332 17.5858 4.18192 18.2697 4.83339C18.3434 4.90358 18.4205 4.97048 18.4716 5.0171C19.0227 4.49559 19.5611 3.98451 20.1173 3.45752C19.9269 3.28533 19.7147 3.10656 19.5156 2.90915C18.9123 2.30593 19.1533 1.44882 19.9821 1.23551C20.3681 1.1357 20.6908 1.28705 20.9491 1.52724C21.859 2.37503 22.7591 3.23287 23.6491 4.10076C24.0408 4.48188 24.0983 4.92332 23.8527 5.29457C23.5806 5.70311 23.1234 5.88408 22.6701 5.72121C22.4814 5.65376 22.31 5.51941 22.1559 5.3889C21.9712 5.23261 21.8142 5.04781 21.6566 4.88713L20.0057 6.47742C20.0546 6.52677 20.1236 6.60025 20.1961 6.6699C20.8789 7.32192 21.568 7.96845 22.2444 8.6265C22.8714 9.23629 22.6649 10.1619 21.859 10.3369C21.6544 10.3769 21.4421 10.3626 21.2453 10.2958C21.048 10.2278 20.9433 10.2612 20.8041 10.3934C17.749 13.3005 14.6927 16.2069 11.6353 19.1125C11.2902 19.4415 10.9266 19.5934 10.4406 19.5863C9.1107 19.5677 7.78024 19.5742 6.45036 19.5863C6.28601 19.5929 6.12929 19.6542 6.00744 19.7596C5.24471 20.4643 4.50097 21.1881 3.744 21.8983C3.39887 22.2207 2.95481 22.2898 2.55676 22.1072C2.21164 21.9482 1.93209 21.5369 2.01492 21.1629C2.07664 20.8906 2.21232 20.6385 2.40836 20.4319C3.08251 19.747 3.78886 19.0906 4.49349 18.4336C4.57459 18.3655 4.63857 18.2808 4.68069 18.1859C4.72281 18.0909 4.74199 17.9882 4.73681 17.8853C4.72415 16.6536 4.74141 15.422 4.7253 14.1903C4.71578 13.9635 4.75748 13.7373 4.84759 13.5272C4.9377 13.3171 5.07412 13.1279 5.24759 12.9724C8.28623 10.0908 11.3191 7.20273 14.3462 4.30805C14.4268 4.23128 14.5188 4.16821 14.6103 4.09857L14.5039 4.04373ZM6.77765 17.6072C6.90419 17.6133 6.99738 17.6209 7.09056 17.6209C8.06842 17.6209 9.04282 17.6166 10.0189 17.6259C10.108 17.6288 10.1966 17.613 10.2785 17.5797C10.3604 17.5463 10.4336 17.4962 10.4929 17.4328C13.4196 14.6493 16.3495 11.8687 19.2827 9.09097C19.3632 9.02034 19.4483 8.95459 19.5375 8.89411L16.0644 5.58686L14.5062 6.95779C14.635 7.08721 14.7546 7.20511 14.8708 7.32521C15.1239 7.58623 15.3885 7.83958 15.6232 8.11322C15.7848 8.30022 15.7751 8.51737 15.633 8.72301C15.3615 9.11675 14.9721 9.17213 14.5907 8.84914C14.2272 8.54095 13.8815 8.21302 13.5617 7.92403L11.7647 9.60096C11.8798 9.71776 12.0063 9.84115 12.1288 9.96727C12.3756 10.2217 12.6321 10.4679 12.8622 10.735C13.0313 10.9313 13.0198 11.1545 12.8622 11.3673C12.5832 11.7511 12.2007 11.7956 11.8153 11.4649C11.4558 11.1561 11.1113 10.8321 10.7926 10.5442L9.01348 12.2359C9.1245 12.3456 9.25565 12.4772 9.3845 12.6099C9.62436 12.8572 9.87399 13.0974 10.0989 13.3568C10.2715 13.5525 10.2628 13.7752 10.1104 13.9891C9.83431 14.3773 9.44834 14.4278 9.06525 14.0987C8.70402 13.79 8.35947 13.4648 7.98846 13.1297C7.64334 13.4588 7.32064 13.7829 6.9807 14.0894C6.90977 14.1481 6.85386 14.2216 6.81728 14.3041C6.78069 14.3866 6.76438 14.476 6.76959 14.5654C6.7811 15.4773 6.77477 16.3898 6.77477 17.3023L6.77765 17.6072Z" fill="#828282"/>
</g>
</g>
<defs>
<clipPath id="clip0_164_827">
<rect width="25.0602" height="22.9245" fill="white" transform="translate(0.385742)"/>
</clipPath>
<clipPath id="clip1_164_827">
<rect width="22" height="21" fill="white" transform="translate(2 1.20752)"/>
</clipPath>
</defs>
</svg>
