<svg width="29" height="27" viewBox="0 0 29 27" fill="none" xmlns="http://www.w3.org/2000/svg">
<g clip-path="url(#clip0_167_4727)">
<path d="M7.2077 5.28922C7.2077 4.46322 7.17595 3.68322 7.22003 2.90467C7.2458 2.45024 7.32498 1.97465 7.49979 1.55635C7.94987 0.478868 8.8885 0.033199 10.0087 0.021154C12.9336 -0.0106012 15.8593 -0.00183792 18.7861 0.0153172C20.452 0.0251722 21.5744 1.15376 21.5856 2.77765C21.5908 3.59452 21.5856 4.41177 21.5856 5.26916C21.7417 5.27682 21.8732 5.28813 22.0051 5.28849C23.0177 5.28849 24.0302 5.28265 25.0428 5.29068C26.7983 5.30492 28.1803 6.2959 28.6491 7.89825C28.742 8.24015 28.7867 8.59284 28.782 8.94655C28.7908 13.5405 28.7919 18.1344 28.7854 22.7283C28.782 24.8307 27.2346 26.3754 25.0802 26.3783C17.9668 26.3927 10.8533 26.3927 3.73966 26.3783C1.59347 26.3746 0.019121 24.8146 0.0116508 22.6918C-0.00453464 18.1224 -0.00453464 13.553 0.0116508 8.98341C0.0161329 7.1949 1.08587 5.84877 2.81298 5.41624C3.16496 5.33478 3.52547 5.29375 3.88719 5.29397C4.97262 5.27937 6.05916 5.28922 7.2077 5.28922ZM1.80749 15.8429C1.79548 15.9001 1.787 15.958 1.78209 16.0163C1.78209 18.2888 1.76379 20.5613 1.78807 22.8334C1.80002 23.9868 2.53173 24.6431 3.73032 24.6438C10.8435 24.6465 17.9567 24.6455 25.0701 24.6409C25.3323 24.6454 25.5937 24.6113 25.8455 24.5398C26.6048 24.3062 27.0079 23.6744 27.0101 22.7297C27.0161 20.5427 27.0123 18.3559 27.0101 16.1688C27.0101 16.0637 26.9933 15.959 26.9843 15.8538H18.8844C18.8844 16.9653 18.8844 18.0501 18.8844 19.1352C18.8844 19.9382 18.5953 20.2244 17.7829 20.2255C15.5329 20.2279 13.2827 20.2279 11.0324 20.2255C10.2354 20.2255 9.9164 19.9185 9.91192 19.141C9.90557 18.176 9.91192 17.2106 9.90968 16.2455C9.90968 16.1159 9.8981 15.9863 9.89137 15.844L1.80749 15.8429ZM27.0135 14.0734V13.7113C27.0135 12.1352 27.0179 10.5591 27.0135 8.98341C27.0086 7.66941 26.346 7.02992 24.9999 7.02956C17.9368 7.02956 10.8736 7.02956 3.81025 7.02956C2.4686 7.02956 1.78433 7.70152 1.78172 9.02137C1.77823 10.585 1.77823 12.1488 1.78172 13.7127C1.78172 13.8299 1.7918 13.9471 1.79778 14.0734H27.0135ZM19.798 5.27682C19.798 4.34862 19.8208 3.45801 19.7898 2.56887C19.7707 2.02538 19.4136 1.75492 18.7932 1.75419C15.8674 1.74981 12.9416 1.74981 10.0158 1.75419C9.34343 1.75419 8.99159 2.11152 8.983 2.78714C8.97366 3.53247 8.98001 4.27781 8.983 5.02314C8.98971 5.10829 9.00219 5.19291 9.02035 5.27645L19.798 5.27682ZM11.7022 18.4563H17.077V15.8586H11.7022V18.4563Z" fill="white"/>
</g>
<defs>
<clipPath id="clip0_167_4727">
<rect width="28.7891" height="26.39" fill="white"/>
</clipPath>
</defs>
</svg>
