<svg width="20" height="19" viewBox="0 0 20 19" fill="none" xmlns="http://www.w3.org/2000/svg">
<g clip-path="url(#clip0_237_3147)">
<path d="M5.00734 3.6743C5.00734 3.10048 4.98528 2.5586 5.0159 2.01774C5.03381 1.70204 5.08882 1.37164 5.21025 1.08105C5.52293 0.332514 6.175 0.0229043 6.95319 0.0145365C8.98518 -0.00752405 11.0177 -0.00143615 13.051 0.0104816C14.2083 0.017328 14.988 0.801363 14.9958 1.92949C14.9994 2.49698 14.9958 3.06473 14.9958 3.66036C15.1042 3.66569 15.1956 3.67354 15.2872 3.6738C15.9906 3.6738 16.6941 3.66974 17.3975 3.67532C18.6171 3.68521 19.5772 4.37365 19.9028 5.48682C19.9674 5.72433 19.9984 5.96935 19.9952 6.21508C20.0012 9.4065 20.002 12.5979 19.9975 15.7893C19.9952 17.2499 18.9202 18.323 17.4235 18.325C12.4818 18.335 7.53996 18.335 2.59806 18.325C1.10709 18.3225 0.0133786 17.2388 0.00818898 15.764C-0.00305518 12.5896 -0.00305518 9.41521 0.00818898 6.24069C0.0113027 4.9982 0.754455 4.06302 1.95429 3.76255C2.19882 3.70595 2.44927 3.67745 2.70056 3.6776C3.45461 3.66746 4.20944 3.6743 5.00734 3.6743ZM1.25577 11.006C1.24743 11.0458 1.24154 11.086 1.23813 11.1265C1.23813 12.7052 1.22541 14.2839 1.24228 15.8624C1.25058 16.6637 1.7589 17.1196 2.59158 17.1201C7.53312 17.1219 12.4748 17.1213 17.4165 17.1181C17.5986 17.1212 17.7802 17.0975 17.9552 17.0478C18.4827 16.8855 18.7627 16.4466 18.7642 15.7904C18.7684 14.271 18.7658 12.7518 18.7642 11.2325C18.7642 11.1594 18.7525 11.0867 18.7463 11.0136H13.1192C13.1192 11.7857 13.1192 12.5393 13.1192 13.2932C13.1192 13.8511 12.9184 14.0499 12.354 14.0506C10.7909 14.0523 9.22771 14.0523 7.66442 14.0506C7.11069 14.0506 6.88909 13.8374 6.88598 13.2973C6.88157 12.6268 6.88598 11.9561 6.88442 11.2857C6.88442 11.1957 6.87638 11.1057 6.87171 11.0068L1.25577 11.006ZM18.7666 9.77671V9.52517C18.7666 8.43025 18.7697 7.33535 18.7666 6.24069C18.7632 5.32784 18.3029 4.88358 17.3677 4.88333C12.4609 4.88333 7.55406 4.88333 2.64711 4.88333C1.71505 4.88333 1.23968 5.35014 1.23787 6.26705C1.23545 7.35334 1.23545 8.43972 1.23787 9.52618C1.23787 9.60758 1.24487 9.68898 1.24902 9.77671H18.7666ZM13.7539 3.66569C13.7539 3.02086 13.7697 2.40215 13.7482 1.78445C13.735 1.40689 13.4869 1.21899 13.0559 1.21849C11.0233 1.21544 8.99071 1.21544 6.95812 1.21849C6.49105 1.21849 6.24662 1.46673 6.24065 1.93609C6.23416 2.45388 6.23858 2.97167 6.24065 3.48946C6.24532 3.54861 6.25398 3.6074 6.2666 3.66543L13.7539 3.66569ZM8.12967 12.8216H11.8636V11.0169H8.12967V12.8216Z" fill="#10C19F"/>
</g>
<defs>
<clipPath id="clip0_237_3147">
<rect width="20" height="18.3333" fill="white"/>
</clipPath>
</defs>
</svg>
