<svg width="53" height="40" viewBox="0 0 53 40" fill="none" xmlns="http://www.w3.org/2000/svg">
<g clip-path="url(#clip0_482_607)">
<path d="M5.14629 22.5391H7.69951V26.8972C7.86126 26.7859 7.95555 26.7253 8.0455 26.6585C10.7713 24.6284 14.607 24.492 17.4496 26.3559C18.724 27.1908 19.6554 28.32 20.2632 29.6822C20.3786 29.941 20.5171 30.0336 20.8181 30.0301C24.1627 30.0182 27.5073 30.0224 30.8518 30.0224H31.287V29.6245C31.287 21.4718 31.287 13.3194 31.287 5.16722C31.287 4.0777 30.8924 3.21012 29.8363 2.73702C29.4496 2.57535 29.0316 2.49379 28.6098 2.49768C22.5372 2.4833 16.4641 2.48075 10.3905 2.49003C9.00222 2.49003 7.92436 3.41397 7.74665 4.731C7.71763 4.93972 7.78727 5.16096 7.78945 5.37595C7.79525 6.07168 7.78945 6.76325 7.78945 7.50908H8.22466C11.8949 7.50908 15.5652 7.50908 19.2354 7.50908C19.4161 7.50525 19.5968 7.51759 19.7751 7.54595C20.4279 7.66631 20.8109 8.1095 20.8217 8.73566C20.8326 9.36182 20.4214 9.83353 19.7642 9.95529C19.6217 9.97926 19.4772 9.99044 19.3326 9.98868C13.3794 9.98868 7.42701 9.98868 1.47531 9.98868C0.662192 9.98868 0.205224 9.69369 0.0427465 9.07727C-0.187188 8.20829 0.374955 7.52229 1.34837 7.50977C2.48354 7.49516 3.6187 7.50629 4.75314 7.50629H5.19343C5.19343 7.04432 5.17457 6.6081 5.19343 6.17326C5.23333 5.40099 5.19343 4.60785 5.37186 3.86272C5.90717 1.58905 7.99545 0.0132063 10.442 0.00694471C16.4914 -0.00882532 22.5403 -0.00882532 28.5888 0.00694471C31.5431 0.0145978 33.8316 2.25696 33.8591 5.11435C33.8671 5.89844 33.8591 6.68324 33.8591 7.50629H34.282C35.8633 7.50629 37.4452 7.51186 39.0265 7.50629C40.3408 7.50003 41.4114 7.97313 42.2601 8.93742C44.3781 11.3437 46.5007 13.7464 48.6279 16.1453C49.251 16.8493 49.5114 17.6661 49.5106 18.5803C49.5063 22.239 49.5063 25.8981 49.5106 29.5577V30.0231C49.9364 30.0231 50.3419 30.0162 50.7437 30.0231C51.4335 30.037 51.8927 30.3432 52.0421 30.8754C52.296 31.7799 51.7324 32.4902 50.7278 32.5006C49.5926 32.5132 48.4582 32.5006 47.323 32.5006H46.8958C46.8153 34.8842 45.8999 36.8664 43.9726 38.3657C42.5285 39.4893 40.842 40.0167 39.004 39.9916C34.8652 39.9367 31.3712 36.9304 31.2529 32.5236H20.7826C20.6759 33.1498 20.6114 33.7759 20.4598 34.375C20.0841 35.8838 19.2157 37.2381 17.9813 38.2403C16.7468 39.2425 15.2108 39.8403 13.5973 39.9464C10.3528 40.1551 7.8511 38.916 6.15016 36.259C5.43424 35.141 5.12887 33.8838 5.12017 32.5807C5.09841 29.3037 5.11148 26.0268 5.11148 22.7499C5.13033 22.6866 5.13976 22.6212 5.14629 22.5391ZM13.0286 37.5287C15.8575 37.5218 18.2417 35.2328 18.2453 32.5194C18.2453 29.8193 15.8473 27.5101 13.0293 27.5052C10.2114 27.5004 7.80251 29.8012 7.79526 32.5013C7.788 35.2286 10.1903 37.5357 13.0286 37.5287ZM39.0954 37.5287C41.9242 37.5287 44.3114 35.2523 44.3273 32.5361C44.3433 29.8387 41.9475 27.5219 39.1273 27.5066C36.3072 27.4913 33.8685 29.8137 33.878 32.5229C33.8874 35.2321 36.268 37.5259 39.0954 37.5287ZM33.9135 20.0136V26.8742C34.0419 26.7775 34.1253 26.7121 34.2116 26.6502C36.6198 24.9289 39.2455 24.5769 42.0367 25.5975C44.1054 26.3545 45.493 27.8239 46.3771 29.7448C46.5026 30.0182 46.6513 30.0788 46.9125 29.9904V20.0136H33.9135ZM46.5048 17.5012C46.4381 17.4136 46.4127 17.3746 46.3815 17.3405C44.3114 15.0478 42.241 12.7559 40.1704 10.4646C40.0339 10.3093 39.8623 10.186 39.6686 10.1041C39.4748 10.0222 39.2641 9.98395 39.0526 9.99216C37.4474 9.99842 35.8415 9.99216 34.2363 9.99216H33.9048V17.4992L46.5048 17.5012Z" fill="white"/>
<path d="M13.0278 14.9973C10.0466 14.9973 7.06521 14.9973 4.08355 14.9973C3.27407 14.9973 2.81928 14.6995 2.65753 14.0782C2.45806 13.3129 2.87513 12.6833 3.68897 12.5434C3.83291 12.522 3.97856 12.513 4.12418 12.5163C10.0633 12.5163 16.0025 12.5163 21.9416 12.5163C22.0743 12.5137 22.207 12.5216 22.3384 12.54C23.0274 12.6527 23.4402 13.1112 23.4416 13.7561C23.4431 14.4011 23.0187 14.8637 22.3362 14.9729C22.1807 14.9936 22.0237 15.0018 21.8669 14.9973C18.92 14.9982 15.9737 14.9982 13.0278 14.9973Z" fill="white"/>
<path d="M10.4108 17.5182C13.3562 17.5182 16.3016 17.5182 19.247 17.5182C19.4277 17.5142 19.6084 17.5268 19.7866 17.5557C20.4395 17.6768 20.821 18.1214 20.8304 18.7468C20.8399 19.3723 20.4286 19.8433 19.7707 19.9644C19.6283 19.9888 19.4838 19.9999 19.3391 19.9978C13.3884 19.9978 7.4374 19.9978 1.48617 19.9978C0.672331 19.9978 0.215361 19.7042 0.0514324 19.0885C-0.15239 18.3231 0.262508 17.6879 1.06692 17.5467C1.23488 17.522 1.4048 17.5118 1.57466 17.5161C4.52005 17.5166 7.46543 17.5172 10.4108 17.5182Z" fill="white"/>
</g>
<defs>
<clipPath id="clip0_482_607">
<rect width="52.1212" height="40" fill="white"/>
</clipPath>
</defs>
</svg>
