<svg width="49" height="46" viewBox="0 0 49 46" fill="none" xmlns="http://www.w3.org/2000/svg">
<g clip-path="url(#clip0_482_725)">
<path d="M15.3208 37.3854H14.65C11.8421 37.3854 9.03521 37.3989 6.22732 37.3854C3.47465 37.368 1.51342 36.1545 0.471457 33.7458C0.173639 33.0276 0.0216897 32.2626 0.0235853 31.4911C-0.00709087 22.9752 -0.0125417 14.4594 0.00722741 5.94358C0.00722741 2.55661 2.78648 0.015398 6.46251 0.0144303C17.0287 0.0144303 27.595 0.0144303 38.1612 0.0144303C39.6592 0.0144303 41.1562 -0.00104829 42.6532 0.0192736C43.8035 0.0347569 44.9212 0.230236 45.9335 0.783765C47.996 1.91114 48.9694 3.67044 48.9776 5.86133C49.0096 14.3946 49.0124 22.9278 48.9858 31.4611C48.9858 34.0265 47.4059 36.2028 44.9744 36.9586C44.194 37.1794 43.3827 37.2868 42.5683 37.277C38.2634 37.308 33.9585 37.2847 29.6537 37.306C29.2902 37.316 28.9383 37.4289 28.6434 37.6302C24.8941 40.2785 21.1577 42.9407 17.4343 45.6167C17.0028 45.9264 16.5703 46.1402 16.0294 45.8973C15.4557 45.639 15.3218 45.1551 15.3218 44.6122C15.3218 42.4058 15.3218 40.2001 15.3218 37.995L15.3208 37.3854ZM18.4589 41.6646C18.6573 41.5359 18.7657 41.471 18.8679 41.3956C21.5899 39.4601 24.3201 37.5441 27.0247 35.5893C27.7484 35.0417 28.655 34.7568 29.5811 34.7861C30.0228 34.7968 30.4656 34.7861 30.9104 34.7861C34.8758 34.7861 38.8412 34.7861 42.8066 34.7861C43.5367 34.7861 44.2218 34.6806 44.8271 34.2481C45.7167 33.6133 46.0674 32.7665 46.0644 31.732C46.0531 27.4973 46.0644 23.2617 46.0644 19.027C46.0644 14.6788 46.0644 10.3308 46.0644 5.98326C46.0644 5.25748 45.9478 4.57524 45.4509 3.98591C44.7474 3.14497 43.8148 2.86531 42.7105 2.86627C30.6445 2.87789 18.5786 2.88046 6.51261 2.87401C6.34185 2.87401 6.17211 2.87401 6.00134 2.88175C5.58391 2.89382 5.1741 2.99072 4.79971 3.16587C4.42533 3.34102 4.09513 3.59033 3.83152 3.89689C3.27219 4.51428 3.13926 5.23232 3.13926 6.01036C3.14335 14.5443 3.14335 23.0788 3.13926 31.614C3.13926 33.68 4.29984 34.7832 6.47171 34.7851C9.48411 34.7851 12.4975 34.8151 15.5089 34.7774C18.1992 34.7435 18.5244 35.0174 18.462 37.5509C18.4323 38.8902 18.4589 40.2266 18.4589 41.6646Z" fill="white"/>
<path d="M30.1127 28.3065C29.7071 28.3059 29.3078 28.2119 28.9491 28.0327L24.6013 25.8689L20.2524 28.0327C19.8409 28.2391 19.3762 28.3317 18.9116 28.2998C18.4471 28.268 18.0014 28.113 17.6255 27.8527C17.2475 27.5948 16.9538 27.2413 16.7782 26.8328C16.6026 26.4243 16.5522 25.9772 16.6326 25.5428L17.464 20.9607L13.9444 17.715C13.6097 17.4085 13.373 17.019 13.2614 16.5912C13.1498 16.1633 13.1679 15.7143 13.3135 15.2957C13.4556 14.8756 13.72 14.502 14.0763 14.2177C14.4326 13.9334 14.8664 13.7499 15.3279 13.6883L20.19 13.0196L22.364 8.84979C22.5687 8.45358 22.8873 8.11999 23.2832 7.88722C23.6791 7.65446 24.1362 7.53194 24.6023 7.53371C25.0682 7.53189 25.5253 7.6544 25.921 7.88718C26.3167 8.11996 26.6351 8.45359 26.8396 8.84979L29.0135 13.0196L33.8747 13.6883C34.3362 13.7501 34.77 13.9336 35.1265 14.2179C35.4829 14.5022 35.7476 14.8757 35.8901 15.2957C36.0353 15.7144 36.0531 16.1634 35.9413 16.5912C35.8296 17.0191 35.5928 17.4085 35.2582 17.715L31.7365 20.9607L32.5668 25.5428C32.6473 25.9772 32.5969 26.4243 32.4213 26.8328C32.2457 27.2413 31.952 27.5948 31.5739 27.8527C31.1497 28.1461 30.6382 28.305 30.1127 28.3065ZM24.6013 22.8961C25.006 22.8959 25.4046 22.9889 25.7629 23.167L29.352 24.9525L28.6689 21.1706C28.6011 20.794 28.6309 20.4075 28.7555 20.0441C28.8802 19.6807 29.0961 19.3514 29.3847 19.0843L32.2887 16.4057L28.2763 15.8541C27.8757 15.7994 27.4952 15.6532 27.1677 15.4281C26.8402 15.203 26.5756 14.9058 26.3968 14.5622L24.6023 11.121L22.8077 14.5622C22.6287 14.9057 22.3641 15.2028 22.0367 15.4278C21.7092 15.6529 21.3288 15.7992 20.9283 15.8541L16.9149 16.4057L19.8189 19.0843C20.1085 19.3517 20.325 19.6819 20.4497 20.0462C20.5744 20.4105 20.6035 20.7981 20.5346 21.1755L19.8495 24.9573L23.4386 23.1719C23.7967 22.9917 24.1958 22.897 24.6013 22.8961Z" fill="white"/>
</g>
<defs>
<clipPath id="clip0_482_725">
<rect width="49" height="46" fill="white"/>
</clipPath>
</defs>
</svg>
