<svg width="26" height="29" viewBox="0 0 26 29" fill="none" xmlns="http://www.w3.org/2000/svg">
<g clip-path="url(#clip0_264_864)">
<path d="M12.8364 8.68159C14.3134 8.68159 15.5107 7.49375 15.5107 6.02848C15.5107 4.56321 14.3134 3.37537 12.8364 3.37537C11.3594 3.37537 10.1621 4.56321 10.1621 6.02848C10.1621 7.49375 11.3594 8.68159 12.8364 8.68159Z" fill="#FFFFB3"/>
<path d="M25.2571 25.6836H0.742857C0.334286 25.6836 0 26.0153 0 26.4206V28.6315C0 28.8379 0.163429 29 0.371429 29H25.6286C25.8366 29 26 28.8379 26 28.6315V26.4206C26 26.0153 25.6657 25.6836 25.2571 25.6836ZM25.6286 7.04551L13.3714 0.0958296C13.1411 -0.036826 12.8663 -0.036826 12.636 0.0958296L0.371429 7.04551C0.141143 7.17817 0 7.42137 0 7.68668V9.83865C0 10.045 0.163429 10.2071 0.371429 10.2071H25.6286C25.8366 10.2071 26 10.045 26 9.83865V7.68668C26 7.42137 25.8589 7.17817 25.6286 7.04551ZM13 8.18046C11.8189 8.18046 10.8606 7.22976 10.8606 6.05796C10.8606 4.88617 11.8189 3.93547 13 3.93547C14.1811 3.93547 15.1394 4.88617 15.1394 6.05796C15.1394 7.22976 14.1811 8.18046 13 8.18046Z" fill="#009097"/>
<path d="M15.2286 13.2508V12.5139C15.2286 12.3075 15.0652 12.1454 14.8572 12.1454H11.1429C10.9349 12.1454 10.7715 12.3075 10.7715 12.5139V13.2508C10.7715 13.4425 10.9201 13.5899 11.1058 13.612V22.4704C10.9201 22.4925 10.7715 22.6399 10.7715 22.8315V23.5685C10.7715 23.7749 10.9349 23.937 11.1429 23.937H14.8572C15.0652 23.937 15.2286 23.7749 15.2286 23.5685V22.8315C15.2286 22.6399 15.0801 22.4925 14.8943 22.4704V13.612C15.0801 13.5899 15.2286 13.4351 15.2286 13.2508Z" fill="#10C19F"/>
<path d="M3.34277 22.8315V23.5685C3.34277 23.7749 3.5062 23.937 3.7142 23.937H7.42849C7.63649 23.937 7.79992 23.7749 7.79992 23.5685V22.8315C7.79992 22.6252 7.63649 22.463 7.42849 22.463V13.6193C7.63649 13.6193 7.79992 13.4572 7.79992 13.2508V12.5139C7.79992 12.3075 7.63649 12.1454 7.42849 12.1454H3.7142C3.5062 12.1454 3.34277 12.3075 3.34277 12.5139V13.2508C3.34277 13.4572 3.5062 13.6193 3.7142 13.6193V22.463C3.5062 22.463 3.34277 22.6252 3.34277 22.8315Z" fill="#10C19F"/>
<path d="M18.2002 22.8315V23.5685C18.2002 23.7749 18.3636 23.937 18.5716 23.937H22.2859C22.4939 23.937 22.6573 23.7749 22.6573 23.5685V22.8315C22.6573 22.6252 22.4939 22.463 22.2859 22.463V13.6193C22.4939 13.6193 22.6573 13.4572 22.6573 13.2508V12.5139C22.6573 12.3075 22.4939 12.1454 22.2859 12.1454H18.5716C18.3636 12.1454 18.2002 12.3075 18.2002 12.5139V13.2508C18.2002 13.4277 18.3265 13.5677 18.4973 13.6046V22.4778C18.3265 22.5146 18.2002 22.6547 18.2002 22.8315Z" fill="#10C19F"/>
</g>
<defs>
<clipPath id="clip0_264_864">
<rect width="26" height="29" fill="white"/>
</clipPath>
</defs>
</svg>
