<svg width="92" height="17" viewBox="0 0 92 17" fill="none" xmlns="http://www.w3.org/2000/svg">
<circle cx="33.5001" cy="8.49998" r="7.97959" fill="#572C8E"/>
<path d="M28.0726 12.2294C28.9681 12.6465 29.8637 13.0733 30.7592 13.5001C30.8072 13.5245 30.8613 13.5346 30.915 13.5292H32.9591C33.0759 13.5292 33.0954 13.4904 33.0954 13.3837C33.0857 12.7823 33.0954 12.1809 33.0954 11.5795C33.0954 11.5407 33.0857 11.5213 33.0857 11.4631C33.0413 11.4848 32.9958 11.5043 32.9494 11.5213C32.3264 11.7929 31.684 12.016 30.9831 11.9287C30.7147 11.9021 30.462 11.7899 30.2628 11.6086C29.9026 11.2691 29.8053 10.8229 29.7955 10.3573C29.7924 9.96793 29.8184 9.57885 29.8734 9.19332C29.9198 8.73994 30.0415 8.2974 30.2336 7.88383C30.7495 6.74893 31.5087 5.77894 32.4043 4.92534C32.6963 4.64404 33.0467 4.42094 33.3777 4.16875C33.4122 4.1412 33.4551 4.12619 33.4994 4.12619C33.5436 4.12619 33.5865 4.1412 33.621 4.16875C33.8839 4.36274 34.1564 4.53734 34.3998 4.74104C35.0234 5.29237 35.5731 5.9216 36.0351 6.61313C36.5121 7.30183 36.9112 8.03903 37.0669 8.87322C37.1837 9.48432 37.2616 10.1051 37.1545 10.7259C36.9988 11.5601 36.5023 11.919 35.7528 11.9384C35.3836 11.9418 35.0171 11.876 34.6723 11.7444C34.4192 11.6571 34.1661 11.5504 33.9131 11.4534V13.3352C33.9131 13.4613 33.952 13.4904 34.0785 13.4904C34.7405 13.4807 35.3926 13.4904 36.0546 13.4807C36.1417 13.4763 36.2274 13.4566 36.3076 13.4225C37.174 13.0151 38.0403 12.598 38.8969 12.1906C39.0721 12.1033 39.0721 12.113 39.0235 11.919C38.5368 10.0178 38.0598 8.12633 37.5731 6.22514C37.5525 6.15613 37.5158 6.09296 37.466 6.04084C37.2713 5.84684 37.0669 5.66254 36.8722 5.47824C36.4926 5.12904 36.113 4.77984 35.7236 4.43064C35.2077 3.96505 34.7015 3.50915 34.1856 3.03385C33.9909 2.84955 33.7768 2.66525 33.5821 2.47125C33.5708 2.45715 33.5563 2.44594 33.5398 2.43855C33.5233 2.43116 33.5052 2.4278 33.4871 2.42875C33.469 2.42969 33.4515 2.43492 33.4358 2.444C33.4202 2.45308 33.4069 2.46575 33.3972 2.48095C33.3095 2.56825 33.2122 2.64585 33.1246 2.72345C32.7255 3.09205 32.3264 3.46065 31.9273 3.81955C31.499 4.20754 31.0804 4.59554 30.6424 4.98354L29.7079 5.82744C29.5911 5.94384 29.4451 6.04084 29.3964 6.22514C28.9195 8.11663 28.4425 10.0178 27.9558 11.9093C27.9363 12.113 27.9558 12.1809 28.0726 12.2294Z" fill="#F3C13F"/>
<circle cx="58.5001" cy="8.49998" r="7.97959" fill="#28A6DF"/>
<g clip-path="url(#clip0_691_89)">
<path d="M60.8485 11.8323C60.8485 11.8323 60.9175 11.7172 60.9524 11.8783C60.9524 11.8783 61.0214 12.8105 60.4804 13.3857C60.1124 13.7648 59.2614 14.3059 58.3074 14.0639C58.3074 14.0639 59.8364 13.9608 60.2274 12.4424L60.2734 12.2694C60.5043 12.1841 60.7045 12.0319 60.8485 11.8323ZM64.3334 7.13892C64.3353 7.11913 64.3311 7.09924 64.3215 7.08187C64.3215 7.08187 64.2985 6.98984 64.2414 6.82879C64.2285 6.8079 64.2206 6.78426 64.2184 6.75978C64.2173 6.75093 64.2131 6.74278 64.2065 6.73677C64.0556 6.39292 63.8412 6.08069 63.5744 5.81651C63.5744 5.81651 63.9305 5.7935 63.5395 5.35638C63.5395 5.35638 62.8955 4.59716 61.6424 4.01003C60.9754 3.6999 60.2164 3.82598 60.2854 4.57415C60.3314 5.09134 59.8484 5.2984 59.4684 5.25239C59.0204 5.19533 58.7444 4.82722 58.8244 4.52814C58.8958 4.22084 59.0722 3.9481 59.3231 3.75696C59.4887 3.60284 59.6973 3.50271 59.9211 3.46984C60.1051 3.43487 60.3581 3.36585 60.4271 3.58487C60.5531 3.51585 60.7831 3.07873 60.0361 3.07873C60.0035 3.01123 59.9502 2.95586 59.8841 2.92063C59.8179 2.88539 59.7423 2.87211 59.6681 2.88271C59.6681 2.88271 58.9201 2.1465 58.0811 3.05572C58.0811 3.05572 57.7591 3.1818 57.7361 3.05572C57.8051 3.11278 57.9311 2.94069 57.7701 2.87167C57.6901 2.8367 57.5981 2.92872 57.5861 2.99774C57.582 3.02365 57.5832 3.05013 57.5898 3.07552C57.5965 3.10091 57.6083 3.12465 57.6245 3.14523C57.6408 3.16582 57.6611 3.18281 57.6843 3.19512C57.7075 3.20743 57.7329 3.2148 57.7591 3.21677C57.8009 3.22273 57.8433 3.22273 57.8851 3.21677L57.8281 3.28579C57.5751 3.38886 57.3414 3.30879 57.2991 3.13578C57.3123 3.14355 57.3272 3.14788 57.3426 3.1484C57.3579 3.14892 57.3731 3.14559 57.3868 3.13874C57.4005 3.13188 57.4123 3.1217 57.4211 3.10913C57.4298 3.09656 57.4353 3.082 57.4371 3.06676C57.4425 3.04691 57.4434 3.02608 57.4396 3.00585C57.4358 2.98561 57.4275 2.96649 57.4153 2.94993C57.4031 2.93337 57.3873 2.91979 57.369 2.91022C57.3508 2.90065 57.3307 2.89533 57.3101 2.89467C57.1721 2.87167 57.1151 3.03271 57.1381 3.17075C57.1841 3.38886 57.3911 3.53886 57.6671 3.49284L57.6211 3.56186C57.4386 3.79506 57.2732 4.0411 57.1261 4.29807C56.8961 4.68919 55.9651 5.12631 56.1261 4.18304C56.1721 3.88396 55.6771 3.52689 54.792 4.12506C54.1842 4.53318 53.6792 5.07652 53.3164 5.71252C53.3164 5.71252 53.1324 6.0116 53.4424 6.02357C53.4424 6.02357 52.8104 6.32265 52.7754 7.7601V8.04814C52.7754 8.20919 52.7874 8.39324 52.7984 8.49631C52.7984 8.49631 52.8674 9.35951 53.0174 9.5086H53.0404C53.0864 9.54357 53.1434 9.55461 53.2244 9.47455C53.3532 10.0924 53.5498 10.6942 53.8104 11.2691C54.1324 11.9132 54.7194 12.8565 54.4894 13.0866C54.2594 13.3166 53.9374 12.8565 53.9834 13.0406C53.9999 13.1143 54.0343 13.1829 54.0837 13.2402C54.133 13.2975 54.1957 13.3417 54.2662 13.369C54.3367 13.3963 54.4128 13.4058 54.4878 13.3967C54.5629 13.3875 54.6345 13.3601 54.6964 13.3166C55.2484 12.8795 54.4434 11.8323 54.1904 10.5098C54.7194 10.2798 54.6964 9.45154 54.6964 9.45154C54.6964 9.45154 55.4434 9.42853 55.6734 8.54232C55.6734 8.54232 56.5824 8.80736 57.0194 8.01317V8.00213L57.0304 7.99017C57.132 8.27551 57.3065 8.52931 57.5364 8.72637C57.5135 8.84788 57.4574 8.96064 57.3742 9.05211C57.291 9.14358 57.1841 9.21018 57.0654 9.24448C56.7125 9.11543 56.3253 9.11543 55.9724 9.24448C55.4554 9.45154 55.6624 10.0037 56.0414 9.86566C56.0106 9.85343 55.9847 9.83135 55.9678 9.80285C55.9509 9.77436 55.9439 9.74106 55.9479 9.70815C55.9519 9.67525 55.9666 9.6446 55.9899 9.62098C56.0131 9.59736 56.0435 9.58212 56.0764 9.57762C56.1198 9.61226 56.1709 9.63593 56.2254 9.64664C56.2374 9.64664 56.6854 9.72762 57.0074 9.60062C57.0304 9.58958 57.0534 9.58958 57.0764 9.56657H57.0884C57.1174 9.54637 57.1442 9.52324 57.1684 9.49755C57.1998 9.49929 57.2296 9.51182 57.2527 9.53301C57.2759 9.55419 57.2911 9.58275 57.2956 9.61382C57.3002 9.6449 57.2938 9.67659 57.2777 9.70354C57.2616 9.73048 57.2366 9.75102 57.2071 9.76167C57.2632 9.77675 57.3226 9.77401 57.3772 9.75385C57.4317 9.73368 57.4786 9.69707 57.5114 9.64909C57.5442 9.6011 57.5614 9.5441 57.5604 9.48596C57.5594 9.42783 57.5405 9.37142 57.5061 9.32454C57.5061 9.32454 57.5751 9.27853 57.6671 9.20951C57.7333 9.14836 57.7911 9.07874 57.8391 9.00245C58.1033 9.18416 58.4001 9.3132 58.7131 9.38252C58.7131 9.38252 58.4141 9.8767 57.9771 9.96873C57.9771 9.96873 57.3561 9.76167 56.9311 10.0267C56.8666 10.0629 56.8139 10.1168 56.7792 10.1821C56.7445 10.2473 56.7292 10.3211 56.7351 10.3948C56.7406 10.4407 56.7556 10.485 56.7792 10.5248C56.8027 10.5646 56.8342 10.5991 56.8717 10.6261C56.9093 10.653 56.952 10.6719 56.9972 10.6816C57.0424 10.6912 57.0891 10.6913 57.1344 10.6819C57.0424 10.6359 56.8354 10.4059 57.0994 10.3028C57.1188 10.3362 57.1454 10.3648 57.1772 10.3866C57.209 10.4084 57.2453 10.4229 57.2834 10.4289C57.5797 10.4776 57.8838 10.4375 58.1574 10.3138C58.1804 10.3028 58.1924 10.3028 58.2154 10.2908C58.2241 10.2899 58.2322 10.286 58.2384 10.2798C58.2667 10.2627 58.2903 10.239 58.3074 10.2108C58.4334 10.1878 58.6064 10.2448 58.5374 10.4868C58.6864 10.4638 58.9284 10.1988 58.5714 9.98069C58.7081 9.91043 58.8367 9.82558 58.9551 9.72762L59.2081 9.47455C59.7021 9.54357 60.0701 10.0147 60.0701 10.5899C60.0701 11.062 59.6681 11.6142 59.2421 11.7292C59.2541 11.7292 59.2771 11.7172 59.2881 11.7172L59.2311 11.7292H59.2421C59.1663 11.7435 59.0893 11.7512 59.0121 11.7522C58.5714 11.7402 58.8364 11.2341 58.8364 11.2341C58.7995 11.2285 58.7617 11.233 58.7271 11.2473C58.6926 11.2616 58.6626 11.285 58.6404 11.3151C58.6036 11.3725 58.5786 11.4366 58.5668 11.5037C58.5549 11.5708 58.5565 11.6397 58.5714 11.7062C58.5484 11.6942 58.5254 11.6942 58.5144 11.6832C58.1344 11.5221 58.1574 11.2341 58.1574 11.2341C58.0544 11.2801 57.9854 11.4071 58.0194 11.6252C58.0774 11.9132 58.4454 12.0393 58.7444 12.0743C58.9164 12.2464 59.1924 12.4194 59.8254 12.3154C59.8254 12.3154 59.5494 13.7878 57.6864 13.7188C57.6864 13.7188 57.1224 13.5117 57.1454 13.0406C57.1684 12.4074 57.6054 12.1893 57.6054 12.1893C57.4444 12.1663 57.0534 12.2123 56.8814 12.7295C56.8363 12.8787 56.8263 13.0364 56.8522 13.1901C56.8781 13.3438 56.939 13.4895 57.0304 13.6157C56.3294 13.4317 55.8004 12.9025 56.0184 12.1663C56.0593 12.0423 56.1261 11.9284 56.2144 11.8323C56.7434 11.3381 57.5254 11.6372 57.5254 11.6372C57.4904 11.4642 57.2724 11.2341 56.8814 11.2111C56.4904 11.1881 55.7084 11.4301 55.6504 12.3614C55.5934 13.2127 56.1334 13.8338 57.4794 14.0298L57.5024 14.0409C57.7941 14.2182 58.1194 14.3333 58.4577 14.3789C58.7961 14.4245 59.1402 14.3997 59.4684 14.3059C59.4684 14.3059 61.7915 13.8338 61.2974 11.177C61.2974 11.177 61.8375 9.40553 60.6994 8.40428C61.4005 8.97945 62.2634 8.64631 62.2634 8.64631C62.2055 10.2568 62.8844 10.4638 62.8844 10.4638L62.9074 10.4519C62.9074 10.4519 61.6305 13.2016 62.3784 13.5577C62.4411 13.5905 62.51 13.6096 62.5806 13.6139C62.6512 13.6182 62.7218 13.6075 62.788 13.5826C62.8542 13.5577 62.9144 13.519 62.9646 13.4692C63.0148 13.4194 63.054 13.3596 63.0795 13.2936C63.2064 13.0286 62.8035 13.5467 62.5735 13.3277C62.2975 13.0516 62.6425 12.3964 62.9764 11.6942C63.4475 10.751 63.7584 10.0497 63.8155 9.57762C63.8378 9.59111 63.863 9.59921 63.889 9.60128C63.9151 9.60336 63.9412 9.59935 63.9654 9.58958L63.9765 9.60062C64.1605 9.55461 64.2755 8.79539 64.2985 8.66932C64.4187 8.16746 64.4306 7.64575 64.3334 7.13892Z" fill="white"/>
</g>
<circle cx="83.5001" cy="8.49998" r="7.97959" fill="#214796"/>
<g clip-path="url(#clip1_691_89)">
<path d="M85.8665 4.88484L83.5002 1.73474L81.1339 4.88484C79.3488 7.26327 78.6431 8.33091 78.6431 9.9271C78.6431 11.2802 78.9856 11.9356 80.231 12.8552L83.5002 15.2654L86.7694 12.8552C88.0149 11.9356 88.3574 11.2802 88.3574 9.9271C88.3574 8.33091 87.6516 7.26327 85.8665 4.88484ZM82.7737 12.7072L82.753 13.3626C82.753 13.4472 82.7011 13.4577 82.6492 13.4155C81.7981 12.7918 80.8018 12.0518 80.8018 12.0518C79.7639 11.2907 79.7017 10.4662 79.7017 9.90596C79.6956 9.48913 79.7733 9.07542 79.93 8.69032C79.9404 8.65861 79.9611 8.60576 79.9923 8.60576C80.0234 8.60576 80.0234 8.61633 80.0338 8.63747C80.397 9.17658 80.9782 10.054 81.5594 10.7728C82.6803 12.147 82.7945 12.0307 82.7737 12.7072ZM83.5002 11.4704C83.4898 11.4704 83.4795 11.4599 83.4691 11.4599L81.1754 8.69032C80.9277 8.41098 80.7844 8.05171 80.7707 7.67553C80.7766 7.4215 80.8641 7.17644 81.0197 6.97785L83.4691 3.55292C83.4795 3.54235 83.4898 3.53178 83.5002 3.53178C83.5106 3.53178 83.521 3.54235 83.5313 3.55292L85.9807 6.97785C86.1322 7.17875 86.2192 7.4224 86.2298 7.67553C86.2209 8.05276 86.0769 8.41368 85.825 8.69032L83.5313 11.4599C83.5272 11.4639 83.5223 11.4669 83.5169 11.4687C83.5116 11.4705 83.5058 11.4711 83.5002 11.4704ZM86.1986 12.0518C86.1986 12.0518 85.1919 12.7918 84.3512 13.4155C84.2994 13.4577 84.2578 13.4472 84.2475 13.3626L84.2267 12.7072C84.2059 12.0307 84.3201 12.147 85.441 10.7728C86.0222 10.054 86.6034 9.18715 86.9666 8.63747C86.9705 8.62917 86.9763 8.62194 86.9836 8.61642C86.9908 8.6109 86.9992 8.60724 87.0081 8.60576C87.0289 8.60576 87.06 8.65861 87.0704 8.69032C87.2222 9.07691 87.2998 9.4896 87.2987 9.90596C87.2987 10.4662 87.2365 11.2907 86.1986 12.0518Z" fill="white"/>
</g>
<g clip-path="url(#clip2_691_89)">
<path d="M12.511 12.6172C12.1127 12.3807 11.6594 12.2525 11.1962 12.2454C10.6915 12.2454 10.2798 12.4313 9.89463 12.6172C9.48291 12.8032 9.05791 13.0024 8.48682 13.0024C7.98213 13.0024 7.61025 12.8297 7.21182 12.6438C6.81338 12.4579 6.3751 12.2586 5.79072 12.2586C5.28604 12.2586 4.87432 12.4446 4.47588 12.6172C4.07744 12.7899 3.62588 13.0037 3.06807 13.0037H2.9751L3.14775 13.2162C3.71885 13.2029 4.14385 13.0037 4.55557 12.8178C4.96728 12.6318 5.3126 12.4725 5.77744 12.4725C6.30869 12.4725 6.69385 12.6584 7.10557 12.8443C7.51729 13.0303 7.929 13.2295 8.47353 13.2295C9.08447 13.2295 9.53604 13.017 9.97432 12.8178C10.3595 12.6451 10.7313 12.4725 11.1962 12.4725C11.7142 12.4725 12.0595 12.6451 12.4181 12.8311C12.8611 13.0911 13.3653 13.2286 13.879 13.2295C13.9454 13.1631 13.9985 13.0834 14.0649 13.0037C14.0118 13.0037 13.9454 13.017 13.8923 13.017C13.407 12.9944 12.9338 12.8579 12.511 12.6186" fill="#4F4F4F"/>
<path d="M11.1961 12.6438C10.6914 12.6438 10.2797 12.8297 9.89453 13.0157C9.48281 13.2016 9.05781 13.4008 8.48672 13.4008C7.98203 13.4008 7.61016 13.2282 7.21172 13.0422C6.81328 12.8563 6.375 12.6571 5.79063 12.6571C5.28594 12.6571 4.87422 12.843 4.47578 13.0157C4.11298 13.2006 3.72287 13.3262 3.32031 13.3875C3.37892 13.4528 3.44099 13.5149 3.50625 13.5735C3.87551 13.5045 4.2332 13.3838 4.56875 13.2149C4.96719 13.0422 5.32578 12.8696 5.79063 12.8696C6.32188 12.8696 6.70703 13.0555 7.11875 13.2415C7.53047 13.4274 7.94219 13.6266 8.48672 13.6266C9.09766 13.6266 9.54922 13.4141 9.9875 13.2149C10.3727 13.029 10.7445 12.8696 11.2094 12.8696C11.7273 12.8696 12.0727 13.0422 12.4313 13.2282C12.7733 13.42 13.1465 13.5504 13.5336 13.6133C13.5991 13.5503 13.6611 13.4838 13.7195 13.4141C13.2016 13.3875 12.8563 13.2016 12.5242 13.0422C12.1391 12.8297 11.7672 12.6438 11.1961 12.6438Z" fill="#4F4F4F"/>
<path d="M11.1961 13.0422C10.6914 13.0422 10.2797 13.2282 9.89453 13.4141C9.48281 13.6 9.05781 13.7993 8.48672 13.7993C7.98203 13.7993 7.61016 13.6266 7.21172 13.4407C6.81328 13.2547 6.375 13.0555 5.79063 13.0555C5.28594 13.0555 4.87422 13.2415 4.47578 13.4141C4.21412 13.5476 3.93777 13.6501 3.65234 13.7196C3.71875 13.7727 3.77187 13.8391 3.83828 13.8922C4.09062 13.8125 4.32969 13.7063 4.55547 13.6133C4.9539 13.4407 5.3125 13.268 5.77734 13.268C6.30859 13.268 6.69375 13.454 7.10547 13.6399C7.51719 13.8258 7.92891 14.025 8.47344 14.025C9.08437 14.025 9.53594 13.8125 9.97422 13.6133C10.3594 13.4407 10.7312 13.268 11.1961 13.268C11.7141 13.268 12.0594 13.4407 12.418 13.6133C12.6532 13.7436 12.9028 13.8461 13.1617 13.9188C13.2281 13.8657 13.2945 13.7993 13.3609 13.7461C13.0668 13.6785 12.7847 13.5666 12.5242 13.4141C12.1391 13.2415 11.7672 13.0422 11.1961 13.0422Z" fill="#4F4F4F"/>
<path d="M11.196 13.4539C10.6913 13.4539 10.2796 13.6398 9.89443 13.8257C9.48271 14.0117 9.05771 14.2109 8.48662 14.2109C7.98193 14.2109 7.61006 14.0382 7.21162 13.8523C6.81318 13.6664 6.3749 13.4671 5.79053 13.4671C5.28584 13.4671 4.87412 13.6531 4.47568 13.8257C4.31975 13.9001 4.16017 13.9666 3.99756 14.025L4.19678 14.1843C4.32959 14.1312 4.44912 14.0781 4.56865 14.025C4.96709 13.8523 5.32569 13.6796 5.79053 13.6796C6.32178 13.6796 6.70693 13.8656 7.11865 14.0515C7.53037 14.2374 7.94209 14.4367 8.48662 14.4367C9.09756 14.4367 9.54912 14.2242 9.9874 14.025C10.3726 13.839 10.7444 13.6796 11.2093 13.6796C11.7272 13.6796 12.0726 13.8523 12.4312 14.0382C12.5556 14.1081 12.6842 14.1702 12.8163 14.2242L13.0155 14.0648C12.8429 13.9984 12.6835 13.9187 12.5241 13.839C12.139 13.6398 11.7671 13.4539 11.196 13.4539Z" fill="#4F4F4F"/>
<path d="M11.1959 13.8523C10.6912 13.8523 10.2795 14.0382 9.89434 14.2242C9.48262 14.4101 9.05762 14.6093 8.48652 14.6093C7.98183 14.6093 7.60996 14.4367 7.21152 14.2507C6.81308 14.0648 6.37481 13.8656 5.79043 13.8656C5.28574 13.8656 4.87402 14.0515 4.47559 14.2242C4.43574 14.2507 4.38262 14.264 4.34277 14.2906C4.40918 14.3437 4.47559 14.3835 4.54199 14.4367C4.55527 14.4367 4.55527 14.4367 4.56855 14.4234C4.96699 14.2507 5.32559 14.0781 5.79043 14.0781C6.32168 14.0781 6.70684 14.264 7.11856 14.45C7.53027 14.6359 7.94199 14.8351 8.48652 14.8351C9.09746 14.8351 9.54902 14.6226 9.9873 14.4234C10.3725 14.2375 10.7443 14.0781 11.2092 14.0781C11.7271 14.0781 12.0725 14.2507 12.4311 14.4367C12.4443 14.45 12.4576 14.45 12.4842 14.4632C12.5506 14.4234 12.617 14.3703 12.6834 14.3304C12.6332 14.3067 12.5844 14.2801 12.5373 14.2507C12.1389 14.0515 11.767 13.8523 11.1959 13.8523Z" fill="#4F4F4F"/>
<path d="M9.86777 14.6226C9.45605 14.8086 9.03105 15.0078 8.45996 15.0078C7.95527 15.0078 7.5834 14.8351 7.18496 14.6492C6.78652 14.4633 6.34824 14.264 5.76387 14.264C5.38599 14.2734 5.01454 14.364 4.6748 14.5297C4.74708 14.5788 4.8225 14.6232 4.90059 14.6625C5.17347 14.5448 5.46674 14.4816 5.76387 14.4765C6.29512 14.4765 6.68027 14.6625 7.09199 14.8484C7.50371 15.0343 7.91543 15.2336 8.45996 15.2336C9.0709 15.2336 9.52246 15.0211 9.96074 14.8218C10.3459 14.6492 10.7178 14.4765 11.1826 14.4765C11.495 14.4721 11.8042 14.5403 12.0857 14.6758C12.1654 14.6359 12.2318 14.5828 12.2982 14.5429C11.9536 14.3633 11.5713 14.2677 11.1826 14.264C10.6912 14.264 10.2662 14.45 9.86777 14.6226Z" fill="#4F4F4F"/>
<path d="M8.5 0C6.24631 0.00210987 4.08552 0.898321 2.49192 2.49192C0.89832 4.08553 0.00210987 6.24631 0 8.5C0.00210987 10.7537 0.89832 12.9145 2.49192 14.5081C4.08552 16.1017 6.24631 16.9979 8.5 17C10.7537 16.9979 12.9145 16.1017 14.5081 14.5081C16.1017 12.9145 16.9979 10.7537 17 8.5C16.9979 6.24631 16.1017 4.08553 14.5081 2.49192C12.9145 0.898321 10.7537 0.00210987 8.5 0ZM8.5 15.6453C6.60516 15.6446 4.78813 14.8916 3.44828 13.5517C2.10842 12.2119 1.35539 10.3948 1.35469 8.5C1.35539 6.60516 2.10842 4.78813 3.44828 3.44828C4.78813 2.10843 6.60516 1.35539 8.5 1.35469C10.3948 1.35539 12.2119 2.10843 13.5517 3.44828C14.8916 4.78813 15.6446 6.60516 15.6453 8.5C15.6446 10.3948 14.8916 12.2119 13.5517 13.5517C12.2119 14.8916 10.3948 15.6446 8.5 15.6453Z" fill="#D10000"/>
<path d="M12.4709 6.40161C12.4178 6.66724 12.1522 6.94614 12.0061 7.06567C11.674 7.3313 9.46934 8.6727 9.21699 8.97817C8.96465 9.28364 8.9248 9.74849 8.9248 10.0938V12.6836H9.27012V12.0196C9.29792 11.6941 9.43891 11.3886 9.66856 11.1563C10.1201 10.6782 11.1693 10.0938 11.8732 9.58911C12.4443 9.16411 12.4842 8.59302 12.4842 8.10161V6.33521L12.4709 6.40161Z" fill="#41AB38"/>
<path d="M8.93848 8.81875C9.17754 8.51328 11.4619 7.13203 11.7807 6.86641C12.0994 6.60078 12.4846 6.20234 12.4846 5.68438V2.78906C12.4846 3.20078 12.2588 3.50625 11.9666 3.89141C11.6346 4.32969 10.1072 5.15313 9.3502 5.68438C8.59316 6.21563 8.34082 6.73359 8.34082 7.38438V12.6703H8.67285V9.90781C8.65957 9.5625 8.68613 9.12422 8.93848 8.81875Z" fill="#41AB38"/>
<path d="M7.21152 5.81724C6.5209 5.28599 5.11308 4.15708 4.94043 3.9313C4.76777 3.70552 4.40918 3.30708 4.40918 2.81567V5.51177C4.4226 5.82038 4.50612 6.12188 4.65339 6.39342C4.80066 6.66495 5.00783 6.89939 5.25918 7.07895C5.92324 7.57036 6.86621 8.27427 7.1584 8.56645C7.45059 8.85864 7.70293 9.36333 7.70293 10.0938V12.6969H8.03496V7.53052C8.06152 6.68052 7.90215 6.34849 7.21152 5.81724Z" fill="#41AB38"/>
</g>
<defs>
<clipPath id="clip0_691_89">
<rect width="11.6224" height="11.7959" fill="white" transform="translate(52.7754 2.60205)"/>
</clipPath>
<clipPath id="clip1_691_89">
<rect width="9.71429" height="13.5306" fill="white" transform="translate(78.6431 1.73474)"/>
</clipPath>
<clipPath id="clip2_691_89">
<rect width="17" height="17" fill="white"/>
</clipPath>
</defs>
</svg>
