<svg width="32" height="31" viewBox="0 0 32 31" fill="none" xmlns="http://www.w3.org/2000/svg">
<g clip-path="url(#clip0_237_3035)">
<path d="M15.9969 30.9963C12.261 30.9963 8.52512 31.0074 4.78858 30.992C2.96961 30.984 1.54496 30.2471 0.608756 28.7057C0.185176 28.009 0.00773234 27.2376 0.00646033 26.4404C-0.00329176 21.3045 -0.0045675 16.1681 0.00264057 11.0313C0.00312157 10.3944 0.142021 9.76463 0.410315 9.1831C1.38277 7.04596 2.32534 4.89587 3.31496 2.76612C4.06545 1.1514 5.36417 0.225446 7.2035 0.0554112C7.49797 0.0276881 7.79372 0.00612639 8.08883 0.00612639C13.4546 0.00284068 18.8208 0.00284068 24.1874 0.00612639C25.4855 0.00612639 26.6964 0.344348 27.618 1.27954C28.0587 1.72097 28.4237 2.22782 28.6992 2.7809C29.6895 4.83118 30.6231 6.90857 31.574 8.97548C31.8635 9.61619 32.0094 10.3091 32.002 11.0085C32.002 16.1449 32.002 21.2811 32.002 26.417C32.002 28.6854 30.4673 30.4831 28.186 30.91C27.8531 30.9682 27.5154 30.996 27.1773 30.9932C23.4494 30.9989 19.7226 31 15.9969 30.9963ZM29.7296 11.0806H20.5628V11.4355C20.5628 12.7378 20.5793 14.0402 20.5526 15.3419C20.5515 15.7302 20.4756 16.1149 20.3288 16.4761C19.9332 17.3818 19.1267 17.6947 18.1714 17.7015C16.7207 17.712 15.2706 17.7181 13.8205 17.6947C13.4415 17.695 13.0661 17.6247 12.7145 17.4877C11.7764 17.0916 11.4425 16.3129 11.4368 15.3709C11.431 14.0482 11.4368 12.7255 11.4368 11.4028V11.0861H2.27127V20.3968C2.27127 22.4171 2.27127 24.4372 2.27127 26.4571C2.27127 26.99 2.3705 27.4939 2.71203 27.9356C3.22084 28.5967 3.93125 28.8031 4.74725 28.8025C11.65 28.8 18.5524 28.8 25.4543 28.8025C26.0999 28.8025 26.7454 28.8062 27.3916 28.8025C27.9208 28.7981 28.4207 28.6873 28.8544 28.3712C29.5222 27.882 29.734 27.2007 29.734 26.425C29.7315 21.4209 29.7315 16.4168 29.734 11.4127L29.7296 11.0806ZM2.9925 8.84611H11.4431C11.8705 6.6338 12.2954 4.43197 12.7266 2.19872H12.3513C10.8287 2.19872 9.30593 2.19872 7.78291 2.19872C6.60439 2.19872 5.77567 2.69157 5.30248 3.76046C4.62768 5.284 3.92235 6.7946 3.23101 8.31075C3.15469 8.47893 3.08218 8.6465 2.9925 8.84796V8.84611ZM28.9943 8.84241C28.953 8.73399 28.9263 8.64774 28.8888 8.5658C28.1631 6.97449 27.4209 5.38934 26.7149 3.79003C26.2271 2.68418 25.3793 2.18825 24.1575 2.19626C22.6559 2.20673 21.1543 2.19626 19.652 2.19626H19.2704C19.7048 4.44183 20.1316 6.64551 20.5564 8.83995L28.9943 8.84241ZM18.2312 8.84241L16.9452 2.19626C16.3931 2.19626 15.8761 2.20796 15.3596 2.19133C15.1358 2.18393 15.0518 2.24862 15.0117 2.46733C14.7974 3.64587 14.5665 4.82194 14.3382 5.99864C14.1557 6.93999 13.9719 7.88135 13.7849 8.84241H18.2312ZM13.7302 11.0726V15.4818H18.2764V11.0726H13.7302Z" fill="#848484"/>
</g>
<defs>
<clipPath id="clip0_237_3035">
<rect width="32" height="31" fill="white"/>
</clipPath>
</defs>
</svg>
