<svg width="34" height="38" viewBox="0 0 34 38" fill="none" xmlns="http://www.w3.org/2000/svg">
<path d="M20.8141 10.8364C20.4955 11.3029 20.0326 12.0524 19.3953 12.2894C19.3953 12.2894 19.8809 12.3353 20.1768 12.2665L20.8141 10.8364Z" fill="#5B5B5B"/>
<path d="M20.4271 11.7617C20.0478 12.1823 19.4711 12.8476 18.811 12.9853C18.811 12.9853 19.289 13.1 19.5925 13.0771L20.4271 11.7617Z" fill="#5B5B5B"/>
<path d="M19.7975 12.7024C19.3499 13.0465 18.6746 13.6124 17.9993 13.6354C17.9993 13.6354 18.4469 13.8265 18.7504 13.8571L19.7975 12.7024Z" fill="#5B5B5B"/>
<path d="M23.2496 6.37795C22.6654 5.85793 22.6578 5.73557 22.8551 5.65145C23.0524 5.57498 23.4166 6.01088 23.4166 6.01088C23.4166 6.01088 23.151 5.41438 23.4317 5.38379C23.7049 5.35321 23.849 5.93441 23.849 5.93441C23.849 5.93441 23.887 5.29967 24.1601 5.3685C24.4409 5.43733 24.4257 5.98029 24.4257 5.98029C24.4257 5.98029 24.4864 5.38379 24.8202 5.5291C25.1465 5.6744 24.7444 6.56914 24.7444 6.56914L23.2496 6.37795Z" fill="#3F3B38"/>
<path d="M27.9693 7.60927C30.4883 7.37985 32.4004 5.76624 32.7039 4.47383C33.0074 3.18142 31.8768 0.978964 29.4944 0.030685C29.115 -0.122263 29.0391 0.298344 29.7979 0.787779C30.5642 1.28486 33.015 5.62859 26.338 6.16391C25.7006 6.6457 26.4138 7.8081 27.9693 7.60927Z" fill="#A5A5A5"/>
<path d="M27.0738 7.05084C34.3805 5.40664 30.9889 0.986438 30.0708 0.56583C29.6383 0.366997 29.4183 0.160517 29.3424 0.00756836C29.1072 0.0152158 29.1527 0.374644 29.7977 0.795252C30.564 1.29233 33.0148 5.63607 26.3378 6.17139C25.8749 6.51552 26.1253 7.22673 26.8841 7.50968C26.8841 7.34144 26.9448 7.18849 27.0738 7.05084Z" fill="#C9C9C9"/>
<path d="M26.8309 6.56905C26.3681 5.93432 26.5654 5.76608 26.7778 5.72784C26.9903 5.6896 27.2482 6.20198 27.2482 6.20198C27.2482 6.20198 27.3317 5.64372 27.6048 5.67431C27.878 5.7049 27.9083 6.27081 27.9083 6.27081C27.9083 6.27081 28.0677 5.74314 28.3181 5.87314C28.576 6.00315 28.4774 6.50023 28.4774 6.50023C28.4774 6.50023 28.7885 6.19433 29.0844 6.40081C29.3727 6.61494 28.7506 7.10437 28.7506 7.10437L26.8309 6.56905Z" fill="#3F3B38"/>
<path d="M28.3105 7.15037C28.5002 6.77565 31.0648 6.08738 31.7629 6.6227C32.4609 7.15802 33.3107 7.70099 33.1969 8.03747C33.0831 8.38161 31.2697 8.92458 30.7917 8.79457C30.3137 8.66456 28.5685 7.31097 28.3105 7.15037Z" fill="#636363"/>
<path d="M31.4062 7.93029C30.1164 7.93029 29.0086 7.54027 28.5306 6.97437C28.4243 7.03554 28.3409 7.09672 28.3181 7.14261C28.5761 7.3032 30.3212 8.6568 30.7992 8.78681C31.2772 8.91681 33.0907 8.37384 33.2045 8.02971C33.2424 7.93029 33.1893 7.80793 33.0755 7.67793C32.5899 7.83852 32.0208 7.93029 31.4062 7.93029Z" fill="#3F3B38"/>
<path d="M29.2061 7.37226C29.3275 7.18108 30.9588 6.82165 31.3988 7.09695C31.8465 7.37991 32.3852 7.66286 32.3093 7.83875C32.2335 8.01464 31.0878 8.2976 30.7843 8.22877C30.4808 8.16759 29.373 7.45638 29.2061 7.37226Z" fill="#BCABA0"/>
<path d="M5.89713 17.6275C4.85764 15.9221 2.15649 15.6544 0.654164 16.0597C-0.0287114 16.2433 -0.0211235 13.8343 4.72107 10.1636C4.72107 10.1636 4.89558 10.2936 4.79694 10.3548C3.56777 11.1042 -1.26547 16.0062 1.74676 15.5932C4.759 15.1726 6.52689 17.2221 6.52689 17.2221L5.89713 17.6275Z" fill="#3F3B38"/>
<path d="M23.9173 37.6024C23.4848 35.3617 22.9234 33.5875 22.2329 32.2721C22.2329 32.2721 22.7185 28.7773 22.4226 28.1349C22.1267 27.4925 26.0874 22.9193 26.7399 26.9725C25.9887 27.959 24.7444 32.5857 24.7444 32.5857L25.2224 37.5947H23.9173V37.6024Z" fill="#333232"/>
<path d="M7.31604 37.6023C7.27051 35.9734 6.7318 31.3773 6.39795 30.0926C8.87148 22.9193 8.48451 21.1374 8.59833 18.4456C8.59833 18.4456 17.6654 19.9521 12.1265 27.4007C11.6182 28.0813 8.93218 31.6144 8.93218 31.6144C8.93218 31.6144 8.64385 35.5605 8.64385 37.6023H7.31604Z" fill="#333232"/>
<path d="M29.0391 15.0195L21.4668 8.38159C21.4668 8.38159 20.1845 18.7056 6.29177 16.5414C6.29177 16.5414 4.10657 17.9103 3.91688 18.3997C3.72719 18.8968 4.10657 20.411 4.10657 20.411C4.50871 20.931 5.0019 21.5275 5.57096 22.1546L4.1521 28.7543C12.6956 25.8712 15.3285 31.668 22.2635 30.4214C29.8661 29.0602 29.335 19.1186 29.0391 15.0195Z" fill="#474747"/>
<path d="M28.0224 14.8513L21.4668 8.38159C21.4668 8.38159 20.1845 18.7056 6.29177 16.5414C6.29177 16.5414 4.10657 17.9103 3.91688 18.3997C3.72719 18.8968 4.10657 20.411 4.10657 20.411C4.50871 20.931 5.0019 21.5275 5.57096 22.1546L4.23556 27.676C12.7791 24.793 14.8505 30.0773 21.7855 28.8308C29.3957 27.4619 28.3259 18.9503 28.0224 14.8513Z" fill="#4C4C4C"/>
<path d="M28.9101 16.3273L21.5654 8.47339C21.5274 8.49633 21.4819 8.51927 21.444 8.54221C21.2088 9.84992 19.1525 18.5374 6.29932 16.5338C6.29932 16.5338 4.11412 17.9027 3.92443 18.3921C3.90926 18.4303 3.90167 18.4686 3.89408 18.5144C3.89408 18.5297 3.88649 18.545 3.88649 18.5603C3.87891 18.5909 3.87891 18.6292 3.87891 18.6674C3.87891 18.6827 3.87891 18.7056 3.87891 18.7209C3.87891 18.7592 3.87891 18.7974 3.87891 18.8433C3.87891 18.8586 3.87891 18.8815 3.87891 18.8968C3.87891 18.958 3.88649 19.0192 3.88649 19.0804C3.93961 19.6921 4.11412 20.4034 4.11412 20.4034C4.51626 20.9234 5.00944 21.5199 5.57851 22.147L4.24311 27.6684C7.93822 26.4219 24.8432 30.8574 28.9101 16.3273Z" fill="#565655"/>
<path d="M21.1555 9.9187C20.4802 14.2318 24.8051 19.5774 29.092 20.9692C29.092 20.9692 29.4942 16.419 28.6899 13.9336L21.1555 9.9187Z" fill="#444443"/>
<path d="M21.019 10.1634C20.9811 10.844 25.8219 16.8243 29.6005 16.1207C31.6339 15.7383 32.7948 15.0577 31.8616 13.6506C30.5413 11.6776 31.0801 8.6492 29.6764 7.42561C26.8538 4.96315 21.2846 5.36846 21.019 10.1634Z" fill="#515151"/>
<path d="M29.4639 15.4324C31.4973 15.05 32.1119 15.1724 31.1711 13.7653C29.8508 11.7922 30.5034 8.67209 29.1073 7.4485C27.5215 6.06432 24.9493 5.46017 23.705 7.05084C22.5972 8.46561 25.6853 16.136 29.4639 15.4324Z" fill="#636363"/>
<path d="M23.447 8.65698H29.9571C29.9571 8.65698 29.8433 11.3336 27.7112 11.3565C25.2225 11.3948 23.447 8.65698 23.447 8.65698Z" fill="#4C4C4C"/>
<path d="M2.1185 37.6025C2.1185 35.9736 1.70119 31.3392 1.40527 30.0545C4.07607 22.8812 3.74222 21.0994 3.92432 18.4075C3.92432 18.4075 12.9459 19.914 7.20213 27.3626C6.67859 28.0432 3.88639 31.5763 3.88639 31.5763C3.88639 31.5763 3.56012 35.6142 3.47666 37.6101H2.1185V37.6025Z" fill="#444444"/>
<path d="M18.9855 37.6025C18.6744 35.6065 18.2115 33.9164 17.5894 32.7464C17.5894 32.7464 18.1888 29.4044 17.9308 28.8385C17.6652 28.2726 22.0584 24.2424 22.4833 27.852C21.9598 28.6856 20.1084 33.2434 20.1084 33.2434L20.2602 37.6101H18.9855V37.6025Z" fill="#444444"/>
<path d="M22.3316 8.02981C22.1116 7.58626 19.4635 6.8827 18.7958 7.57096C18.1205 8.25923 17.3011 8.96279 17.4377 9.3681C17.5742 9.78106 19.4483 10.3393 19.9264 10.1558C20.4044 9.97989 22.0812 8.23629 22.3316 8.02981Z" fill="#636363"/>
<path d="M22.1041 7.83105C21.4744 8.50403 20.3742 9.03934 19.0615 9.22288C18.4925 9.29936 17.9386 9.29936 17.4302 9.23818C17.4226 9.28406 17.4302 9.32995 17.4454 9.36818C17.582 9.78114 19.4561 10.3394 19.9341 10.1559C20.4121 9.97233 22.089 8.22872 22.3393 8.02224C22.3014 7.96871 22.2179 7.89988 22.1041 7.83105Z" fill="#3F3B38"/>
<path d="M21.755 8.2516C21.6108 7.9763 19.8202 7.5251 19.3649 7.94571C18.9097 8.36631 18.3482 8.79457 18.4392 9.04693C18.5303 9.2993 19.7974 9.65873 20.1161 9.55166C20.4499 9.4446 21.5881 8.38161 21.755 8.2516Z" fill="#BCABA0"/>
<path d="M22.3393 7.60927C19.8581 7.37985 17.9689 5.76624 17.6729 4.47383C17.3694 3.18142 18.4924 0.978964 20.8369 0.030685C21.2163 -0.122263 21.2922 0.298344 20.5334 0.787779C19.7823 1.28486 17.3619 5.62859 23.9478 6.16391C24.57 6.6457 23.8643 7.8081 22.3393 7.60927Z" fill="#C9C9C9"/>
<path d="M23.9403 6.16385C17.3544 5.63618 19.7748 1.28481 20.5259 0.787724C21.2012 0.344175 21.2088 -0.0305486 20.9357 4.10251e-05C20.2831 0.405354 14.6911 5.1391 23.2954 6.89801C23.4623 7.0586 23.5154 7.26508 23.4775 7.47156C24.1679 7.17331 24.3804 6.50034 23.9403 6.16385Z" fill="#A5A5A5"/>
<path d="M27.4305 16.8779C26.8918 16.7249 27.127 15.9678 27.3167 15.7767C27.5064 15.5855 31.4595 15.8149 31.118 16.3426C30.7842 16.8779 30.4807 17.7497 27.4305 16.8779Z" fill="#565655"/>
<path d="M26.0572 15.7079C25.215 14.7367 28.6825 11.7924 29.8509 11.823C30.936 11.8536 33.326 15.1879 32.2258 16.0214C31.8389 16.312 31.6719 16.6638 30.2986 16.1208C28.6597 15.4708 26.8615 16.6409 26.0572 15.7079Z" fill="#565655"/>
<path d="M26.4669 15.5014C25.7385 14.6525 28.7583 12.083 29.775 12.1136C30.7235 12.1365 32.81 15.0502 31.8464 15.7767C31.5126 16.029 31.3608 16.3349 30.1696 15.8608C28.7355 15.2949 27.1649 16.312 26.4669 15.5014Z" fill="#636363"/>
<path d="M27.8325 13.3601C28.1967 12.8247 29.2969 12.2053 29.737 12.2512C30.1846 12.2971 30.8599 13.0389 30.8599 13.253C30.8599 13.4671 26.8461 14.8207 27.8325 13.3601Z" fill="#6D6D6D"/>
<path d="M27.825 13.8649C27.7946 13.3372 28.2347 12.909 28.652 13.0543C29.0693 13.1919 29.4714 13.7349 29.3956 14.0331C29.3197 14.3314 29.0769 14.7673 28.7127 14.6602C28.3485 14.5455 27.8477 14.1937 27.825 13.8649Z" fill="#211F1F"/>
<path d="M31.2318 13.6429C31.6263 13.6582 31.9071 14.033 31.7705 14.3312C31.6339 14.6371 31.1938 14.8971 30.9814 14.813C30.7689 14.7289 30.4579 14.5147 30.5717 14.2471C30.6779 13.9871 30.9814 13.6353 31.2318 13.6429Z" fill="#211F1F"/>
<path d="M24.8279 8.69507C25.1466 9.55922 25.617 10.194 26.0343 8.70272L24.8279 8.69507Z" fill="#211F1F"/>
<path d="M28.3105 8.66455C28.5837 9.544 29.0466 10.1329 29.5549 8.6722L28.3105 8.66455Z" fill="#211F1F"/>
<path d="M19.6457 12.5876C17.7488 15.1495 13.9171 17.7267 6.29927 16.5337C6.29927 16.5337 4.11407 17.9026 3.92438 18.392C3.86368 18.545 3.86368 18.805 3.88645 19.0803C3.78781 21.168 3.82575 23.0187 2.15649 27.9437C12.0203 26.093 18.4165 20.0209 19.6457 12.5876Z" fill="#5E5E5E"/>
<path d="M9.10662 23.1641C9.04592 24.2882 8.49961 25.6724 7.20214 27.3548C7.14144 27.439 7.04281 27.5613 6.91382 27.7219L8.78035 27.5154C9.26596 25.6189 9.30389 24.2194 9.10662 23.1641Z" fill="#494949"/>
<path d="M1.40527 30.0468C3.13522 29.8327 8.47683 28.0355 9.07624 23.3324C9.4025 20.7399 3.65117 22.3076 3.65117 22.3076C3.05935 25.0454 2.37647 27.0261 1.40527 30.0468Z" fill="#5E5E5E"/>
<path d="M17.6046 32.7386C18.7503 32.2568 24.1906 29.5114 21.9523 25.0759C21.0645 23.317 19.1145 23.2864 17.7867 24.9459C16.99 25.94 17.0659 28.089 17.6046 32.7386Z" fill="#565655"/>
<path d="M27.4835 16.5185C27.2711 16.0443 28.7582 15.8455 29.1832 15.8761C29.6156 15.9067 30.2985 16.2738 30.0102 16.5797C29.7219 16.8856 27.6277 16.8397 27.4835 16.5185Z" fill="#636363"/>
<path d="M18.7351 36.2334C18.8262 36.6693 18.9096 37.1281 18.9855 37.6023H20.2678L20.2223 36.2334H18.7351Z" fill="#3F3F3F"/>
<path d="M23.614 36.1953C23.7202 36.6389 23.8189 37.1053 23.9175 37.5948H25.2225L25.086 36.1953H23.614Z" fill="#302F2F"/>
<path d="M7.22485 36.2334C7.27038 36.784 7.30073 37.2582 7.3159 37.6023H8.64372C8.64372 37.2046 8.6513 36.7305 8.67407 36.2334H7.22485Z" fill="#302F2F"/>
<path d="M2.06543 36.1953C2.09578 36.7612 2.11854 37.243 2.11854 37.5948H3.47671C3.49188 37.1971 3.52223 36.7077 3.55258 36.1953H2.06543Z" fill="#3F3F3F"/>
<path d="M4.19002 10.7218C3.18088 9.78884 5.34331 9.50589 6.04895 9.07764C5.57094 9.75825 5.32055 11.7619 4.19002 10.7218Z" fill="#636363"/>
</svg>
