<svg width="20" height="20" viewBox="0 0 20 20" fill="none" xmlns="http://www.w3.org/2000/svg">
<path d="M16.0625 5.8125L11.6875 1.4375C11.5625 1.3125 11.4375 1.25 11.25 1.25H5C4.3125 1.25 3.75 1.8125 3.75 2.5V17.5C3.75 18.1875 4.3125 18.75 5 18.75H15C15.6875 18.75 16.25 18.1875 16.25 17.5V6.25C16.25 6.0625 16.1875 5.9375 16.0625 5.8125ZM11.25 2.75L14.75 6.25H11.25V2.75ZM15 17.5H5V2.5H10V6.25C10 6.9375 10.5625 7.5 11.25 7.5H15V17.5Z" fill="#10C19F"/>
<path d="M6.25 13.75H13.75V15H6.25V13.75ZM6.25 10H13.75V11.25H6.25V10Z" fill="#10C19F"/>
</svg>
