<svg width="28" height="30" viewBox="0 0 28 30" fill="none" xmlns="http://www.w3.org/2000/svg">
<g clip-path="url(#clip0_36_355)">
<path d="M25.3939 22.209C24.6145 22.2632 23.8937 22.3476 23.1724 22.3556C21.9065 22.3697 21.0435 21.5273 21.0315 20.2369C21.0078 17.792 21.0078 15.3468 21.0315 12.9012C21.0426 11.6109 21.9042 10.7797 23.1645 10.7655C23.5992 10.7613 24.0335 10.7655 24.4719 10.7655C23.4068 7.61628 19.9004 4.14549 15.2367 3.67027C9.73213 3.10925 5.21744 6.46171 3.56118 10.7651C3.98344 10.7651 4.41123 10.7651 4.83903 10.7651C6.18702 10.7731 6.99969 11.5962 7.002 12.9686C7.00615 15.3645 6.96692 17.7609 7.01768 20.1554C7.02445 20.4487 6.97286 20.7405 6.86603 21.0129C6.75921 21.2853 6.59936 21.5328 6.39619 21.7402C6.19302 21.9477 5.95076 22.1109 5.68405 22.2199C5.41734 22.3289 5.13175 22.3815 4.84457 22.3745C3.81408 22.3466 2.80804 22.3037 1.90492 21.7097C0.831045 21.0025 0.214042 19.9856 0.105133 18.7127C-0.0794606 16.5912 -0.0429967 14.4697 0.423562 12.3831C0.913496 10.1724 1.88659 8.10364 3.26998 6.33159C5.39281 3.6005 8.11555 1.82786 11.471 1.19895C15.0272 0.532791 18.372 1.1749 21.4363 3.20213C24.2305 5.0502 26.0571 7.66343 27.1831 10.8108C27.7221 12.331 27.9964 13.9358 27.9935 15.5526C27.9995 18.0725 28.0041 20.5924 27.9935 23.1118C27.9838 25.04 27.1785 26.526 25.5476 27.517C24.7659 27.9917 23.8992 28.1671 22.9998 28.1704C21.1538 28.177 19.3079 28.1704 17.462 28.1794C17.3138 28.1794 17.0983 28.2364 17.0296 28.3439C16.5681 29.069 15.8971 29.4537 15.0821 29.4754C14.1785 29.4985 13.2477 29.5272 12.3723 29.3396C11.123 29.0714 10.5263 27.8781 10.5582 26.7782C10.5965 25.4634 11.4719 24.429 12.6745 24.2536C13.6843 24.1066 14.7074 24.0651 15.7111 24.3305C16.2478 24.4719 16.6562 24.8071 16.982 25.2696C17.035 25.3363 17.1008 25.3913 17.1753 25.4312C17.2498 25.4711 17.3315 25.495 17.4154 25.5016C19.3347 25.5166 21.2549 25.4832 23.1737 25.5218C24.3404 25.5459 25.4507 24.4144 25.3995 23.2919C25.3796 22.91 25.3939 22.5272 25.3939 22.209ZM23.6431 19.6768C24.74 19.7791 25.3732 19.2304 25.3916 18.1621C25.4101 17.0938 25.4105 16.0311 25.3916 14.9657C25.3745 13.9455 24.6108 13.2977 23.6417 13.4707L23.6431 19.6768ZM4.38262 13.4509C3.38813 13.3609 2.66867 13.9563 2.63729 14.9317C2.60268 16.009 2.60084 17.0891 2.63729 18.1658C2.67375 19.2426 3.37982 19.8202 4.38078 19.6603L4.38262 13.4509Z" fill="white"/>
</g>
<defs>
<clipPath id="clip0_36_355">
<rect width="28" height="28.5456" fill="white" transform="translate(0 0.945801)"/>
</clipPath>
</defs>
</svg>
