<svg width="36" height="29" viewBox="0 0 36 29" fill="none" xmlns="http://www.w3.org/2000/svg">
<g clip-path="url(#clip0_36_358)">
<path d="M2.53411 16.3411C1.95378 15.4834 1.38461 14.7718 0.957652 13.9854C0.0150618 12.2508 -0.200712 10.3976 0.197672 8.46442C0.694913 6.05067 2.095 4.25194 4.07313 2.84109C5.78917 1.6159 7.71671 0.929269 9.80913 0.663559C12.5022 0.322348 15.0801 0.719618 17.4914 1.94383C19.6285 3.02903 21.3524 4.57435 22.3288 6.78882C23.1483 8.64652 23.2616 10.5755 22.6878 12.5333C22.0076 14.8544 20.4634 16.5102 18.4741 17.8025C16.5964 19.0222 14.5001 19.5847 12.2691 19.736C11.113 19.8141 9.98123 19.7202 8.84749 19.5215C8.65274 19.4875 8.40346 19.54 8.22972 19.6385C6.15897 20.8138 3.94077 21.4709 1.54817 21.5335C0.91397 21.55 0.394401 21.3147 0.124433 20.7392C-0.13831 20.177 0.0413368 19.6767 0.424613 19.1878C1.17671 18.2283 1.87922 17.2309 2.53411 16.3411ZM4.22552 18.5381C4.38973 18.4898 4.46461 18.4788 4.52833 18.4477C5.41114 18.0203 6.32976 17.6489 7.16232 17.1408C7.79422 16.7555 8.39558 16.6609 9.08002 16.8443C9.15129 16.8634 9.22617 16.8686 9.29744 16.8881C10.6062 17.2426 11.9268 17.228 13.257 17.0258C15.4683 16.6898 17.3834 15.7705 18.8472 14.0916C20.3579 12.3606 20.8315 10.3652 20.0249 8.17408C19.2843 6.16278 17.7377 4.88608 15.8325 4.02252C13.9119 3.15216 11.8792 2.95968 9.79436 3.27724C7.43394 3.63854 5.44662 4.66088 3.9503 6.52506C3.09638 7.58855 2.64118 8.82929 2.63658 10.1734C2.63199 11.6179 3.17094 12.9079 4.13225 14.0071C4.6469 14.5958 5.18716 15.1632 5.72348 15.7488C5.23544 16.6587 4.75199 17.5588 4.22552 18.5381Z" fill="white"/>
<path d="M13.668 21.4833C14.5042 21.2691 15.3318 21.0497 16.1641 20.8534C16.2626 20.8297 16.4341 20.8984 16.5027 20.9804C17.8075 22.5325 19.4989 23.447 21.462 23.9045C22.907 24.2415 24.364 24.3125 25.8241 23.9819C27.375 23.6307 27.3697 23.6388 28.757 24.4255C29.2901 24.7275 29.8487 24.9878 30.4054 25.2476C30.6573 25.3649 30.9309 25.4343 31.2649 25.549C30.7394 24.5817 30.2504 23.6786 29.7502 22.7568C30.1975 22.2791 30.6419 21.808 31.0823 21.3336C32.6509 19.6444 33.2217 17.6901 32.5898 15.465C32.215 14.1468 31.3723 13.1212 30.2987 12.2667C28.7807 11.0581 27.0173 10.4716 25.1128 10.2279C25.0405 10.2185 24.9686 10.2049 24.9128 10.1955C24.805 9.31572 24.6993 8.45055 24.587 7.53223C25.1696 7.60578 25.7769 7.6586 26.3753 7.76164C28.8884 8.19369 31.0588 9.29099 32.8863 11.0535C35.9604 14.0227 36.3421 18.9241 33.7403 22.2927C33.5419 22.5417 33.3284 22.7785 33.1008 23.0017C32.9658 23.1388 32.9507 23.2555 33.0617 23.4107C33.7074 24.3141 34.3262 25.2379 34.9995 26.1199C35.3936 26.6345 35.6268 27.1274 35.3184 27.7586C35.0438 28.3211 34.5738 28.558 33.9718 28.545C31.6446 28.4942 29.47 27.8869 27.4551 26.7408C27.1162 26.548 26.8101 26.4945 26.4143 26.5626C22.9809 27.1536 19.7564 26.5827 16.8111 24.724C15.565 23.9379 14.5206 22.9168 13.7367 21.6605C13.7099 21.6198 13.6863 21.5771 13.6661 21.5329C13.6625 21.5164 13.6632 21.4994 13.668 21.4833Z" fill="white"/>
<path d="M11.3374 5.35881C12.1154 5.32641 12.8879 5.31669 13.6002 5.71525C15.2397 6.63292 15.3373 8.98446 13.7618 10.0091C13.4147 10.2359 13.0334 10.4135 12.6557 10.5881C12.432 10.6915 12.3325 10.8149 12.3121 11.0742C12.2547 11.8058 11.5489 12.1182 10.9459 11.7012C10.9046 11.6764 10.8667 11.6467 10.8329 11.6127C10.3422 11.046 10.5741 9.75663 11.2365 9.40927C11.671 9.18082 12.1184 8.97635 12.5562 8.75407C13.0695 8.49484 13.2229 8.18635 13.0977 7.69673C12.9874 7.26609 12.7059 7.08106 12.1433 7.07588C11.6996 7.07231 11.2566 7.07588 10.8122 7.07588C10.2112 7.0775 10.024 7.21587 9.88143 7.79135C9.79932 8.12252 9.68864 8.42095 9.32015 8.5389C8.69777 8.73754 8.17065 8.3649 8.16211 7.71618C8.14437 6.54349 9.10502 5.47741 10.3031 5.36529C10.645 5.33256 10.9925 5.35881 11.3374 5.35881Z" fill="white"/>
<path d="M12.5442 13.669C12.5386 14.2847 12.0919 14.7325 11.4732 14.7409C10.9204 14.7487 10.387 14.2163 10.3867 13.6564C10.3867 13.0705 10.8794 12.5773 11.4663 12.5776C12.1074 12.5776 12.5507 13.0267 12.5442 13.669Z" fill="white"/>
</g>
<defs>
<clipPath id="clip0_36_358">
<rect width="35.4667" height="28" fill="white" transform="translate(0 0.546387)"/>
</clipPath>
</defs>
</svg>
