<svg width="15" height="15" viewBox="0 0 15 15" fill="none" xmlns="http://www.w3.org/2000/svg">
<path d="M11.0781 5.37119C10.0079 6.45437 8.49486 6.35863 7.49723 5.36256C6.99418 5.83728 6.41912 6.15235 5.70142 6.1512C4.99083 6.15005 4.4202 5.8367 3.93737 5.38789C3.62318 5.58341 3.3369 5.81137 3.01328 5.95413C1.62041 6.56816 -0.0452642 5.65672 0.000940249 3.94608C0.0122988 3.52259 0.160923 3.13268 0.385977 2.77559C0.882675 1.99079 1.38842 1.21155 1.88474 0.426365C2.06782 0.136621 2.31694 -0.000382962 2.6627 8.03941e-07C5.88649 0.0034547 9.11028 0.0034547 12.3341 8.03941e-07C12.6704 8.03941e-07 12.9182 0.126064 13.0987 0.412737C13.6039 1.21404 14.1249 2.00537 14.6262 2.80898C15.1652 3.67245 15.1221 4.65816 14.4914 5.42051C14.0504 5.95318 13.4464 6.18919 12.7603 6.13316C12.0289 6.07425 11.775 5.93533 11.0781 5.37119ZM7.50358 0.872685C5.93494 0.872685 4.36553 0.87115 2.79727 0.877098C2.72142 0.877098 2.61323 0.920845 2.57472 0.979753C2.07507 1.74076 1.58184 2.50593 1.09502 3.27525C0.899233 3.58419 0.814719 3.92017 0.894614 4.28955C1.01301 4.83641 1.54013 5.40132 2.2898 5.26566C2.69408 5.19255 3.02502 5.01141 3.31149 4.73088C3.52518 4.52172 3.78701 4.43538 4.06886 4.51367C4.23596 4.5601 4.40326 4.66353 4.5309 4.78231C4.94828 5.17279 5.4263 5.3451 5.9925 5.2457C6.27493 5.196 6.5175 5.06572 6.74179 4.88208C6.91775 4.73798 7.112 4.59042 7.32338 4.52077C7.65067 4.41312 7.91865 4.5885 8.17201 4.79362C8.3497 4.93773 8.5453 5.0851 8.75803 5.15629C9.42049 5.37772 10.0071 5.22114 10.5119 4.73414C10.8557 4.40238 11.3114 4.39508 11.6622 4.72531C12.0218 5.06379 12.4244 5.24513 12.9278 5.26144C13.2454 5.27161 13.4924 5.16837 13.7065 4.97361C14.2001 4.52326 14.2619 3.84591 13.8765 3.2411C13.4037 2.49909 12.9237 1.76168 12.453 1.01851C12.3822 0.906454 12.3048 0.868268 12.1729 0.868844C10.6166 0.874408 9.06009 0.872685 7.50358 0.872685Z" fill="#868686"/>
<path d="M2.19058 9.67279H12.7949V9.47323C12.7949 8.84405 12.7935 8.21505 12.7949 7.58606C12.7949 7.28883 12.8952 7.12957 13.1077 7.06913C13.3734 6.99353 13.606 7.13571 13.6533 7.4055C13.6613 7.45987 13.6646 7.51482 13.6631 7.56975C13.6631 9.13341 13.6666 10.6974 13.6622 12.2603C13.6601 13 13.3245 13.5573 12.6582 13.8754C12.3974 13.9958 12.1136 14.059 11.8261 14.0606C8.94015 14.0734 6.0541 14.0755 3.16799 14.0671C2.10529 14.0654 1.32887 13.2911 1.32271 12.222C1.31404 10.6767 1.31924 9.13149 1.32136 7.58625C1.32136 7.18176 1.56316 6.97357 1.90296 7.07373C2.0922 7.12957 2.18769 7.27578 2.18885 7.53272C2.19154 8.17399 2.18981 8.81545 2.18981 9.45673L2.19058 9.67279ZM2.19058 10.5566C2.19058 11.1182 2.18942 11.6605 2.19058 12.203C2.1925 12.8627 2.5273 13.1983 3.18532 13.1985C6.05898 13.1985 8.93283 13.1985 11.8069 13.1985C12.4668 13.1985 12.7905 12.8784 12.7939 12.2216C12.7966 11.7208 12.7939 11.2199 12.7939 10.7191C12.7939 10.6667 12.7856 10.6144 12.7806 10.5566H2.19058Z" fill="#868686"/>
</svg>
