<svg width="41" height="33" viewBox="0 0 41 33" fill="none" xmlns="http://www.w3.org/2000/svg">
<path d="M10.4728 17.2556C10.7235 19.5124 10.8489 20.6407 11.6083 21.3204C12.3676 22 13.5029 22 15.7735 22H15.9411H20.9607H22.7693C24.3335 22 25.1155 22 25.7502 21.6179C26.3849 21.2357 26.7509 20.5445 27.4827 19.1621L30.7737 12.946C31.4813 11.6093 30.5123 10 28.9999 10H15.9411H15.6254C12.8444 10 11.454 10 10.659 10.8882C9.86398 11.7764 10.0175 13.1584 10.3246 15.9223L10.4728 17.2556Z" stroke="black" stroke-width="2" stroke-linejoin="round"/>
<circle cx="30.5407" cy="8.54073" r="6.00953" transform="rotate(0.275298 30.5407 8.54073)" fill="#EA5C3C" stroke="white"/>
<path d="M28.625 6.00635V11H27.8013V6.98389L26.5811 7.39746V6.71729L28.5259 6.00635H28.625ZM33.6904 10.3438V11H30.3545V10.436L31.9746 8.66895C32.1523 8.46842 32.2925 8.29525 32.395 8.14941C32.4976 8.00358 32.5693 7.87256 32.6104 7.75635C32.6536 7.63786 32.6753 7.52279 32.6753 7.41113C32.6753 7.25391 32.6457 7.11605 32.5864 6.99756C32.5295 6.87679 32.4451 6.78223 32.3335 6.71387C32.2218 6.64323 32.0863 6.60791 31.9268 6.60791C31.7422 6.60791 31.5872 6.64779 31.4619 6.72754C31.3366 6.80729 31.242 6.91781 31.1782 7.05908C31.1144 7.19808 31.0825 7.35758 31.0825 7.5376H30.2588C30.2588 7.24821 30.3249 6.98389 30.457 6.74463C30.5892 6.50309 30.7806 6.31169 31.0312 6.17041C31.2819 6.02686 31.5838 5.95508 31.937 5.95508C32.2697 5.95508 32.5522 6.0109 32.7847 6.12256C33.0171 6.23421 33.1937 6.39258 33.3145 6.59766C33.4375 6.80273 33.499 7.04541 33.499 7.32568C33.499 7.48063 33.474 7.63444 33.4238 7.78711C33.3737 7.93978 33.3019 8.09245 33.2085 8.24512C33.1174 8.39551 33.0091 8.54704 32.8838 8.69971C32.7585 8.8501 32.6206 9.00277 32.4702 9.15771L31.3936 10.3438H33.6904Z" fill="white"/>
<path d="M7 6H7.66667C8.55227 6 9.29624 6.66589 9.39404 7.54607L10.4074 16.6667" stroke="black" stroke-width="2" stroke-linecap="round" stroke-linejoin="round"/>
<path d="M15 28C15 29.1045 14.1046 30 13 30C11.8954 30 11 29.1045 11 28C11 26.8955 11.8954 26 13 26C14.1046 26 15 26.8955 15 28Z" stroke="black" stroke-width="2"/>
<path d="M27 28C27 29.1045 26.1045 30 25 30C23.8955 30 23 29.1045 23 28C23 26.8955 23.8955 26 25 26C26.1045 26 27 26.8955 27 28Z" stroke="black" stroke-width="2"/>
</svg>
