<svg width="30" height="21" viewBox="0 0 30 21" fill="none" xmlns="http://www.w3.org/2000/svg">
<g clip-path="url(#clip0_535_99)">
<path d="M28.466 18.0974H4.94327C4.09782 18.0974 3.40918 17.3944 3.40918 16.5313V1.56613C3.40918 0.703016 4.09782 0 4.94327 0H28.466C29.3115 0 30.0001 0.703016 30.0001 1.56613V16.5313C30.0001 17.3944 29.3115 18.0974 28.466 18.0974Z" fill="#9AE8D9"/>
<path d="M16.7044 16.246C19.9503 16.246 22.5817 13.0237 22.5817 9.04878C22.5817 5.07387 19.9503 1.85156 16.7044 1.85156C13.4585 1.85156 10.8271 5.07387 10.8271 9.04878C10.8271 13.0237 13.4585 16.246 16.7044 16.246Z" fill="white"/>
<path d="M25.0568 21H1.53409C0.688636 21 0 20.297 0 19.4339V4.46871C0 3.6056 0.688636 2.90259 1.53409 2.90259H25.0568C25.9023 2.90259 26.5909 3.6056 26.5909 4.46871V19.4339C26.5909 20.297 25.9023 21 25.0568 21Z" fill="#10C19F"/>
<path d="M26.2841 3.42463C26.2295 3.35502 26.1682 3.29238 26.1 3.23669C25.8614 3.02788 25.5614 2.90259 25.2273 2.90259H22.2955H4.29545H1.36364C0.613636 2.90259 0 3.52904 0 4.2947V19.6079C0 20.3736 0.613636 21 1.36364 21H25.2273C25.9773 21 26.5909 20.3736 26.5909 19.6079V4.2947C26.5909 3.96059 26.475 3.66129 26.2841 3.42463ZM24.2045 15.4316C22.5068 15.4316 21.1364 16.8307 21.1364 18.5638H5.45455C5.45455 16.8307 4.08409 15.4316 2.38636 15.4316V8.47103C4.08409 8.47103 5.45455 7.07196 5.45455 5.33878H21.1364C21.1364 7.07196 22.5068 8.47103 24.2045 8.47103V15.4316Z" fill="#009097"/>
<path d="M13.2953 16.1276C15.1781 16.1276 16.7044 14.2578 16.7044 11.9512C16.7044 9.64471 15.1781 7.7749 13.2953 7.7749C11.4125 7.7749 9.88623 9.64471 9.88623 11.9512C9.88623 14.2578 11.4125 16.1276 13.2953 16.1276Z" fill="white"/>
<path d="M6.13613 13.3294C6.88172 13.3294 7.48613 12.7123 7.48613 11.9512C7.48613 11.19 6.88172 10.573 6.13613 10.573C5.39055 10.573 4.78613 11.19 4.78613 11.9512C4.78613 12.7123 5.39055 13.3294 6.13613 13.3294Z" fill="#9AE8D9"/>
<path d="M20.4545 13.3294C21.2001 13.3294 21.8045 12.7123 21.8045 11.9512C21.8045 11.19 21.2001 10.573 20.4545 10.573C19.7089 10.573 19.1045 11.19 19.1045 11.9512C19.1045 12.7123 19.7089 13.3294 20.4545 13.3294Z" fill="#9AE8D9"/>
</g>
<defs>
<clipPath id="clip0_535_99">
<rect width="30" height="21" fill="white"/>
</clipPath>
</defs>
</svg>
