<svg width="36" height="38" viewBox="0 0 36 38" fill="none" xmlns="http://www.w3.org/2000/svg">
<path d="M29.2001 3.79316C30.3219 2.24073 28.3132 0.214166 28.3132 0.214166C29.291 -0.122321 31.8075 3.27313 29.8898 5.26911L29.2001 3.79316Z" fill="#F4BE98"/>
<path d="M29.9959 3.73947C30.716 1.23112 28.3132 0.214014 28.3132 0.214014C29.291 -0.122472 31.8605 3.21945 29.8898 5.26896L29.9959 3.73947Z" fill="#C6936A"/>
<path d="M21.8628 9.04688C21.5218 9.54396 21.0291 10.3469 20.3545 10.5917C20.3545 10.5917 20.8699 10.6375 21.1883 10.5687L21.8628 9.04688Z" fill="#7E5D47"/>
<path d="M21.4459 10.0332C21.0366 10.4768 20.4303 11.1956 19.7253 11.3409C19.7253 11.3409 20.2332 11.4633 20.5515 11.4403L21.4459 10.0332Z" fill="#7E5D47"/>
<path d="M20.779 11.0273C20.3015 11.3944 19.589 11.9986 18.8689 12.0215C18.8689 12.0215 19.3464 12.228 19.6723 12.2586L20.779 11.0273Z" fill="#7E5D47"/>
<path d="M24.4475 4.29764C23.826 3.74703 23.8184 3.60937 24.0306 3.52525C24.2429 3.44113 24.6219 3.90762 24.6219 3.90762C24.6219 3.90762 24.3414 3.27289 24.637 3.2423C24.9326 3.21171 25.0766 3.8235 25.0766 3.8235C25.0766 3.8235 25.1145 3.15053 25.4102 3.227C25.7058 3.30348 25.6906 3.87703 25.6906 3.87703C25.6906 3.87703 25.7588 3.2423 26.1075 3.39525C26.4562 3.5482 26.0241 4.50412 26.0241 4.50412L24.4475 4.29764Z" fill="#785841"/>
<path d="M28.26 4.50418C27.7673 3.83121 27.9795 3.64767 28.2069 3.60944C28.4343 3.5712 28.7072 4.11417 28.7072 4.11417C28.7072 4.11417 28.7981 3.51767 29.0861 3.54826C29.3817 3.57885 29.4045 4.18299 29.4045 4.18299C29.4045 4.18299 29.5712 3.61708 29.8441 3.75474C30.117 3.89239 30.0109 4.42006 30.0109 4.42006C30.0109 4.42006 30.3444 4.09122 30.6551 4.32065C30.9659 4.55007 30.2989 5.07009 30.2989 5.07009L28.26 4.50418Z" fill="#785841"/>
<path d="M29.8367 5.11603C30.0413 4.71836 32.77 3.98421 33.5128 4.55777C34.2557 5.13132 35.1576 5.70488 35.0364 6.07196C34.9151 6.43903 32.9898 7.01259 32.4744 6.87494C31.9666 6.73728 30.1095 5.29192 29.8367 5.11603Z" fill="#836048"/>
<path d="M33.1187 5.94948C31.7468 5.94948 30.5643 5.52887 30.0565 4.93237C29.9428 4.99355 29.8594 5.06238 29.8291 5.11591C30.102 5.28415 31.959 6.72952 32.4744 6.86717C32.9822 7.00482 34.9075 6.42362 35.0363 6.06419C35.0742 5.95713 35.0136 5.82712 34.8999 5.68947C34.3845 5.85771 33.7781 5.94948 33.1187 5.94948Z" fill="#785841"/>
<path d="M30.7842 5.35315C30.913 5.14667 32.6488 4.7643 33.1187 5.06255C33.5962 5.3608 34.1647 5.6667 34.0889 5.85788C34.0131 6.04907 32.7852 6.34732 32.4593 6.27849C32.1409 6.20202 30.9585 5.44492 30.7842 5.35315Z" fill="#D57E43"/>
<path d="M5.99098 16.2736C4.88434 14.4535 2.01164 14.1705 0.412331 14.6064C-0.315318 14.8052 -0.307738 12.2357 4.74033 8.32788C4.74033 8.32788 4.92982 8.46553 4.82371 8.52671C3.51242 9.32205 -1.6266 14.5452 1.5796 14.1017C4.78581 13.6581 6.66557 15.8376 6.66557 15.8376L5.99098 16.2736Z" fill="#785841"/>
<path d="M25.1599 37.541C24.7051 35.155 24.1063 33.2661 23.3711 31.8666C23.3711 31.8666 23.8865 28.1423 23.5682 27.4617C23.2498 26.7811 27.4717 21.902 28.1614 26.2228C27.358 27.2705 26.0391 32.2031 26.0391 32.2031L26.547 37.5333H25.1599V37.541Z" fill="#674732"/>
<path d="M7.49927 37.541C7.45379 35.805 6.87773 30.9183 6.52148 29.5418C9.15164 21.902 8.74233 20.0055 8.86361 17.1377C8.86361 17.1377 18.505 18.7437 12.6156 26.674C12.0774 27.4005 9.21228 31.1554 9.21228 31.1554C9.21228 31.1554 8.91667 35.3691 8.91667 37.541H7.49927Z" fill="#674732"/>
<path d="M30.6023 13.4976L22.5527 6.4314C22.5527 6.4314 21.1884 17.4207 6.41563 15.1189C6.41563 15.1189 4.09626 16.5719 3.89161 17.0995C3.69453 17.6272 4.08868 19.2408 4.08868 19.2408C4.51314 19.7914 5.04372 20.4262 5.64251 21.0991L4.12658 28.1348C13.2146 25.0605 16.0115 31.2396 23.3865 29.909C31.4892 28.4483 30.9283 17.8643 30.6023 13.4976Z" fill="#70513B"/>
<path d="M29.5261 13.3217L22.5528 6.4314C22.5528 6.4314 21.1884 17.4207 6.41564 15.1189C6.41564 15.1189 4.09626 16.5719 3.89161 17.0995C3.69453 17.6272 4.08868 19.2408 4.08868 19.2408C4.51314 19.7914 5.04372 20.4262 5.64251 21.0991L4.21753 26.98C13.3056 23.9057 15.5113 29.5342 22.8863 28.2112C30.989 26.7506 29.8444 17.6884 29.5261 13.3217Z" fill="#785841"/>
<path d="M30.4731 14.8894L22.6585 6.53076C22.613 6.5537 22.5751 6.58429 22.5296 6.60724C22.2795 7.99907 20.0889 17.2524 6.41521 15.1188C6.41521 15.1188 4.09583 16.5718 3.89118 17.0995C3.87602 17.1377 3.86844 17.1836 3.86086 17.2295C3.86086 17.2448 3.85328 17.2601 3.85328 17.2754C3.8457 17.3136 3.8457 17.3442 3.8457 17.3901C3.8457 17.413 3.8457 17.4283 3.8457 17.4513C3.8457 17.4895 3.8457 17.5354 3.8457 17.5813C3.8457 17.5966 3.8457 17.6195 3.8457 17.6348C3.8457 17.696 3.85328 17.7648 3.85328 17.8336C3.90634 18.4837 4.09583 19.2408 4.09583 19.2408C4.52029 19.7914 5.05087 20.4261 5.64967 21.0991L4.22469 26.98C8.16612 25.6417 26.1451 30.3601 30.4731 14.8894Z" fill="#7E5D47"/>
<path d="M22.2191 8.06787C21.4991 12.664 26.0999 18.3536 30.6553 19.8296C30.6553 19.8296 31.0798 14.9811 30.2309 12.3428L22.2191 8.06787Z" fill="#6B4C38"/>
<path d="M22.0752 8.32802C22.0373 9.05452 27.1839 15.4248 31.2087 14.6677C33.3689 14.2624 34.6119 13.5359 33.6114 12.0447C32.2092 9.94162 32.7777 6.72206 31.292 5.41435C28.2829 2.79129 22.3556 3.22719 22.0752 8.32802Z" fill="#785841"/>
<path d="M31.0569 13.9412C33.2171 13.5359 33.869 13.6659 32.8685 12.167C31.4662 10.064 32.156 6.745 30.6704 5.44494C28.9801 3.96899 26.2514 3.32661 24.9174 5.02433C23.7501 6.52322 27.0397 14.6907 31.0569 13.9412Z" fill="#836048"/>
<path d="M24.6521 6.72949H31.5723C31.5723 6.72949 31.4511 9.57434 29.1847 9.60493C26.547 9.63552 24.6521 6.72949 24.6521 6.72949Z" fill="#785841"/>
<path d="M1.97379 37.5411C1.97379 35.8052 1.53417 30.8726 1.21582 29.5037C4.0582 21.8639 3.70195 19.9674 3.89902 17.0996C3.89902 17.0996 13.4949 18.7056 7.38567 26.6359C6.82477 27.3624 3.86112 31.1173 3.86112 31.1173C3.86112 31.1173 3.51246 35.4152 3.4215 37.5411H1.97379Z" fill="#785841"/>
<path d="M19.9148 37.541C19.5889 35.415 19.0962 33.6103 18.4368 32.3714C18.4368 32.3714 19.081 28.8153 18.8006 28.2112C18.5201 27.607 23.1892 23.3168 23.644 27.1635C23.0831 28.0506 21.12 32.899 21.12 32.899L21.2791 37.5487H19.9148V37.541Z" fill="#785841"/>
<path d="M23.4773 6.05662C23.2499 5.58248 20.4302 4.83303 19.7178 5.56718C19.0053 6.30133 18.126 7.04313 18.27 7.47904C18.4141 7.91494 20.4075 8.51909 20.9153 8.32025C21.4232 8.13672 23.2044 6.27839 23.4773 6.05662Z" fill="#836048"/>
<path d="M23.2347 5.8501C22.5677 6.56895 21.3929 7.14251 19.9982 7.33369C19.3919 7.41782 18.8007 7.41782 18.2625 7.35664C18.2549 7.40252 18.2625 7.44841 18.2777 7.49429C18.4217 7.93019 20.4151 8.53434 20.923 8.3355C21.4308 8.14432 23.2196 6.286 23.4849 6.06423C23.4394 5.9954 23.356 5.91892 23.2347 5.8501Z" fill="#785841"/>
<path d="M22.8634 6.29365C22.7118 6.00305 20.8093 5.52126 20.3242 5.96481C19.8391 6.41601 19.2403 6.86721 19.3389 7.14252C19.4374 7.41018 20.779 7.80019 21.1277 7.67784C21.4688 7.56312 22.6815 6.43131 22.8634 6.29365Z" fill="#D57E43"/>
<path d="M28.8967 15.4782C28.3206 15.3176 28.5783 14.507 28.7754 14.3081C28.9725 14.1093 33.1792 14.3464 32.8229 14.9123C32.4591 15.4782 32.1408 16.4112 28.8967 15.4782Z" fill="#D57E43"/>
<path d="M27.4339 14.2317C26.5395 13.1993 30.2308 10.0639 31.4663 10.0945C32.6184 10.1251 35.1652 13.6735 33.9903 14.5682C33.581 14.8818 33.3991 15.2565 31.9438 14.6753C30.2081 13.9794 28.2904 15.2259 27.4339 14.2317Z" fill="#D57E43"/>
<path d="M27.8658 14.01C27.0851 13.1076 30.2989 10.3698 31.3828 10.4004C32.3909 10.431 34.6042 13.5205 33.5885 14.3006C33.2323 14.5759 33.0731 14.8971 31.7997 14.3924C30.2837 13.7959 28.6162 14.8741 27.8658 14.01Z" fill="#E9965D"/>
<path d="M29.3213 11.7311C29.7079 11.1651 30.8751 10.4998 31.3527 10.5457C31.8226 10.5916 32.5503 11.3869 32.5503 11.6163C32.5503 11.8458 28.2753 13.2911 29.3213 11.7311Z" fill="#FFA466"/>
<path d="M29.3212 12.2662C29.2833 11.708 29.7608 11.2491 30.2004 11.4021C30.6401 11.5474 31.0721 12.1286 30.9887 12.4498C30.9053 12.771 30.6476 13.2298 30.2611 13.1151C29.8669 12.9927 29.3439 12.618 29.3212 12.2662Z" fill="#785137"/>
<path d="M32.9367 12.037C33.3536 12.0523 33.6568 12.4499 33.5128 12.7711C33.3687 13.0923 32.8988 13.3753 32.6714 13.2835C32.444 13.1994 32.1181 12.97 32.2394 12.6794C32.3531 12.3964 32.6714 12.0293 32.9367 12.037Z" fill="#785137"/>
<path d="M26.1301 6.76782C26.4712 7.68551 26.9715 8.36613 27.4111 6.77547L26.1301 6.76782Z" fill="#614639"/>
<path d="M29.8367 6.72949C30.1247 7.67013 30.625 8.29722 31.1556 6.73714L29.8367 6.72949Z" fill="#614639"/>
<path d="M20.6198 10.9128C18.596 13.643 14.5333 16.3807 6.42309 15.1189C6.42309 15.1189 4.10371 16.5719 3.89906 17.0996C3.83842 17.2678 3.83084 17.5355 3.85358 17.8338C3.74746 20.0515 3.79294 22.0245 2.01172 27.2707C12.5096 25.29 19.3085 18.8203 20.6198 10.9128Z" fill="#836048"/>
<path d="M9.40948 22.1697C9.34126 23.3703 8.76521 24.8386 7.38571 26.6281C7.31749 26.7199 7.21137 26.8499 7.08252 27.0181L9.0684 26.7964C9.57624 24.7851 9.61413 23.2938 9.40948 22.1697Z" fill="#70513B"/>
<path d="M1.20801 29.5035C3.04987 29.2741 8.73461 27.3622 9.36373 22.3608C9.71239 19.6001 3.58802 21.2672 3.58802 21.2672C2.97407 24.1732 2.24642 26.2839 1.20801 29.5035Z" fill="#836048"/>
<path d="M18.4445 32.3636C19.6648 31.8512 25.4481 28.9299 23.0681 24.2115C22.1206 22.3379 20.0514 22.3073 18.634 24.0738C17.7926 25.1292 17.8684 27.4157 18.4445 32.3636Z" fill="#7E5D47"/>
<path d="M28.9498 15.0958C28.7224 14.5911 30.299 14.377 30.7613 14.4152C31.2161 14.4458 31.9438 14.8435 31.6406 15.1647C31.3374 15.4935 29.1014 15.44 28.9498 15.0958Z" fill="#E9965D"/>
<path d="M19.6497 36.0881C19.7482 36.5546 19.8316 37.0364 19.9149 37.5411H21.2717L21.2187 36.0881H19.6497Z" fill="#674A36"/>
<path d="M24.834 36.0498C24.9477 36.5239 25.0538 37.021 25.1523 37.541H26.5394L26.3954 36.0498H24.834Z" fill="#573D2C"/>
<path d="M7.40845 36.0881C7.46151 36.6693 7.49183 37.1817 7.49941 37.5411H8.91682C8.91682 37.1205 8.9244 36.6158 8.94714 36.0881H7.40845Z" fill="#573D2C"/>
<path d="M1.91309 36.0498C1.95098 36.6463 1.96614 37.1663 1.96614 37.541H3.40629C3.42145 37.1128 3.45177 36.6004 3.48967 36.0498H1.91309Z" fill="#674A36"/>
<path d="M4.17165 8.92436C3.09533 7.93784 5.39956 7.63194 6.14995 7.1731C5.64211 7.8996 5.3844 10.0332 4.17165 8.92436Z" fill="#836048"/>
<mask id="mask0_757_500" style="mask-type:alpha" maskUnits="userSpaceOnUse" x="0" y="-3" width="36" height="41">
<path d="M35.0436 5.98789C35.0436 5.98025 35.0436 5.9726 35.0436 5.96495C35.0436 5.94201 35.0361 5.91907 35.0285 5.89612C35.0285 5.88848 35.0209 5.88083 35.0209 5.87318C35.0133 5.85024 34.9982 5.8273 34.983 5.79671C34.983 5.78906 34.9754 5.78906 34.9754 5.78141C34.7556 5.43728 34.0886 4.99373 33.5126 4.55018C33.3685 4.43547 33.1412 4.37429 32.8759 4.35135C33.7551 3.71661 34.3463 2.94422 34.5055 2.25596C34.8314 0.879423 33.6263 -1.46833 31.0946 -2.47014C31.034 -2.49308 30.9809 -2.50073 30.9355 -2.50073C30.8445 -2.50073 30.7915 -2.43955 30.799 -2.35543V-2.34778C30.799 -2.31719 30.8066 -2.2866 30.8218 -2.25602C30.8218 -2.24837 30.8294 -2.24837 30.8294 -2.24072C30.8445 -2.21013 30.8673 -2.17189 30.89 -2.13366C30.89 -2.13366 30.89 -2.12601 30.8976 -2.12601C30.9279 -2.08777 30.9658 -2.04189 31.0037 -2.00365C31.0113 -1.996 31.0188 -1.98836 31.0264 -1.98071C31.0719 -1.93482 31.1174 -1.89659 31.178 -1.8507C31.1856 -1.84306 31.2008 -1.83541 31.2083 -1.82776C31.269 -1.78188 31.3372 -1.72834 31.413 -1.68246C32.1331 -1.21597 34.2629 2.47773 29.7834 3.70132C29.7303 3.69367 29.6848 3.70897 29.6469 3.73956C29.5484 3.7625 29.4499 3.78544 29.3437 3.80838C29.2983 3.66308 29.2225 3.52543 29.086 3.51013C28.889 3.48719 28.7904 3.73955 28.7374 3.91545C28.6995 3.92309 28.6616 3.93074 28.6237 3.93074C28.5251 3.77014 28.3508 3.54072 28.2068 3.57131C28.0704 3.59425 27.9339 3.67073 27.9642 3.87721C27.3806 3.78544 26.797 3.77779 26.2285 3.83897C26.2664 3.62484 26.2588 3.42601 26.1148 3.36483C25.7661 3.21188 25.6979 3.84662 25.6979 3.84662C25.6979 3.84662 25.7131 3.26542 25.4175 3.19659C25.1219 3.12011 25.084 3.79309 25.084 3.79309C25.084 3.79309 24.9399 3.17365 24.6443 3.21188C24.3487 3.24247 24.6292 3.87721 24.6292 3.87721C24.6292 3.87721 24.2426 3.41072 24.038 3.49484C23.8864 3.55602 23.8485 3.64779 24.0759 3.90015C18.4821 2.95187 20.809 -1.19303 21.567 -1.68246C21.6125 -1.71305 21.658 -1.74364 21.7034 -1.77423C21.7186 -1.78188 21.7337 -1.79717 21.7413 -1.80482C21.7641 -1.82776 21.7944 -1.84306 21.8171 -1.866C21.8323 -1.87364 21.8399 -1.88894 21.855 -1.89659C21.8778 -1.91188 21.8929 -1.93482 21.9157 -1.95012C21.9308 -1.96541 21.9384 -1.97306 21.9536 -1.98071C21.9687 -1.996 21.9839 -2.0113 21.999 -2.02659C22.0066 -2.03424 22.0218 -2.04954 22.0294 -2.05718C22.0445 -2.07248 22.0521 -2.08777 22.0673 -2.10307C22.0748 -2.11071 22.0824 -2.12601 22.09 -2.13366C22.0976 -2.14895 22.1052 -2.16425 22.1203 -2.17189C22.1279 -2.17954 22.1355 -2.19484 22.1355 -2.20248C22.1431 -2.21778 22.1506 -2.22543 22.1506 -2.24072C22.1582 -2.24837 22.1582 -2.26366 22.1658 -2.27131C22.1658 -2.27896 22.1734 -2.2866 22.1734 -2.3019C22.1885 -2.37073 22.1885 -2.41661 22.1658 -2.45485C22.1582 -2.4625 22.1506 -2.47014 22.1431 -2.47779C22.1355 -2.48544 22.1203 -2.49308 22.1127 -2.49308C22.0976 -2.50073 22.0824 -2.50073 22.0673 -2.50073C22.0218 -2.50073 21.9687 -2.49308 21.9005 -2.47014C19.4068 -1.46068 18.2168 0.887071 18.5351 2.25596C18.8383 3.55602 20.6423 5.16197 23.0678 5.54434C23.0299 5.59023 22.992 5.64376 22.9541 5.68964C22.0445 5.30727 20.2785 5.00138 19.7327 5.55964C19.0505 6.25555 18.2319 6.95911 18.2774 7.40266C18.2774 7.42561 18.285 7.44855 18.2926 7.47149C18.4366 7.90739 20.43 8.51154 20.9379 8.31271C21.188 8.22094 21.7337 7.7315 22.2643 7.23442C22.1961 7.52502 22.1431 7.83092 22.1203 8.15976C22.1052 8.19799 22.09 8.23623 22.0748 8.28212C22.0673 8.29741 22.0673 8.30506 22.0597 8.32035C22.0369 8.37389 22.0218 8.41977 21.999 8.4733C21.9915 8.4886 21.9839 8.50389 21.9763 8.52683C21.9536 8.57272 21.9384 8.62625 21.9157 8.67214C21.9081 8.68743 21.9005 8.71037 21.8929 8.72567C21.8702 8.77155 21.8474 8.82508 21.8247 8.87097C21.8171 8.89391 21.8095 8.9092 21.7944 8.93215C21.7716 8.97803 21.7489 9.03156 21.7262 9.07745C21.7186 9.10039 21.7034 9.11568 21.6959 9.13863C21.6731 9.19216 21.6504 9.23804 21.6201 9.29157C21.6125 9.31452 21.5973 9.32981 21.5897 9.35275C21.5594 9.40629 21.5367 9.45982 21.5064 9.51335C21.4988 9.52865 21.4836 9.55159 21.476 9.56688C21.4457 9.62041 21.4154 9.67395 21.3851 9.72748C21.1046 10.0869 20.7636 10.431 20.3618 10.584C20.3618 10.584 20.5968 10.6069 20.8469 10.5993C20.8015 10.6605 20.7636 10.7216 20.7181 10.7828C20.4225 11.0352 20.0965 11.257 19.7403 11.3258C19.7403 11.3258 19.9753 11.3793 20.2254 11.4099C20.2254 11.4176 20.2178 11.4176 20.2178 11.4252C20.1951 11.4481 20.1723 11.4711 20.1572 11.5017C19.7706 11.7693 19.331 11.9988 18.8838 12.0141C18.8838 12.0141 19.187 12.1441 19.475 12.2129C19.422 12.2664 19.3613 12.3199 19.3083 12.3735C19.2779 12.3964 19.2552 12.427 19.2249 12.45C19.1642 12.5035 19.1036 12.557 19.0505 12.6029C19.0202 12.6258 18.9899 12.6564 18.9596 12.6794C18.899 12.7329 18.8383 12.7788 18.7701 12.8323C18.7398 12.8553 18.7095 12.8859 18.6716 12.9088C18.6033 12.9623 18.5351 13.0082 18.4669 13.0617C18.4366 13.0847 18.4063 13.1076 18.376 13.1306C18.3002 13.1841 18.2244 13.2376 18.1486 13.2912C18.1182 13.3065 18.0955 13.3294 18.0652 13.3447C17.9667 13.4059 17.8681 13.4747 17.7696 13.5359C17.762 13.5435 17.7544 13.5435 17.7468 13.5512C17.6407 13.62 17.5346 13.6812 17.4209 13.7424C17.3982 13.7577 17.3679 13.773 17.3451 13.7806C17.2542 13.8265 17.1632 13.88 17.0723 13.9259C17.0495 13.9412 17.0268 13.9488 16.9965 13.9641C16.9737 13.9718 16.951 13.9871 16.9282 13.9947C16.8524 14.033 16.7766 14.0712 16.7008 14.1094C16.6857 14.1171 16.6629 14.1247 16.6478 14.1324C16.6099 14.1477 16.572 14.1706 16.5341 14.1859C16.4507 14.2242 16.3749 14.2547 16.2915 14.293C16.2385 14.3159 16.1854 14.3389 16.1324 14.3618C16.049 14.3924 15.9732 14.4306 15.8898 14.4612C15.8368 14.4842 15.7761 14.5071 15.7231 14.5224C15.6397 14.553 15.5563 14.5836 15.4729 14.6142C15.4123 14.6371 15.3517 14.6524 15.291 14.6754C15.2077 14.7059 15.1243 14.7289 15.0333 14.7595C14.9803 14.7748 14.9272 14.7901 14.8741 14.8054C14.859 14.813 14.8514 14.813 14.8362 14.813C14.7529 14.8359 14.6619 14.8589 14.5785 14.8818C14.5331 14.8971 14.4876 14.9048 14.4421 14.9201C14.4194 14.9277 14.4042 14.9277 14.3815 14.9354C14.2905 14.9583 14.192 14.9812 14.0934 15.0042C14.0404 15.0195 13.9949 15.0271 13.9418 15.0424C13.9343 15.0424 13.9191 15.0501 13.9115 15.0501C13.7978 15.073 13.6841 15.096 13.5629 15.1189C13.5174 15.1265 13.4643 15.1418 13.4189 15.1495C13.2597 15.1801 13.0929 15.203 12.9262 15.2336C12.8807 15.2413 12.8352 15.2489 12.7973 15.2489C12.6685 15.2642 12.5472 15.2795 12.4183 15.2948C12.3729 15.3024 12.3198 15.3024 12.2667 15.3101C12.244 15.3101 12.2137 15.3177 12.1909 15.3177C12.0924 15.3254 11.9863 15.3407 11.8802 15.3483C11.8347 15.3483 11.7892 15.356 11.7437 15.356C11.6983 15.356 11.6528 15.3636 11.6073 15.3636C11.5088 15.3713 11.4178 15.3789 11.3193 15.3789C11.289 15.3789 11.2511 15.3789 11.2207 15.3866C11.1525 15.3866 11.0919 15.3942 11.0237 15.3942C10.9176 15.4019 10.8114 15.4019 10.6977 15.4019C10.6902 15.4019 10.6826 15.4019 10.675 15.4019C10.5916 15.4019 10.5083 15.4019 10.4249 15.4019C10.3112 15.4019 10.1975 15.4019 10.0762 15.4019C9.98526 15.4019 9.8943 15.4019 9.80335 15.3942C9.68207 15.3942 9.56838 15.3866 9.4471 15.3866C9.37131 15.3866 9.28793 15.3789 9.21213 15.3789C9.18182 15.3789 9.1515 15.3789 9.12876 15.3713C9.01506 15.3636 8.90895 15.356 8.79525 15.3483C8.73462 15.3407 8.67398 15.3407 8.60576 15.333C8.56028 15.333 8.5148 15.3254 8.46933 15.3254C8.34805 15.3177 8.23436 15.3024 8.11308 15.2948C8.0676 15.2871 8.02213 15.2871 7.97665 15.2795C7.91601 15.2719 7.86295 15.2719 7.80232 15.2642C7.66588 15.2489 7.52187 15.2336 7.37785 15.2183C7.34754 15.2183 7.3248 15.2107 7.29448 15.2107C7.23384 15.203 7.18078 15.1954 7.12015 15.1877C6.89276 15.1571 6.65779 15.1265 6.42282 15.0883C6.42282 15.0883 6.29396 15.1724 6.09689 15.2948C5.31618 14.683 3.75477 13.773 1.57941 14.0712C-1.25539 14.4612 2.44349 10.4157 4.23987 8.93215C5.39956 9.93396 5.66485 7.85386 6.15753 7.13501C5.42988 7.57856 3.23177 7.8768 4.10344 8.80214C-0.300351 12.4194 -0.277613 14.7518 0.419717 14.5683C1.83712 14.1859 4.23229 14.3618 5.54357 15.6619C4.8614 16.1284 4.02006 16.7478 3.90636 17.0613C3.89121 17.0996 3.88363 17.1455 3.87605 17.1914C3.87605 17.2066 3.86847 17.2219 3.86847 17.2372C3.86089 17.2755 3.86089 17.3061 3.86089 17.3519C3.86089 17.3672 3.86089 17.3902 3.86089 17.4055C3.86089 17.4437 3.86089 17.4896 3.86089 17.5355C3.86089 17.5508 3.86089 17.5737 3.86089 17.589C3.86089 17.6502 3.86847 17.719 3.86847 17.7802C3.86847 17.7878 3.86847 17.7955 3.86847 17.8031C3.86847 17.849 3.86089 17.8949 3.86089 17.9484C3.86089 17.979 3.86089 18.002 3.85331 18.0326C3.83815 18.3002 3.83057 18.5679 3.81541 18.8432C3.81541 18.8738 3.81541 18.9044 3.80783 18.9426C3.80783 18.9885 3.80025 19.0267 3.80025 19.0726C3.80025 19.1109 3.79267 19.1567 3.79267 19.195C3.79267 19.2332 3.78509 19.2714 3.78509 19.302C3.78509 19.3479 3.77751 19.3938 3.77751 19.4397C3.77751 19.4703 3.76993 19.5009 3.76993 19.5315C3.75477 19.7073 3.73961 19.8909 3.72445 20.0744C3.72445 20.0974 3.71687 20.1203 3.71687 20.1433C3.70929 20.2044 3.70171 20.258 3.70171 20.3191C3.70171 20.3421 3.69413 20.3727 3.69413 20.3956C3.68655 20.4568 3.67897 20.518 3.6714 20.5868C3.6714 20.6021 3.66382 20.6174 3.66382 20.6327C3.6335 20.8545 3.60318 21.0915 3.56528 21.3362C3.56528 21.3439 3.56528 21.3592 3.5577 21.3668C3.5577 21.3821 3.55012 21.4051 3.55012 21.4204C2.94375 24.2193 2.2161 26.3071 1.21558 29.4425C1.46571 30.5284 1.79922 33.8245 1.92049 36.0193C1.92807 36.1493 1.93565 36.2793 1.94323 36.4093C1.94323 36.4169 1.94323 36.4246 1.94323 36.4322C1.95081 36.5546 1.95081 36.677 1.95839 36.7917C1.95839 36.807 1.95839 36.8223 1.95839 36.8452C1.96597 36.9523 1.96597 37.0593 1.96597 37.1587C1.96597 37.174 1.96597 37.1893 1.96597 37.2046C1.96597 37.304 1.96597 37.3958 1.96597 37.4876H3.40611C3.41369 37.3882 3.41369 37.2887 3.42127 37.1817C3.42127 37.1664 3.42127 37.1434 3.42127 37.1282C3.42885 37.0211 3.42885 36.9064 3.43643 36.7917C3.45158 36.5393 3.46674 36.2716 3.4819 36.004C3.61834 33.8168 3.83815 31.0714 3.83815 31.0714C3.83815 31.0714 5.65727 28.7619 6.71084 27.4159C6.8776 27.3853 7.05193 27.3548 7.2111 27.3395C6.99887 28.0048 6.7639 28.7236 6.49861 29.496C6.77906 30.582 7.19594 33.8551 7.38543 36.0422C7.40817 36.3252 7.43091 36.5852 7.44607 36.8223C7.44607 36.8375 7.44607 36.8528 7.44607 36.8681C7.45365 36.9752 7.46123 37.0823 7.46123 37.174C7.46123 37.1893 7.46123 37.2046 7.46123 37.2199C7.46881 37.3193 7.46881 37.4111 7.46881 37.4952H8.88621C8.88621 37.4035 8.88621 37.2964 8.88621 37.197C8.88621 37.174 8.88621 37.1511 8.88621 37.1358C8.88621 37.0287 8.88621 36.9217 8.89379 36.8146V36.807C8.89379 36.6922 8.90137 36.5775 8.90137 36.4552C8.90137 36.4475 8.90137 36.4322 8.90137 36.4246C8.90137 36.3022 8.90895 36.1722 8.91653 36.0499C8.99232 33.8551 9.18182 31.1173 9.18182 31.1173C9.18182 31.1173 10.8493 28.9225 11.8802 27.5612C14.1162 28.0736 16.0111 29.0448 18.1258 29.6107C18.194 30.3984 18.2926 31.2855 18.4063 32.2873C18.3987 32.3179 18.3987 32.3332 18.3987 32.3332C18.9065 33.2892 19.3083 34.5663 19.619 36.0728C19.71 36.5317 19.8009 37.0058 19.8767 37.5029H21.2335L21.1804 36.0499L21.0743 32.8609C21.0743 32.8609 21.6428 31.4538 22.2567 30.0161C22.613 29.9855 22.9768 29.9396 23.3558 29.8708C23.424 29.8555 23.4847 29.8402 23.5529 29.8249C23.4619 30.8649 23.3255 31.8285 23.3255 31.8285C23.9015 32.9221 24.3942 34.3216 24.7959 36.0193C24.849 36.2487 24.9021 36.4858 24.9551 36.7305C25.0082 36.9828 25.0612 37.2352 25.1143 37.5029H26.5014L25.9935 32.1726C25.9935 32.1726 26.6378 29.7637 27.3048 27.9589C29.4726 25.9553 30.3139 22.8045 30.5944 19.7915C30.602 19.7915 30.6095 19.7991 30.6171 19.7991C30.6171 19.7991 30.7839 17.8949 30.7005 15.8225C32.2164 15.9525 32.4969 15.3407 32.7622 14.9048C33.4595 15.0348 33.6414 14.7671 33.9522 14.5301C34.5813 14.0483 34.1341 12.7864 33.3989 11.7311C32.512 10.171 32.5348 8.10623 32.0194 6.63792C32.1937 6.73734 32.3377 6.81381 32.4287 6.83676C32.9365 6.97441 34.8617 6.39321 34.9906 6.03378C35.0436 6.04143 35.0512 6.01848 35.0436 5.98789Z" fill="url(#paint0_linear_757_500)"/>
</mask>
<g mask="url(#mask0_757_500)">
</g>
<defs>
<linearGradient id="paint0_linear_757_500" x1="17.5568" y1="9.70618" x2="17.5568" y2="38.0981" gradientUnits="userSpaceOnUse">
<stop offset="0.0215054" stop-color="#999999"/>
<stop offset="1" stop-color="white"/>
</linearGradient>
</defs>
</svg>
