<svg width="49" height="46" viewBox="0 0 49 46" fill="none" xmlns="http://www.w3.org/2000/svg">
<g clip-path="url(#clip0_757_441)" filter="url(#filter0_d_757_441)">
<path d="M39.8159 18.415C40.7482 21.0152 41.4333 22.8429 41.7865 22.69C42.1396 22.5294 40.607 18.7974 40.607 18.7974C40.607 18.7974 42.9236 22.7358 43.192 22.5829C43.4674 22.4299 41.1084 19.0651 41.1084 19.0651C41.1084 19.0651 43.6722 21.8028 43.8841 21.3517C44.096 20.9005 41.3627 18.6521 41.3627 18.6521L39.8159 18.415Z" fill="#888C2F"/>
<path d="M28.4446 3.52552C30.5917 3.46434 31.7641 4.25967 33.0425 5.40678C30.6058 5.87327 29.4193 5.28442 28.4446 3.52552Z" fill="#D3BBA1"/>
<path d="M42.2525 2.63078C41.4544 4.36674 39.9218 4.69558 38.375 5.24619C39.2155 2.5543 40.7764 2.16429 42.2525 2.63078Z" fill="#D3BBA1"/>
<path d="M29.0803 4.12183C30.6624 4.1983 31.4888 4.69538 32.3928 5.3913C30.5777 5.52895 29.7301 5.13893 29.0803 4.12183Z" fill="#A38567"/>
<path d="M41.5957 3.31137C40.5504 4.35906 39.7381 4.62672 38.7705 4.8179C39.837 3.48726 40.5927 3.13548 41.5957 3.31137Z" fill="#A38567"/>
<path d="M33.3392 3.96905C31.6865 2.99783 32.633 0.137695 32.633 0.137695C31.6159 0.260054 30.7966 4.65731 33.3392 5.68971V3.96905Z" fill="#B78862"/>
<path d="M32.9436 4.29789C31.2485 2.23309 32.6329 0.137695 32.6329 0.137695C31.6158 0.260054 30.7259 4.62672 33.3392 5.68971L32.9436 4.29789Z" fill="#EFBA95"/>
<path d="M32.1737 4.64957C31.8982 4.51957 31.7852 4.35897 31.9689 4.09896C32.1525 3.83895 32.7387 3.44893 33.1201 3.60188C33.5015 3.75482 33.445 4.16779 33.445 4.16779L32.1737 4.64957Z" fill="#B78862"/>
<path d="M37.3863 3.80832C38.4952 2.16412 36.5105 0.0228462 36.5105 0.0228462C37.471 -0.336582 39.9501 3.2577 38.0643 5.36074L37.3863 3.80832Z" fill="#EFBA95"/>
<path d="M38.1703 3.75493C38.8836 1.10128 36.5105 0.0229939 36.5105 0.0229939C37.471 -0.336434 39.9996 3.19667 38.0643 5.36089L38.1703 3.75493Z" fill="#B78862"/>
<path d="M38.7071 3.89252C38.8978 3.6478 38.9472 3.44897 38.6717 3.29602C38.4033 3.15072 37.7182 3.0666 37.4357 3.38014C37.1532 3.69369 37.3651 4.04547 37.3651 4.04547L38.7071 3.89252Z" fill="#B78862"/>
<path d="M32.7107 38.0001L32.1951 27.5231L35.0979 24.6707L33.7348 38.0001H32.7107Z" fill="#B28E74"/>
<path d="M14.6084 33.3428L16.8191 22.8047L20.9579 28.4485L16.1128 34.2758L16.254 37.7707H15.2229L14.6084 33.3428Z" fill="#B28E74"/>
<path d="M18.1963 34.2681C17.7301 34.941 16.4447 34.8569 16.9532 35.5375C17.6454 36.4705 18.4082 34.3904 18.4082 34.3904L18.1963 34.2681Z" fill="#FF9E88"/>
<path d="M20.3931 34.4209C20.7956 35.048 22.0246 35.1245 21.5019 35.6521C20.7745 36.3786 20.1882 34.505 20.1882 34.505L20.3931 34.4209Z" fill="#FF9E88"/>
<path d="M19.3407 34.375C19.3619 35.2239 19.8563 36.2257 19.3195 36.241C18.4366 36.2639 19.3124 35.2391 19.1005 34.2909C19.0793 34.1838 19.3407 34.375 19.3407 34.375Z" fill="#FF9E88"/>
<path d="M15.7949 30.5515C15.3641 33.7558 20.3152 37.7172 23.218 31.951L15.7949 30.5515Z" fill="#E2765D"/>
<path d="M16.3672 31.9814C16.8404 34.4745 19.9693 36.7075 22.1517 33.098C20.5837 33.4956 17.7515 32.9068 16.3672 31.9814Z" fill="#FF9E88"/>
<path d="M10.8439 12.9624C9.24067 14.9201 7.77159 32.1421 22.1234 32.318C36.4822 32.4939 38.6999 19.1338 38.6999 14.423C38.6999 9.70458 32.8095 6.91327 30.4717 9.70458C28.1339 12.4959 24.1716 13.926 19.6655 11.6853C16.7344 10.2323 17.031 11.3335 15.9575 11.4558C15.4207 11.517 14.9334 10.9893 14.2906 11.1652C13.6479 11.3411 13.4855 11.9835 12.8922 12.1518C11.9175 12.4347 11.8963 11.6853 10.8439 12.9624Z" fill="#E5CBB1"/>
<path d="M15.4278 11.6699C11.8257 12.7558 6.90998 17.5431 13.3372 24.5329C19.7644 31.5302 29.7725 29.3125 33.9255 21.2368C36.0232 17.1608 32.1456 11.5934 27.0039 12.5188C18.9098 13.9794 19.0299 10.584 15.4278 11.6699Z" fill="#EFD5BD"/>
<path d="M16.2895 12.5341C13.083 13.5054 8.46383 17.0996 14.1848 23.3246C19.9057 29.5496 29.0945 27.1178 32.7955 19.9215C34.6601 16.289 31.8914 11.8688 28.2116 13.0236C22.0104 14.9813 19.5031 11.5629 16.2895 12.5341Z" fill="#F9E4CD"/>
<path d="M22.1305 30.192C12.6945 30.0773 10.1166 22.5293 9.91175 16.8091C9.48091 22.537 11.3102 32.3716 22.0882 32.5016C36.447 32.6775 38.7071 19.1415 38.7071 14.4231C38.7071 14.2166 38.693 14.0101 38.6718 13.8113C38.1633 19.4474 35.0273 30.345 22.1305 30.192Z" fill="#D1B399"/>
<path d="M9.87622 33.3427L12.2564 23.6687C13.9091 25.9476 15.2511 27.1024 17.1369 28.456L11.5996 34.2757L11.762 37.7705H10.5754L9.87622 33.3427Z" fill="#E5CBB1"/>
<path d="M28.8824 38.0001L28.3245 27.5231L31.7641 24.8389L30.0054 38.0001H28.8824Z" fill="#E5CBB1"/>
<path d="M7.28417 3.76254C9.17702 2.89073 13.1322 1.84304 13.8032 11.9759L14.8273 11.54C13.5772 7.73919 13.3371 0.825931 7.17822 3.35723L7.28417 3.76254Z" fill="#E5CBB1"/>
<path d="M32.1455 13.3982C33.5086 15.2489 37.026 20.1126 37.3438 22.0245C37.3438 22.0245 38.9188 17.7113 38.827 14.7441L32.1455 13.3982Z" fill="#B28E74"/>
<path d="M29.1863 11.5628C31.5523 9.11563 31.6159 4.37424 32.3575 3.99187C33.3816 3.4642 33.6995 4.52719 35.4793 4.39718C37.1461 4.28247 37.5205 3.34184 38.3821 3.52538C39.7806 3.81598 38.9048 8.97033 44.1878 15.1724C44.8305 15.9295 41.5463 19.9826 35.2462 15.853C30.62 12.8323 29.1863 11.5628 29.1863 11.5628Z" fill="#E5CBB1"/>
<path d="M32.4986 6.52323C31.3756 7.89212 31.5592 13.4365 40.1406 17.0231C40.1406 17.0231 43.7851 17.0537 44.5478 15.3254C41.8357 12.4959 40.2395 7.38738 39.5544 6.13321C38.6998 4.58078 34.5398 4.04546 32.4986 6.52323Z" fill="#F9E4CD"/>
<path d="M36.9836 16.9236C36.9553 15.6694 40.7481 18.2619 40.2607 19.5467C39.7805 20.8238 37.033 19.4855 36.9836 16.9236Z" fill="#E5CBB1"/>
<path d="M37.1603 17.069C37.1391 16.0825 39.9996 18.1243 39.6323 19.1261C39.2721 20.1356 37.2027 19.0803 37.1603 17.069Z" fill="#F9E4CD"/>
<path d="M38.8553 17.5738C37.5628 15.8837 34.4057 15.0655 34.6741 14.6449C34.9354 14.2395 38.0925 16.159 38.0925 16.159C38.0925 16.159 34.9425 13.9795 35.451 13.6507C35.9242 13.3524 37.8736 15.6773 37.8736 15.6773C37.8736 15.6773 36.9201 14.0254 37.2096 13.8266C37.3862 13.7119 38.0925 15.7767 38.9259 16.442L38.8553 17.5738Z" fill="#9BA538"/>
<path d="M38.8625 14.247C39.7595 13.5435 40.8542 15.0653 41.9843 15.4094C42.7612 15.6465 44.1384 14.5376 44.8377 15.2335C45.5369 15.9294 43.976 20.1279 41.4475 19.539C38.919 18.9578 37.0897 15.6388 38.8625 14.247Z" fill="#AA7248"/>
<path d="M8.16014 3.3954C8.68986 4.31309 8.35084 5.74315 4.04248 5.40667C4.04248 5.40667 6.51449 0.542912 8.16014 3.3954Z" fill="#A06C45"/>
<path d="M7.0441 3.94599C7.2348 5.23841 6.63445 5.66666 4 5.42959C4 5.42959 6.65564 1.27704 7.0441 3.94599Z" fill="#CC885A"/>
<path d="M33.0213 7.93031C33.8194 8.24386 34.6034 8.32798 35.0272 7.58618L35.4368 8.10621C34.2997 8.90918 33.4663 8.62623 32.9507 8.15974C32.9931 8.06032 33.0001 7.99149 33.0213 7.93031Z" fill="#A38567"/>
<path d="M39.6321 7.93032C38.8411 8.14445 38.0924 8.1368 37.7746 7.34912L37.3296 7.81561C38.3113 8.7486 39.1306 8.55741 39.6745 8.15975C39.6392 8.06798 39.6462 8.0068 39.6321 7.93032Z" fill="#A38567"/>
<path d="M28.8188 36.7458L28.8824 38H30.0054L30.1749 36.7458H28.8188Z" fill="#89715B"/>
<path d="M32.647 36.7458L32.7105 38H33.7346L33.8618 36.7458H32.647Z" fill="#89715B"/>
<path d="M15.0605 36.5852L15.223 37.7706H16.2542L16.2118 36.5852H15.0605Z" fill="#89715B"/>
<path d="M10.3918 36.5852L10.5755 37.7706H11.762L11.7055 36.5852H10.3918Z" fill="#89715B"/>
<path d="M38.7776 15.2795C39.166 14.5224 39.5686 14.2165 41.299 15.6313C43.0294 17.0461 43.99 18.3308 41.9276 19.1415C40.8117 19.585 37.8312 17.0996 38.7776 15.2795Z" fill="#C98353"/>
<path d="M44.4561 16.5719C44.2583 15.486 43.5309 15.3789 41.4826 16.159C39.4273 16.939 40.2607 18.4991 41.3202 19.0879C42.6197 19.8145 44.6256 17.482 44.4561 16.5719Z" fill="#C98353"/>
<path d="M40.1902 17.612C39.3003 17.375 39.2297 15.5167 39.5616 15.3714C40.5434 14.9508 41.4686 17.9485 40.1902 17.612Z" fill="#7F4E2D"/>
<path d="M42.0054 17.7497C42.0619 16.9008 43.4957 16.572 43.6511 16.8549C44.1172 17.6809 41.9277 18.958 42.0054 17.7497Z" fill="#7F4E2D"/>
<path opacity="0.8" d="M14.9899 18.4151C15.117 17.7115 15.0746 15.5855 13.3795 15.2108C13.3795 15.2108 15.9928 14.6449 16.0775 13.276C16.134 12.4042 15.795 11.6624 14.785 11.1424C14.6297 11.1118 14.4672 11.1041 14.2906 11.1577C13.6479 11.3336 13.4855 11.9759 12.8922 12.1442C11.9246 12.4271 11.8963 11.6777 10.851 12.9625C10.1447 13.819 9.46669 17.6197 10.1377 21.6193C13.4007 21.864 14.8627 19.1186 14.9899 18.4151Z" fill="#9E7E67"/>
<path opacity="0.8" d="M12.0305 3.89258C12.419 4.90968 13.316 6.98213 13.6409 7.11979C13.2595 5.86561 12.7721 4.69556 12.0305 3.89258Z" fill="#9E7E67"/>
<path opacity="0.8" d="M18.6836 27.0488C15.7596 25.1981 17.2781 22.2004 18.4505 21.6039C20.0256 20.8085 22.7024 22.3915 22.7024 22.3915C22.7024 22.3915 22.9425 18.629 26.0926 19.4626C29.9206 20.4797 26.8695 27.7218 25.7818 28.2036C24.5458 28.7542 21.2262 28.6548 18.6836 27.0488Z" fill="#9E7E67"/>
<path opacity="0.8" d="M27.7171 15.1648C29.6806 14.6065 29.8501 12.144 29.8501 12.144C29.8501 12.144 31.3969 12.3658 31.5523 10.5534C31.637 9.5745 31.1991 9.10801 30.7824 8.88623C30.6624 9.19213 30.5282 9.50567 30.3869 9.80392C29.1015 11.2875 27.3569 12.3735 25.3087 12.687C25.118 13.5512 25.902 15.6848 27.7171 15.1648Z" fill="#9E7E67"/>
<path opacity="0.8" d="M39.6181 11.8229C40.3809 13.3371 41.7511 13.7347 43.2555 13.7042C42.182 12.1364 41.3415 10.3087 40.7058 8.80981C39.8724 9.39867 38.9189 10.4311 39.6181 11.8229Z" fill="#9E7E67"/>
</g>
<defs>
<filter id="filter0_d_757_441" x="0" y="0" width="49" height="46" filterUnits="userSpaceOnUse" color-interpolation-filters="sRGB">
<feFlood flood-opacity="0" result="BackgroundImageFix"/>
<feColorMatrix in="SourceAlpha" type="matrix" values="0 0 0 0 0 0 0 0 0 0 0 0 0 0 0 0 0 0 127 0" result="hardAlpha"/>
<feOffset dy="4"/>
<feGaussianBlur stdDeviation="2"/>
<feComposite in2="hardAlpha" operator="out"/>
<feColorMatrix type="matrix" values="0 0 0 0 0 0 0 0 0 0 0 0 0 0 0 0 0 0 0.25 0"/>
<feBlend mode="normal" in2="BackgroundImageFix" result="effect1_dropShadow_757_441"/>
<feBlend mode="normal" in="SourceGraphic" in2="effect1_dropShadow_757_441" result="shape"/>
</filter>
<clipPath id="clip0_757_441">
<rect width="41" height="38" fill="white" transform="translate(4)"/>
</clipPath>
</defs>
</svg>
