<svg width="26" height="35" viewBox="0 0 26 35" fill="none" xmlns="http://www.w3.org/2000/svg">
<g clip-path="url(#clip0_771_148)">
<path d="M10.5464 0.127937C9.68583 -0.228459 8.6971 0.182768 8.34005 1.04178C7.98301 1.90078 8.39498 2.88773 9.25555 3.24412L10.107 3.59138L0.292873 27.3786C-0.521915 29.3433 0.421042 31.6005 2.38935 32.4138L5.1816 33.5561L17.7513 3.08877L10.5464 0.127937Z" fill="#DBDBDB"/>
<path d="M24.9563 6.05873L17.7514 3.0979L5.18164 33.5561L7.98305 34.7075C9.95136 35.5209 12.2126 34.5796 13.0274 32.6149L22.8415 8.82766L23.6746 9.16578C24.5352 9.52218 25.5239 9.11095 25.8809 8.25194C26.2288 7.39294 25.8168 6.40599 24.9563 6.05873Z" fill="#CCCCCC"/>
<path d="M11.9773 4.26079L6.58618 17.3235L15.6264 21.041L21.0175 7.9783L11.9773 4.26079Z" fill="white"/>
<path d="M6.59147 17.3263L2.61823 26.949C1.80344 28.9138 3.18583 30.1018 5.15414 30.9151L7.05837 31.701C9.02668 32.5143 10.8485 32.6422 11.6541 30.6775L18.7401 13.5156L6.59147 17.3263Z" fill="#10C19F"/>
<path d="M6.06967 27.8902C6.70136 28.009 7.14995 27.8263 7.37882 27.2414C7.60769 26.6565 7.83657 26.5834 8.91685 26.5377C9.64924 26.5103 9.98798 26.09 10.1253 25.825C10.345 25.9163 10.638 25.9072 11.0133 25.4686C11.5168 24.8837 11.1323 24.3811 11.114 24.3628C10.7387 24.0156 9.86896 24.4816 9.6584 24.8563C9.51192 25.1122 9.576 25.3223 9.69502 25.4777C9.56685 25.6422 9.56685 25.8798 9.34713 26.0443C9.03586 26.2727 7.53445 25.9346 7.29643 26.8302C7.06755 27.7257 6.34431 27.68 5.77671 27.7349C5.2091 27.7897 5.09009 28.4659 5.09009 28.4659C5.09009 28.4659 5.42882 27.7806 6.06967 27.8902Z" fill="white"/>
<path d="M8.05645 24.1984C8.40434 23.9791 8.53251 23.705 8.38603 23.3394C8.23955 22.9648 8.31279 22.8368 8.80716 22.3616C9.13674 22.0326 9.11843 21.6945 9.0635 21.5117C9.20998 21.4661 9.33815 21.329 9.32899 20.9634C9.31068 20.4791 8.91702 20.406 8.89871 20.406C8.57828 20.406 8.36772 20.9909 8.43181 21.2559C8.46843 21.4386 8.58744 21.5118 8.71561 21.53C8.72476 21.6671 8.82547 21.7768 8.78885 21.9413C8.74307 22.1789 7.89166 22.6632 8.17547 23.1841C8.45012 23.705 8.09307 23.9883 7.85504 24.2533C7.61701 24.5183 7.84589 24.8838 7.84589 24.8838C7.84589 24.8838 7.70856 24.4178 8.05645 24.1984Z" fill="white"/>
<path opacity="0.44" d="M6.25292 24.7925C6.41771 24.692 6.4818 24.564 6.40856 24.3904C6.34447 24.2168 6.37194 24.1528 6.60081 23.9335C6.75645 23.7781 6.74729 23.6228 6.71983 23.5314C6.78391 23.504 6.848 23.4491 6.848 23.2755C6.83884 23.0471 6.65574 23.0105 6.64659 23.0105C6.50011 23.0105 6.3994 23.2847 6.42687 23.4126C6.44518 23.4948 6.50011 23.5314 6.56419 23.5405C6.57335 23.6045 6.61912 23.6593 6.60081 23.7324C6.57335 23.8421 6.17968 24.0706 6.30785 24.3173C6.43602 24.564 6.27123 24.692 6.16138 24.8199C6.05152 24.9478 6.16138 25.1123 6.16138 25.1123C6.16138 25.1123 6.08814 24.893 6.25292 24.7925Z" fill="white"/>
<path opacity="0.44" d="M11.874 26.8943C12.0388 26.7938 12.1029 26.6658 12.0297 26.4922C11.9656 26.3186 11.993 26.2546 12.2219 26.0353C12.3775 25.8799 12.3684 25.7246 12.3409 25.6332C12.405 25.6058 12.4691 25.5509 12.4691 25.3773C12.4599 25.1489 12.2768 25.1123 12.2677 25.1123C12.1212 25.1123 12.0205 25.3865 12.048 25.5144C12.0663 25.5966 12.1212 25.6332 12.1853 25.6423C12.1944 25.7063 12.2402 25.7611 12.2219 25.8342C12.1944 25.9439 11.8008 26.1724 11.929 26.4191C12.0571 26.6658 11.8923 26.7938 11.7825 26.9217C11.6726 27.0496 11.7825 27.2141 11.7825 27.2141C11.7825 27.2141 11.7092 26.9948 11.874 26.8943Z" fill="white"/>
<path opacity="0.13" d="M10.7112 20.927C10.876 20.8265 10.9401 20.6985 10.8668 20.5249C10.8027 20.3513 10.8302 20.2873 11.0591 20.068C11.2147 19.9126 11.2055 19.7573 11.1781 19.6659C11.2422 19.6385 11.3062 19.5837 11.3062 19.41C11.2971 19.1816 11.114 19.145 11.1048 19.145C10.9584 19.145 10.8577 19.4192 10.8851 19.5471C10.9034 19.6294 10.9584 19.6659 11.0224 19.675C11.0316 19.739 11.0774 19.7938 11.0591 19.867C11.0316 19.9766 10.6379 20.2051 10.7661 20.4518C10.8943 20.6985 10.7295 20.8265 10.6196 20.9544C10.5098 21.0824 10.6196 21.2468 10.6196 21.2468C10.6196 21.2468 10.5464 21.0275 10.7112 20.927Z" fill="white"/>
<path opacity="0.13" d="M8.1936 30.2571C8.35839 30.1566 8.42247 30.0286 8.34923 29.855C8.28515 29.6814 8.31261 29.6174 8.54149 29.3981C8.69712 29.2427 8.68797 29.0874 8.6605 28.996C8.72458 28.9686 8.78867 28.9137 8.78867 28.7401C8.77951 28.5117 8.59642 28.4751 8.58726 28.4751C8.44078 28.4751 8.34008 28.7492 8.36754 28.8772C8.38585 28.9594 8.44078 28.996 8.50487 29.0051C8.51402 29.0691 8.5598 29.1239 8.54149 29.197C8.51402 29.3067 8.12036 29.5351 8.24853 29.7819C8.3767 30.0286 8.21191 30.1566 8.10205 30.2845C7.99219 30.4124 8.10205 30.5769 8.10205 30.5769C8.10205 30.5769 8.02881 30.3576 8.1936 30.2571Z" fill="white"/>
<path opacity="0.44" d="M15.1606 18.4595C15.3254 18.359 15.3895 18.231 15.3163 18.0574C15.243 17.8838 15.2797 17.8198 15.5085 17.6005C15.6642 17.4451 15.655 17.2898 15.6275 17.1984C15.6916 17.171 15.7557 17.1161 15.7557 16.9425C15.7466 16.714 15.5635 16.6775 15.5543 16.6775C15.4078 16.6775 15.3071 16.9516 15.3346 17.0796C15.3529 17.1618 15.4078 17.1984 15.4719 17.2075C15.4811 17.2715 15.5268 17.3263 15.5085 17.3994C15.4811 17.5091 15.0874 17.7375 15.2156 17.9843C15.3437 18.231 15.1789 18.359 15.0691 18.4869C14.9592 18.6148 15.0691 18.7793 15.0691 18.7793C15.0691 18.7793 14.9959 18.56 15.1606 18.4595Z" fill="white"/>
<path opacity="0.44" d="M9.47534 18.8799C9.64013 18.7794 9.70421 18.6514 9.63097 18.4778C9.56689 18.3042 9.59435 18.2402 9.82322 18.0209C9.97886 17.8655 9.9697 17.7102 9.94224 17.6188C10.0063 17.5914 10.0704 17.5365 10.0704 17.3629C10.0613 17.1345 9.87815 17.0979 9.869 17.0979C9.72252 17.0979 9.62182 17.3721 9.64928 17.5C9.66759 17.5822 9.72252 17.6188 9.7866 17.6279C9.79576 17.6919 9.84153 17.7467 9.82322 17.8198C9.79576 17.9295 9.4021 18.158 9.53027 18.4047C9.65844 18.6514 9.49365 18.7794 9.38379 18.9073C9.27393 19.0352 9.38379 19.1997 9.38379 19.1997C9.38379 19.1997 9.31055 18.9804 9.47534 18.8799Z" fill="white"/>
<path d="M12.0846 21.9686C11.9015 21.594 11.9473 21.2924 12.3135 21.0731C12.6797 20.8446 12.6888 20.6984 12.5332 20.0222C12.4325 19.5653 12.6613 19.3002 12.817 19.1723C12.7163 19.0535 12.6705 18.8707 12.9085 18.5783C13.2198 18.1854 13.6318 18.3499 13.6409 18.359C13.9339 18.5326 13.7599 19.1449 13.5494 19.3277C13.4029 19.4556 13.2473 19.4465 13.1191 19.3916C13.0275 19.4921 12.8628 19.5287 12.7895 19.6932C12.6888 19.9217 13.1649 20.7898 12.5881 21.0639C12.0113 21.3381 12.167 21.7676 12.2219 22.124C12.2768 22.4804 11.8374 22.654 11.8374 22.654C11.8374 22.654 12.2677 22.3433 12.0846 21.9686Z" fill="white"/>
</g>
<defs>
<clipPath id="clip0_771_148">
<rect width="26" height="35" fill="white"/>
</clipPath>
</defs>
</svg>
