<svg width="581" height="562" viewBox="0 0 581 562" fill="none" xmlns="http://www.w3.org/2000/svg">
<g clip-path="url(#clip0_926_349)">
<path d="M350.144 135.206C350.417 135.031 350.691 134.857 350.964 134.683C354.339 132.531 356.229 128.978 359.557 126.856C361.336 125.723 362.493 125.205 363.616 126.967C364.593 128.498 361.533 143.615 365.349 149.6C367.701 153.29 371.667 152.953 374.658 151.046C377.303 149.36 380.933 143.868 384.343 141.694C387.754 139.519 390.325 139.268 392.307 142.376C395.876 147.974 392.845 152.073 395.415 156.103C399.778 162.946 416.438 154.375 424.588 166.496L424.8 166.828C427.269 170.701 428.671 176.32 431.181 180.258C436.897 189.223 450.606 182.662 459.415 177.046C468.224 171.43 476.836 163.553 485.217 158.21C492.202 153.756 502.619 149.113 508.181 157.838C511.85 163.593 507.462 167.493 501.571 171.249C494.832 175.545 486.884 177.784 480.045 182.145C452.559 199.667 430.475 219.285 472.381 285.017C478.261 294.24 498.124 284.457 509.512 286.588C514.381 287.505 510.046 294.225 517.403 295.826C528.846 298.324 529.665 304.638 520.325 304.755C514.804 304.384 506.06 308.13 534.858 324.533C547.828 331.921 547.516 341.109 543.24 343.836C529.077 352.865 498.066 300.5 474.894 315.273C463.951 322.25 482.469 336.971 469.305 348.451C422.552 389.205 488.895 401.208 452.372 424.493C442.004 431.103 422.76 423.551 414.271 430.896C412.203 432.681 418.424 442.802 418.175 446.294C418.175 446.294 415.832 458.593 401.272 450.118C386.711 441.643 389.802 458.039 381.15 463.257C376.234 466.21 379.254 477.866 364.504 482.211C351.734 485.98 357.6 493.512 351.106 495.577C305.996 509.938 317.799 455.404 284.715 476.496C270.671 485.45 263.71 502.755 249.939 511.534C243.419 515.691 234.863 512.39 231.512 507.133C223.433 494.461 246.696 464.842 237.141 449.855C234.46 445.649 226.737 440.235 221.502 443.572C220.207 444.397 218.878 445.491 217.528 446.352C213.078 449.189 208.574 448.078 207.251 446.003C196.032 428.406 185.381 435.196 177.21 440.405L174.821 441.928C170.133 444.917 148.398 430.82 133.114 444.909C121.845 455.258 110.078 458.869 105.566 454.65C101.055 450.43 105.504 445.519 108.13 443.844C112.635 440.972 118.862 439.856 123.712 437.244C140.848 428.032 141.19 422.21 133.594 412.408C118.146 392.422 111.247 367.297 126.172 355.823C137.363 347.223 134.624 338.903 127.366 324.28C124.901 319.367 124.17 309.208 116.892 305.015C109.614 300.821 114.912 292.333 111.684 287.269C104.252 275.611 81.3684 285.284 75.2769 275.729C74.7905 274.937 74.6066 273.997 74.7596 273.085C74.9126 272.173 75.392 271.352 76.1079 270.776C78.3733 269.28 85.697 272.057 87.074 271.179C88.3142 270.388 88.0513 268.286 87.281 267.077C82.3537 259.349 60.1598 268.997 52.9099 257.625C50.9055 254.44 50.8545 251.464 54.9035 248.882C65.3723 242.208 90.9372 255.109 109.905 246.013L110.133 245.867C111.801 244.804 111.617 243.287 110.594 241.682C109.194 239.487 106.486 237.673 105.292 235.8C103.952 233.697 105.401 232.41 107.176 230.708C112.148 225.994 116.809 228.095 121.148 226.47C134.749 221.431 145.491 198.265 138.416 196.121C135.576 195.246 134.148 190.955 132.355 188.142C129.244 183.263 130.495 179.793 132.757 178.351C135.493 176.607 140.202 176.873 143.358 174.862C156.216 166.664 117.903 137.349 137.81 124.657C153.687 114.536 164.568 151.157 181.935 143.575C190.886 139.671 184.647 133.868 191.229 128.479C201.337 120.192 210.587 172.161 225.547 166.476C240.507 160.791 232.222 130.817 237.001 127.77C245.117 122.596 253.896 139.907 267.527 131.735C284.051 121.824 273.098 105.691 278.834 100.504C283.936 95.9537 287.445 107.674 292.379 105.255C300.965 100.274 285.063 76.1151 297.253 51.7011C305.304 35.5814 332.287 38.6149 328.442 65.1544C325.861 83.0143 319.34 114.853 330.492 133.894L330.61 134.078C332.197 136.568 336.361 135.756 339.696 134.771C339.795 134.727 339.888 134.669 339.969 134.597C340.571 134.213 340.959 133.292 341.551 132.914C341.681 132.832 341.826 132.779 341.978 132.758L350.144 135.206Z" fill="#10C19F"/>
<path opacity="0.44" d="M177.689 323.043C190.237 315.2 195.116 305.217 189.539 291.67C184.66 278.122 186.751 273.13 204.178 256.017C216.029 243.896 215.332 231.774 213.241 224.643C218.12 222.504 223 218.226 223 204.678C222.303 186.852 208.361 184 207.664 184C196.51 184 188.842 205.391 190.934 215.374C192.328 221.791 196.51 224.644 201.39 225.357C202.087 230.348 205.573 234.626 204.178 240.331C202.087 248.887 172.112 266.713 181.871 285.965C191.631 305.217 179.083 315.2 170.718 325.183C162.353 335.165 170.718 348 170.718 348C170.718 348 165.141 330.887 177.689 323.043Z" fill="white"/>
<path opacity="0.44" d="M261.668 447.966C286.77 449.176 303.201 439.995 308.431 415.741C314.636 392.16 322.364 387.233 363.212 380.255C391.455 374.834 402.14 357.283 406.073 345.334C414.959 347.073 425.902 345.834 438.935 326.971C455.108 301.478 438.344 284.028 437.369 283.354C421.762 272.571 390.454 294.941 383.777 310.862C379.554 321.144 382.663 329.159 388.805 334.87C384.979 342.493 385.74 351.819 378.302 358.414C367.145 368.305 308.053 364.145 303.189 400.385C298.324 436.625 271.164 438.393 249.855 444.205C228.547 450.016 227.905 475.974 227.905 475.974C227.905 475.974 236.565 446.755 261.668 447.966Z" fill="white"/>
<path d="M125.594 455.114C179.378 451.136 211.88 426.376 217.987 373.376C224.095 320.375 241.107 309.397 327.783 282.159C386.622 263.986 405.148 222.104 410.643 197.358C430.417 200.085 453.991 192.965 475.099 148.787C503.49 89.8159 461.583 56.9043 459.708 55.8016C421.854 35.4475 361.22 92.6247 352.119 127.968C345.687 152.163 355.365 168.028 368.332 178.197C361.438 194.491 366.501 214.001 352.179 232.284C331.792 257.811 202.769 262.688 202.54 341.4C203.053 419.913 143.399 431.884 98.5141 448.726C53.6293 465.568 58.3828 523.684 58.3828 523.684C58.3828 523.684 71.2616 460.041 125.594 455.114Z" fill="white"/>
</g>
<defs>
<clipPath id="clip0_926_349">
<rect width="580.896" height="561.355" fill="white" transform="translate(0.104004 0.182617)"/>
</clipPath>
</defs>
</svg>
