<svg width="20" height="16" viewBox="0 0 20 16" fill="none" xmlns="http://www.w3.org/2000/svg">
<path d="M2.44177 6.4557C1.79269 5.73379 0.966991 4.93468 1.07916 3.97035C1.35848 1.56902 2.46039 1 5.64817 1H14.3522C17.54 1 18.6419 1.56902 18.9212 3.97035C19.0334 4.93468 18.2077 5.73379 17.5586 6.4557C17.2426 6.8072 17.0002 7.3037 17.0002 8C17.0002 8.6963 17.2426 9.1928 17.5586 9.5443C18.2077 10.2662 19.0334 11.0653 18.9212 12.0296C18.6419 14.431 17.54 15 14.3522 15H5.64817C2.46039 15 1.35848 14.431 1.07916 12.0296C0.966991 11.0653 1.79269 10.2662 2.44177 9.5443C2.75778 9.1928 3.00017 8.6963 3.00017 8C3.00017 7.3037 2.75778 6.8072 2.44177 6.4557Z" stroke="#606060"/>
</svg>
