<svg width="41" height="29" viewBox="0 0 41 29" fill="none" xmlns="http://www.w3.org/2000/svg">
<path d="M30.069 0H10.5667V5.87722H30.069V0Z" fill="#04A3A3"/>
<path d="M32.3159 19.6221H8.32837L10.5666 1.46704H30.069L32.3159 19.6221Z" fill="#10C19F"/>
<path d="M32.3159 19.6221H8.32837V27.1638H32.3159V19.6221Z" fill="#0FA386"/>
<path d="M30.069 0H20.3179V1.46716H30.069V0Z" fill="#009097"/>
<path d="M32.316 19.6221H20.3179V1.46704H30.069L32.316 19.6221Z" fill="#0DB594"/>
<path d="M32.3073 19.6221H20.3179V27.1638H32.3073V19.6221Z" fill="#0D997E"/>
<path d="M37.8595 22.6165C37.955 22.3248 37.8075 21.9387 37.3997 21.9387C37.3477 21.9387 37.2956 21.9472 37.2523 21.9558C37.3217 21.6727 37.1655 21.3295 36.7838 21.3295C36.6623 21.3295 36.5582 21.3638 36.4801 21.4239C36.3153 21.2866 36.1245 21.1836 35.8989 21.1493C35.8902 21.1493 35.8729 21.1493 35.8555 21.1493C35.8989 20.8748 35.7514 20.5659 35.3957 20.5573C35.3176 20.4286 35.1788 20.3342 34.9793 20.3342C34.9012 20.3342 34.8405 20.3514 34.7798 20.3686C34.7364 20.1712 34.5802 19.9996 34.3113 19.9996C34.2072 19.9996 34.1204 20.0254 34.051 20.0683C34.0337 20.0683 34.0163 20.0597 33.999 20.0597C33.9209 19.931 33.7821 19.828 33.5826 19.828C33.5305 19.828 33.4785 19.8366 33.4351 19.8452C33.383 19.6564 33.2269 19.4934 32.9666 19.4934C32.7757 19.4934 32.6369 19.5792 32.5589 19.6993C32.4981 19.6736 32.4287 19.6564 32.3507 19.6564C32.2032 19.6564 32.0817 19.7079 32.0036 19.7937C31.9256 19.7251 31.8128 19.6822 31.674 19.6822C31.5005 19.6822 31.3703 19.7508 31.2836 19.8538C31.1968 19.7851 31.084 19.7336 30.9452 19.7336C30.685 19.7336 30.5201 19.8881 30.4594 20.0854C30.2252 20.1541 30.0343 20.2828 29.8608 20.4458C29.7394 20.3771 29.6005 20.3342 29.4444 20.3257C29.054 20.2999 28.6636 20.523 28.4988 20.8833C28.4727 20.8833 28.4554 20.8748 28.4294 20.8748C28.0997 20.8748 27.9435 21.1236 27.9435 21.381C27.6746 21.4754 27.4404 21.5783 27.2842 21.8615C27.2235 21.973 27.1888 22.0931 27.1714 22.2218C26.8938 22.3248 26.6422 22.4964 26.5208 22.7967C26.3733 23.1398 26.4253 23.5603 26.6856 23.8262C26.703 24.0922 26.9285 24.2724 27.1888 24.2896C30.4768 24.5298 33.7734 24.5298 37.0614 24.2724C37.2783 24.2552 37.4691 24.1265 37.5385 23.9378C37.9029 24.0751 38.302 23.6718 38.1805 23.2943C38.2933 23.0369 38.1805 22.6851 37.8595 22.6165Z" fill="#594A42"/>
<path d="M32.2466 23.1829H25.7921L23.9529 27.9533H32.2466V23.1829Z" fill="#04A3A3"/>
<path d="M32.2466 23.1829H38.7098L40.5403 27.9533H32.2466V23.1829Z" fill="#009097"/>
<path d="M32.2466 27.9531H23.9529V28.8626H32.2466V27.9531Z" fill="#098983"/>
<path d="M40.5403 27.9531H32.2466V28.8626H40.5403V27.9531Z" fill="#007A7A"/>
<path d="M27.848 22.033C27.4143 22.033 27.4143 22.7022 27.848 22.7022C28.2818 22.7022 28.2818 22.033 27.848 22.033Z" fill="#493A34"/>
<path d="M35.1442 20.7546C34.7104 20.7546 34.7104 21.4239 35.1442 21.4239C35.5779 21.4239 35.5779 20.7546 35.1442 20.7546Z" fill="#493A34"/>
<path d="M34.268 21.3638C33.8342 21.3638 33.8342 22.033 34.268 22.033C34.7017 22.033 34.7017 21.3638 34.268 21.3638Z" fill="#493A34"/>
<path d="M29.1669 20.8748C28.7331 20.8748 28.7331 21.544 29.1669 21.544C29.6007 21.544 29.6007 20.8748 29.1669 20.8748Z" fill="#493A34"/>
<path d="M29.0888 21.8442C28.655 21.8442 28.655 22.5135 29.0888 22.5135C29.5312 22.5135 29.5312 21.8442 29.0888 21.8442Z" fill="#493A34"/>
<path d="M30.3292 20.7546C29.8955 20.7546 29.8955 21.4239 30.3292 21.4239C30.763 21.4239 30.763 20.7546 30.3292 20.7546Z" fill="#493A34"/>
<path d="M30.4855 22.033C30.0517 22.033 30.0517 22.7022 30.4855 22.7022C30.9192 22.7022 30.9279 22.033 30.4855 22.033Z" fill="#493A34"/>
<path d="M32.8539 21.3638C32.4201 21.3638 32.4201 22.033 32.8539 22.033C33.2877 22.033 33.2963 21.3638 32.8539 21.3638Z" fill="#493A34"/>
<path d="M36.8878 22.2305C36.4541 22.2305 36.4541 22.8997 36.8878 22.8997C37.3216 22.8997 37.3216 22.2305 36.8878 22.2305Z" fill="#493A34"/>
<path d="M35.1442 22.2305C34.7104 22.2305 34.7104 22.8997 35.1442 22.8997C35.5779 22.8997 35.5779 22.2305 35.1442 22.2305Z" fill="#493A34"/>
<path d="M36.0724 21.647C35.6386 21.647 35.6386 22.3162 36.0724 22.3162C36.5062 22.3162 36.5062 21.647 36.0724 21.647Z" fill="#493A34"/>
<path d="M33.8341 20.4199C33.4003 20.4199 33.4003 21.0892 33.8341 21.0892C34.2766 21.0892 34.2766 20.4199 33.8341 20.4199Z" fill="#493A34"/>
<path d="M32.663 20.2056C32.2292 20.2056 32.2292 20.8748 32.663 20.8748C33.0967 20.8748 33.0967 20.2056 32.663 20.2056Z" fill="#493A34"/>
<path d="M31.2924 20.2056C30.8586 20.2056 30.8586 20.8748 31.2924 20.8748C31.7261 20.8748 31.7261 20.2056 31.2924 20.2056Z" fill="#493A34"/>
<path d="M31.8388 22.2046C31.405 22.2046 31.405 22.8738 31.8388 22.8738C32.2725 22.8738 32.2725 22.2046 31.8388 22.2046Z" fill="#493A34"/>
<path d="M33.6608 22.2046C33.227 22.2046 33.227 22.8738 33.6608 22.8738C34.0945 22.8738 34.0945 22.2046 33.6608 22.2046Z" fill="#493A34"/>
<path d="M31.6132 21.175C31.1794 21.175 31.1794 21.8443 31.6132 21.8443C32.0556 21.8443 32.0556 21.175 31.6132 21.175Z" fill="#493A34"/>
<path d="M20.3179 21.0121C23.3747 21.0121 25.8528 18.5614 25.8528 15.5382C25.8528 12.515 23.3747 10.0642 20.3179 10.0642C17.261 10.0642 14.783 12.515 14.783 15.5382C14.783 18.5614 17.261 21.0121 20.3179 21.0121Z" fill="white"/>
<path d="M18.7823 17.8289C18.7215 17.7945 18.5567 17.4942 18.5567 17.4942C18.496 17.3999 18.4699 17.2969 18.4613 17.1854L18.4352 16.7478L18.0795 16.9366C18.0795 16.9366 18.0709 16.9366 18.0709 16.9451C18.0448 16.9537 18.0188 16.9709 18.0015 16.9966L18.0101 17.0996L18.2704 17.6744L18.3745 17.8803L18.3919 17.8889C18.4439 17.9147 18.4786 17.9661 18.4873 18.0262L18.5133 18.1892H19.0512L18.869 17.8803L18.7823 17.8289Z" fill="white"/>
<path d="M21.1593 17.7601V17.4169C21.1593 17.2024 21.194 16.9879 21.2634 16.782L21.2981 16.6791V16.4903C21.246 16.4903 21.1853 16.4903 21.1246 16.4817C21.0465 16.4817 20.9684 16.4731 20.8817 16.4731C20.8556 16.4731 20.8296 16.4731 20.7949 16.4731V16.885V17.8202C20.7949 17.8202 20.8383 17.8974 20.847 17.9231C20.8817 18.0261 20.899 18.1805 20.899 18.1805H21.4022C21.4022 18.1634 21.3935 18.1376 21.3935 18.1033C21.3154 17.9403 21.1593 17.7601 21.1593 17.7601Z" fill="white"/>
<path d="M23.5017 14.1653C23.814 14.1738 24.3172 14.3197 24.3172 14.3197C24.083 14.1052 23.7186 14.0451 23.5191 14.0194C23.5191 14.0194 23.4844 14.0108 23.4497 14.0022C23.493 13.8907 23.441 13.7534 23.4236 13.702V13.6934C23.4236 13.6934 23.4236 13.6934 23.4236 13.6848C23.5538 13.5218 23.5624 13.3073 23.5624 13.3073C23.9962 13.2301 24.0396 13.0156 24.0309 12.9126C24.0309 12.8783 24.0136 12.8525 23.9789 12.844C23.9094 12.8096 23.84 12.8011 23.7706 12.8011C23.6665 12.8011 23.5798 12.8354 23.5191 12.8697C23.4844 12.8869 23.493 12.8525 23.5017 12.8268C23.5364 12.7324 23.5364 12.6037 23.5191 12.5093C23.5017 12.3807 23.3716 12.312 23.3195 12.312C23.3022 12.312 23.2935 12.3206 23.3022 12.3378C23.3108 12.3721 23.3369 12.6981 23.2501 12.6981H23.2414C23.2067 12.6895 23.1634 12.6895 23.1287 12.6895C23.0419 12.6895 22.8858 12.6895 22.8077 12.6895C22.7643 12.6895 22.7209 12.6895 22.6949 12.6981H22.6862C22.5995 12.6981 22.6255 12.3721 22.6342 12.3378C22.6428 12.3206 22.6342 12.312 22.6168 12.312C22.5648 12.312 22.4346 12.3807 22.4173 12.5093C22.3999 12.6037 22.3999 12.7324 22.4346 12.8268C22.4433 12.8611 22.452 12.8869 22.4173 12.8697C22.3566 12.8354 22.2698 12.8011 22.1657 12.8011C22.105 12.8011 22.0356 12.8096 21.9575 12.844C21.9315 12.8525 21.9054 12.8869 21.9054 12.9126C21.9054 12.9898 21.9315 13.1528 22.1744 13.2472C22.1136 13.2815 22.0529 13.3159 22.0009 13.3502C22.0009 13.3502 22.0009 13.3502 21.9922 13.3502C21.515 13.5389 20.9685 13.6333 20.3699 13.6333C20.153 13.6333 19.9274 13.6247 19.7019 13.599C19.6064 13.5904 19.4937 13.5818 19.3635 13.5647C19.3549 13.5647 19.3462 13.5561 19.3375 13.5561L19.1553 13.5475C18.791 13.5218 18.3832 13.496 18.1056 13.496C18.0188 13.496 17.9408 13.496 17.8887 13.5046C17.6111 13.5304 17.3595 13.6591 17.2034 13.8564C17.1947 13.865 17.186 13.8821 17.1773 13.8993C17.1773 13.8993 17.1687 13.9079 17.1687 13.9164C17.0298 14.1224 16.9691 14.3798 17.0125 14.6715C17.0819 15.152 17.1079 15.4265 17.1253 15.6324C17.1426 15.8298 17.0645 16.0357 16.9084 16.1815C16.8997 16.1901 16.891 16.1987 16.8824 16.2073C16.7262 16.3703 16.6221 16.4046 16.6221 16.4132C16.6048 16.4218 16.5874 16.4389 16.5874 16.4561C16.5874 16.4818 16.5961 16.499 16.6221 16.5076C16.6308 16.5076 16.7349 16.5505 16.8737 16.5505C17.0385 16.5505 17.1773 16.4818 17.2814 16.3617C17.4376 16.1558 17.4289 15.9413 17.4029 15.7697C17.3942 15.7354 17.3942 15.7011 17.3855 15.6582C17.3248 15.3321 17.186 14.5514 17.3682 14.2854C17.3855 14.2596 17.4202 14.2768 17.4202 14.3025C17.4116 14.4227 17.4202 14.5943 17.4896 14.7573C17.5851 14.9889 17.6371 15.3321 17.6458 15.7611C17.6458 15.9241 17.6198 16.0872 17.5504 16.2416L17.3942 16.5848C17.3855 16.602 17.3855 16.6277 17.3855 16.6363V17.846V17.8546L17.4202 18.1378C17.4289 18.1806 17.4636 18.2064 17.4983 18.2064H18.0622C18.0796 18.2064 18.0969 18.1978 18.1056 18.1806C18.1143 18.1635 18.1143 18.1463 18.1056 18.1292L17.9494 17.8203C17.9494 17.8117 17.9408 17.8117 17.9408 17.8031C17.9408 17.8031 17.7933 17.6401 17.828 17.091C17.8367 16.9709 17.9147 16.8593 18.0362 16.8079L18.3745 16.6363L18.9645 16.3274C19.1033 16.2673 19.2508 16.2416 19.3982 16.2502C19.7453 16.2845 20.3959 16.336 20.8904 16.336C20.9772 16.336 21.0639 16.3446 21.142 16.3446C21.2374 16.3531 21.3242 16.3531 21.3849 16.3446C21.4023 16.3446 21.4196 16.3531 21.4196 16.3703V17.7688C21.4196 17.786 21.4196 17.7946 21.4283 17.8031C21.4456 17.8289 21.4717 17.8804 21.4717 17.8975C21.5064 17.9919 21.5237 18.1463 21.5237 18.1463C21.5237 18.1721 21.5497 18.1892 21.5758 18.1892H22.0789C22.0963 18.1892 22.105 18.1807 22.1136 18.1721C22.1223 18.1635 22.131 18.1463 22.131 18.1378C22.131 18.112 22.1223 18.0691 22.1223 18.052C22.0876 17.9662 21.9488 17.786 21.8968 17.7173C21.8968 17.7088 21.8881 17.7088 21.8881 17.7002V17.417C21.8881 17.2025 21.9228 16.9966 21.9922 16.7907L22.1397 16.3446L22.1657 16.336C22.2611 16.2931 22.3566 16.2588 22.452 16.2244L22.5127 16.2073C22.7903 16.1043 22.9378 15.7954 22.9812 15.6925C22.9812 15.6839 22.9899 15.6753 22.9899 15.6753C23.1373 15.3836 23.2414 14.8946 23.3108 14.5342C23.3108 14.517 23.3195 14.4827 23.3195 14.4827C23.3282 14.4312 23.3369 14.3798 23.3369 14.3369C23.3455 14.3369 23.3455 14.3454 23.3455 14.3454C23.5451 14.5428 23.7359 14.7916 23.7359 14.7916C23.7012 14.6286 23.6145 14.4741 23.5191 14.354C23.8834 14.5085 24.1871 14.8517 24.1871 14.8517C24.0743 14.4484 23.7099 14.2511 23.5017 14.1653Z" fill="white"/>
<path d="M23.4582 14.1053C23.3801 14.1911 23.2934 14.2083 23.2413 14.2083C23.2413 14.2083 23.2413 14.2083 23.2327 14.2083C23.2327 14.2169 23.2327 14.2254 23.2327 14.234V14.2426C23.2847 14.2855 23.3281 14.3198 23.3454 14.3284C23.3541 14.3284 23.3541 14.337 23.3541 14.337C23.5537 14.5343 23.7445 14.7831 23.7445 14.7831C23.7098 14.6201 23.6231 14.4657 23.5276 14.3456C23.892 14.5 24.1956 14.8432 24.1956 14.8432C24.0829 14.4485 23.7098 14.2512 23.5103 14.174C23.8226 14.1825 24.3258 14.3284 24.3258 14.3284C24.0915 14.1139 23.7272 14.0539 23.5276 14.0281C23.5276 14.0281 23.519 14.0281 23.5103 14.0195V14.0281C23.4929 14.0539 23.4756 14.0796 23.4582 14.1053Z" fill="#10C19F"/>
<path d="M18.7823 17.8289C18.7215 17.7945 18.5567 17.4942 18.5567 17.4942C18.496 17.3999 18.4699 17.2969 18.4613 17.1854L18.4352 16.7478L18.0795 16.9366C18.0795 16.9366 18.0709 16.9366 18.0709 16.9451C18.0448 16.9537 18.0188 16.9709 18.0015 16.9966L18.0101 17.0996L18.2704 17.6744L18.3745 17.8803L18.3919 17.8889C18.4439 17.9147 18.4786 17.9661 18.4873 18.0262L18.5133 18.1892H19.0512L18.869 17.8803L18.7823 17.8289Z" fill="#261301"/>
<path d="M21.1593 17.7601V17.4169C21.1593 17.2024 21.194 16.9879 21.2634 16.782L21.2981 16.6791V16.4903C21.246 16.4903 21.1853 16.4903 21.1246 16.4817C21.0465 16.4817 20.9684 16.4731 20.8817 16.4731C20.8556 16.4731 20.8296 16.4731 20.7949 16.4731V16.885V17.8202C20.7949 17.8202 20.8383 17.8974 20.847 17.9231C20.8817 18.0261 20.899 18.1805 20.899 18.1805H21.4022C21.4022 18.1634 21.3935 18.1376 21.3935 18.1033C21.3154 17.9403 21.1593 17.7601 21.1593 17.7601Z" fill="#261301"/>
<path d="M23.146 14.1824C23.1374 14.1824 23.1374 14.1824 23.146 14.1824C23.0853 14.1567 23.0246 14.1481 22.9639 14.1481C22.9031 14.1481 22.8424 14.1567 22.7903 14.1824C22.7817 14.1824 22.747 14.1996 22.6949 14.1996C22.6429 14.1996 22.5561 14.1824 22.478 14.1052C22.478 14.131 22.5648 14.3455 22.799 14.3455C22.8164 14.3455 22.8337 14.3455 22.8597 14.3455C22.8771 14.3455 22.9031 14.3455 22.9205 14.3455C23.1113 14.3455 23.1721 14.2339 23.1721 14.2168C23.1721 14.2168 23.1721 14.2082 23.1721 14.1996C23.1721 14.1996 23.1721 14.1996 23.1721 14.191C23.1547 14.191 23.146 14.191 23.146 14.1824Z" fill="#261301"/>
<path d="M24.0308 12.9297C24.0308 12.8954 24.0135 12.8696 23.9788 12.8611C23.9094 12.8267 23.84 12.8182 23.7706 12.8182C23.6665 12.8182 23.5797 12.8525 23.519 12.8868C23.5103 12.8868 23.5103 12.8954 23.5016 12.8954C23.4843 12.8954 23.493 12.8696 23.5016 12.8439C23.5363 12.7495 23.5363 12.6208 23.519 12.5264C23.5016 12.3977 23.3715 12.3291 23.3194 12.3291C23.3021 12.3291 23.2934 12.3377 23.3021 12.3548C23.3108 12.3892 23.3368 12.7152 23.25 12.7152H23.2414C23.2067 12.7066 23.1633 12.7066 23.1286 12.7066C23.0418 12.7066 22.8857 12.7066 22.8076 12.7066C22.7642 12.7066 22.7208 12.7066 22.6948 12.7152H22.6861C22.5994 12.7152 22.6254 12.3892 22.6341 12.3548C22.6428 12.3377 22.6341 12.3291 22.6167 12.3291C22.5647 12.3291 22.4346 12.3977 22.4172 12.5264C22.3998 12.6208 22.3998 12.7495 22.4346 12.8439C22.4432 12.8696 22.4519 12.8954 22.4346 12.8954C22.4346 12.8954 22.4259 12.8954 22.4172 12.8868C22.3565 12.8525 22.2697 12.8182 22.1656 12.8182C22.1049 12.8182 22.0355 12.8267 21.9574 12.8611C21.9314 12.8696 21.9054 12.904 21.9054 12.9297C21.9054 13.0069 21.9314 13.1699 22.1743 13.2643C22.1136 13.2986 22.0528 13.3329 22.0008 13.3673C22.0008 13.3673 22.0008 13.3673 21.9921 13.3673C21.515 13.556 20.9684 13.6504 20.3698 13.6504C20.1529 13.6504 19.9274 13.6418 19.7018 13.6161C19.6064 13.6075 19.4936 13.5989 19.3635 13.5818C19.3548 13.5818 19.3461 13.5732 19.3374 13.5732L19.1552 13.5646C18.7909 13.5389 18.3831 13.5131 18.1055 13.5131C18.0188 13.5131 17.9407 13.5131 17.8886 13.5217C17.611 13.5474 17.3594 13.6761 17.2033 13.8735C17.1946 13.8821 17.1859 13.8992 17.1773 13.9164C17.1773 13.9164 17.1686 13.925 17.1686 13.9335C17.0298 14.1395 16.969 14.3969 17.0124 14.6886C17.0818 15.169 17.1078 15.4436 17.1252 15.6495C17.1425 15.8469 17.0645 16.0528 16.9083 16.1986C16.8996 16.2072 16.891 16.2158 16.8823 16.2244C16.7261 16.3874 16.622 16.4217 16.622 16.4303C16.6047 16.4389 16.5439 16.4474 16.5439 16.4646C16.5439 16.4903 16.596 16.5161 16.6133 16.5247C16.622 16.5247 16.7261 16.5676 16.8649 16.5676C17.0298 16.5676 17.1686 16.4989 17.2727 16.3788C17.4288 16.1729 17.3855 16.0013 17.3594 15.8297C17.3508 15.7954 17.3421 15.7267 17.3334 15.6838C17.2727 15.3578 17.0992 14.5599 17.3594 14.3025C17.3768 14.2853 17.4115 14.2939 17.4115 14.3196C17.4028 14.4398 17.4115 14.6114 17.4809 14.7744C17.5763 15.006 17.6284 15.3492 17.637 15.7782C17.637 15.9412 17.611 16.1043 17.5416 16.2587L17.3855 16.6019C17.3768 16.619 17.3768 16.6448 17.3768 16.6534V17.8631V17.8717L17.4115 18.1548C17.4202 18.1977 17.4549 18.2235 17.4896 18.2235H18.0535C18.0708 18.2235 18.0882 18.2149 18.0968 18.1977C18.1055 18.1806 18.1055 18.1634 18.0968 18.1463L17.9407 17.8374C17.9407 17.8288 17.932 17.8288 17.932 17.8202C17.932 17.8202 17.7845 17.6572 17.8192 17.1081C17.8279 16.988 17.906 16.8764 18.0274 16.825L18.3658 16.6534L18.9557 16.3445C19.0945 16.2844 19.242 16.2587 19.3895 16.2673C19.7365 16.3016 20.3872 16.3531 20.8817 16.3531C20.9684 16.3531 21.0552 16.3616 21.1332 16.3616C21.2287 16.3702 21.3154 16.3702 21.3761 16.3616C21.3935 16.3616 21.4109 16.3702 21.4109 16.3874V17.7859C21.4109 17.8031 21.4109 17.8116 21.4195 17.8202C21.4369 17.846 21.4629 17.8974 21.4629 17.9146C21.4976 18.009 21.515 18.1634 21.515 18.1634C21.515 18.1892 21.541 18.2063 21.567 18.2063H22.0702C22.0875 18.2063 22.0962 18.1977 22.1049 18.1892C22.1136 18.1806 22.1222 18.1634 22.1222 18.1548C22.1222 18.1291 22.1136 18.0862 22.1136 18.069C22.0789 17.9832 21.9401 17.8031 21.888 17.7344C21.888 17.7258 21.8793 17.7258 21.8793 17.7173V17.417C21.8793 17.2025 21.914 16.9966 21.9834 16.7906L22.1309 16.3445L22.1569 16.3359C22.2524 16.293 22.3478 16.2587 22.4432 16.2244L22.504 16.2072C22.7816 16.1043 22.929 15.7954 22.9724 15.6924C22.9724 15.6838 22.9811 15.6753 22.9811 15.6753C23.1286 15.3835 23.2327 14.8945 23.3021 14.5341C23.3021 14.517 23.3108 14.4827 23.3108 14.4827C23.3194 14.4312 23.3281 14.3797 23.3281 14.3368C23.3108 14.3196 23.2414 14.2682 23.1633 14.2167C23.172 14.2424 23.172 14.2682 23.172 14.2767C23.172 14.3368 23.1286 14.5599 23.1286 14.5599C23.1199 14.6028 23.1112 14.6457 23.1026 14.6886C23.1026 14.6971 23.1026 14.6971 23.1026 14.7057C23.1026 14.7057 23.1026 14.6971 23.1026 14.6886C23.0765 14.74 23.0505 14.7829 23.0071 14.8173H23.0158C23.0071 14.8173 22.9985 14.8173 22.9985 14.8258C22.8249 14.9717 22.556 14.9374 22.4693 15.0918C22.3304 15.3235 22.5473 15.4007 22.504 15.7439C22.504 15.7525 22.504 15.7611 22.4953 15.7696C22.4345 15.9756 22.2784 16.1386 22.0789 16.2158C22.0181 16.2415 21.9748 16.293 21.9574 16.3531L21.8186 16.7649C21.7492 16.9794 21.7058 17.2111 21.7058 17.4341V17.8202L21.7318 17.846C21.7752 17.906 21.8359 17.9832 21.8793 18.0519C21.888 18.069 21.8793 18.0948 21.8533 18.0948H21.6624C21.6451 18.0948 21.6364 18.0862 21.6364 18.069C21.6277 18.0176 21.6104 17.9489 21.593 17.8974C21.5844 17.8717 21.567 17.8374 21.5497 17.8116C21.5497 17.8116 21.5497 17.8031 21.5497 17.7945V16.3187C21.5497 16.2415 21.4716 16.1901 21.4022 16.2244C21.3848 16.2329 21.3588 16.2329 21.2894 16.2329C21.246 16.2329 21.1853 16.2329 21.1246 16.2244C21.0465 16.2244 20.9597 16.2158 20.8643 16.2158C20.8296 16.2158 20.7949 16.2158 20.7515 16.2158C20.7428 16.2158 20.7342 16.2158 20.7168 16.2158C20.6908 16.2158 20.6561 16.2158 20.6301 16.2158C20.6214 16.2158 20.6127 16.2158 20.604 16.2158C20.5346 16.2158 20.4566 16.2072 20.3872 16.2072C20.3698 16.2072 20.3611 16.19 20.3611 16.1729C20.3698 16.1043 20.3611 16.0185 20.3177 15.9412C20.2744 15.8726 20.205 15.8211 20.1009 15.804C19.8059 15.7525 19.537 15.4522 19.5196 15.3664C19.5023 15.272 19.3374 15.0661 19.1639 15.0232C19.0685 15.006 18.9904 15.0318 18.9297 15.109C18.8863 15.1605 18.8429 15.2205 18.7909 15.272C18.6347 15.4436 18.4786 15.6238 18.4525 15.864C18.4352 16.0699 18.3398 16.3531 18.2964 16.4989L17.932 16.6877C17.7585 16.7649 17.6457 16.9193 17.637 17.0995C17.6023 17.6315 17.7325 17.846 17.7845 17.906C17.7845 17.906 17.7845 17.906 17.7845 17.9146L17.8366 18.0176C17.8453 18.0347 17.8279 18.0605 17.8106 18.0605H17.559C17.5416 18.0605 17.5329 18.0519 17.5329 18.0347L17.5069 17.846V16.6448C17.5069 16.6105 17.5329 16.5676 17.559 16.5247C17.5763 16.4989 17.5937 16.4732 17.6023 16.4389L17.6631 16.3102C17.7412 16.1386 17.7759 15.9584 17.7759 15.7696C17.7759 15.7182 17.7759 15.6667 17.7672 15.6238C17.7672 15.598 17.7672 15.5723 17.7672 15.5551C17.7672 15.538 17.7672 15.5122 17.7672 15.4951C17.7672 15.4608 17.7585 15.435 17.7585 15.4007C17.7585 15.3921 17.7585 15.3835 17.7585 15.375C17.7585 15.3406 17.7498 15.3063 17.7498 15.272H17.8626C18.0448 15.272 18.3571 15.1776 18.3831 14.843C18.3918 14.6714 18.4699 14.517 18.6 14.3969C18.6868 14.3196 18.8169 14.2853 18.947 14.2596C19.0772 14.2338 19.1986 14.2081 19.268 14.1309C19.4242 13.9764 19.4502 13.8392 19.4415 13.7448C19.4676 13.7448 19.4936 13.7534 19.5196 13.7534C19.5283 13.7534 19.537 13.7534 19.5456 13.7534C19.563 13.7534 19.5803 13.7534 19.5977 13.7619C19.6064 13.7619 19.615 13.7619 19.615 13.7619C19.6411 13.7619 19.6584 13.7705 19.6844 13.7705C19.7278 13.7791 19.7799 13.7791 19.8233 13.7877C19.8493 13.7877 19.858 13.8134 19.8406 13.8306C19.7365 13.9764 19.563 14.251 19.5803 14.3969C19.5977 14.5427 19.7365 14.7486 19.8927 14.8602C19.9968 14.9374 20.1009 14.9631 20.1876 14.946C20.3091 14.9202 20.4739 14.9288 20.5954 14.9889C20.6734 15.0318 20.7255 15.1176 20.7342 15.2034C20.7428 15.2806 20.7949 15.3492 20.8817 15.3921C20.9424 15.4179 21.0031 15.435 21.0725 15.435C21.1593 15.435 21.246 15.4093 21.3067 15.3664C21.4109 15.2977 21.4629 15.1776 21.4456 15.0403C21.4195 14.7658 21.3762 14.3368 21.4976 14.0708C21.515 14.0365 21.5236 14.0022 21.541 13.9764C21.6364 13.822 21.8099 13.822 21.9574 13.822C22.0528 13.822 22.1396 13.822 22.1916 13.7705C22.235 13.719 22.3218 13.5903 22.3999 13.5045C22.4172 13.5646 22.4519 13.6332 22.504 13.7019C22.504 13.7019 22.3912 13.9164 22.4866 14.0451C22.4866 14.0537 22.4953 14.0537 22.504 14.0622C22.5647 14.1309 22.6341 14.148 22.6861 14.148C22.7295 14.148 22.7555 14.1395 22.7555 14.1395C22.8163 14.1137 22.8857 14.1051 22.9551 14.1051C23.0245 14.1051 23.0852 14.1137 23.1459 14.1395C23.1459 14.1395 23.1459 14.1395 23.1546 14.1395C23.1546 14.1395 23.1806 14.148 23.224 14.148C23.2761 14.148 23.3368 14.1309 23.4062 14.0622C23.4235 14.0451 23.4322 14.0279 23.4409 14.0108C23.4843 13.8992 23.4322 13.7619 23.4149 13.7105C23.4149 13.7019 23.4062 13.6933 23.4062 13.6933C23.5363 13.5303 23.545 13.3158 23.545 13.3158C23.9874 13.2471 24.0308 13.0327 24.0308 12.9297ZM23.198 14.3196C23.1893 14.3196 23.1893 14.3196 23.198 14.3196C23.1893 14.3196 23.1893 14.3196 23.198 14.3196ZM23.1806 13.9507C23.1459 13.9507 23.1112 13.9421 23.0765 13.9421C23.0505 13.9335 23.0158 13.9335 22.9811 13.9335C22.9724 13.9335 22.9638 13.9335 22.9638 13.9335C22.9551 13.9335 22.9464 13.9335 22.9464 13.9335C22.9117 13.9335 22.8857 13.9335 22.851 13.9421C22.8163 13.9507 22.7816 13.9507 22.7469 13.9507C22.6948 13.9507 22.6514 13.9335 22.6514 13.8906C22.6514 13.8477 22.6775 13.7619 22.7035 13.7276C22.7555 13.6504 22.7729 13.5303 22.7555 13.4874C22.7382 13.4445 22.7295 13.4102 22.7208 13.3844C22.7122 13.3501 22.7122 13.3072 22.7208 13.2729C22.7382 13.23 22.7208 13.1871 22.6861 13.1528C22.6341 13.1013 22.6428 13.0584 22.6428 12.964C22.6428 12.8868 22.7729 12.8439 22.9204 12.8439C22.9291 12.8439 22.9464 12.8439 22.9551 12.8439C22.9638 12.8439 22.9811 12.8439 22.9898 12.8439C23.1286 12.8439 23.2674 12.8782 23.2674 12.964C23.2674 13.0584 23.2761 13.1013 23.224 13.1528C23.1893 13.1871 23.1806 13.23 23.1893 13.2729C23.198 13.3072 23.198 13.3415 23.1893 13.3844C23.1806 13.4102 23.172 13.4531 23.1546 13.4874C23.1373 13.5303 23.1546 13.6504 23.2067 13.7276C23.2327 13.7705 23.2587 13.8563 23.2587 13.8906C23.2761 13.9335 23.2327 13.9507 23.1806 13.9507Z" fill="#261301"/>
<path d="M23.8054 14.2597C24.057 14.3026 24.2999 14.3798 24.2999 14.3798L24.5428 14.4484L24.3606 14.2768C24.1177 14.0538 23.7446 13.9851 23.5364 13.968H23.5278C23.5451 13.865 23.5104 13.762 23.4844 13.702C23.5711 13.5819 23.6058 13.436 23.6145 13.3674C24.057 13.273 24.0917 13.0242 24.0917 12.9212C24.0917 12.8697 24.057 12.8183 24.0049 12.8011C23.9268 12.7668 23.8487 12.7496 23.7707 12.7496C23.7099 12.7496 23.6405 12.7582 23.5798 12.7839C23.6058 12.6896 23.5972 12.578 23.5885 12.4922C23.5625 12.3464 23.415 12.2434 23.3282 12.2434C23.2935 12.2434 23.2675 12.2606 23.2588 12.2777C23.2501 12.2863 23.2415 12.312 23.2501 12.3464C23.2588 12.3893 23.2675 12.578 23.2415 12.6295C23.2068 12.6209 23.1721 12.6209 23.1287 12.6209H22.8077C22.7643 12.6209 22.7209 12.6209 22.6949 12.6295C22.6689 12.578 22.6776 12.3893 22.6862 12.3464C22.6949 12.312 22.6862 12.2949 22.6776 12.2777C22.6689 12.2691 22.6515 12.2434 22.6082 12.2434C22.5214 12.2434 22.3739 12.3464 22.3479 12.4922C22.3305 12.5694 22.3306 12.681 22.3566 12.7839C22.2958 12.7582 22.2264 12.7496 22.1657 12.7496C22.0876 12.7496 22.0096 12.7668 21.9315 12.8011C21.8794 12.8268 21.8534 12.8697 21.8447 12.9212C21.8447 12.9984 21.8621 13.1958 22.1484 13.3159C22.2004 13.3331 22.2525 13.3502 22.3219 13.3674C22.3305 13.4017 22.3392 13.4532 22.3566 13.5218C22.3826 13.5905 22.4086 13.6505 22.452 13.702C22.426 13.7706 22.3739 13.9251 22.4433 14.0452C22.4433 14.0538 22.4347 14.0623 22.4347 14.0709C22.426 14.0795 22.4173 14.1138 22.4607 14.1996C22.4954 14.2597 22.5995 14.397 22.8077 14.397C22.825 14.397 22.8424 14.397 22.8684 14.397C22.8858 14.397 22.9118 14.397 22.9292 14.397C23.0766 14.397 23.1634 14.3369 23.2068 14.2854C23.2501 14.3197 23.2935 14.3541 23.3109 14.3712C23.5104 14.56 23.6926 14.8088 23.7013 14.8088L23.8574 15.0061L23.8054 14.7659C23.788 14.6801 23.7533 14.5857 23.7013 14.4999C23.9529 14.6629 24.1524 14.8774 24.1524 14.8774L24.3259 15.0662L24.2565 14.826C24.1697 14.56 23.9876 14.3798 23.8054 14.2597ZM22.4086 13.5047C22.3739 13.4017 22.3652 13.3245 22.3652 13.3245C22.2872 13.3073 22.2178 13.2902 22.1657 13.2644C21.9228 13.17 21.8881 13.007 21.8968 12.9298C21.8968 12.8955 21.9141 12.8697 21.9488 12.8612C22.0182 12.8268 22.0876 12.8183 22.157 12.8183C22.2611 12.8183 22.3479 12.8526 22.4086 12.8869C22.4173 12.8869 22.4173 12.8955 22.426 12.8955C22.4433 12.8955 22.4347 12.8697 22.426 12.844C22.3913 12.7496 22.3913 12.6209 22.4086 12.5265C22.426 12.3978 22.5561 12.3292 22.6082 12.3292C22.6255 12.3292 22.6342 12.3378 22.6255 12.3549C22.6168 12.3893 22.5908 12.7153 22.6776 12.7153H22.6862C22.7209 12.7067 22.7643 12.7067 22.799 12.7067C22.8858 12.7067 23.0419 12.7067 23.12 12.7067C23.1634 12.7067 23.2068 12.7067 23.2328 12.7153H23.2415C23.3282 12.7153 23.3022 12.3893 23.2935 12.3549C23.2848 12.3378 23.2935 12.3292 23.3109 12.3292C23.3629 12.3292 23.4931 12.3978 23.5104 12.5265C23.5278 12.6209 23.5278 12.7496 23.4931 12.844C23.4844 12.8697 23.4757 12.8955 23.4931 12.8955C23.4931 12.8955 23.5017 12.8955 23.5104 12.8869C23.5711 12.8526 23.6579 12.8183 23.762 12.8183C23.8227 12.8183 23.8921 12.8268 23.9702 12.8612C23.9962 12.8697 24.0223 12.9041 24.0223 12.9298C24.0223 13.0328 23.9789 13.2387 23.5538 13.3245C23.5538 13.3245 23.5364 13.539 23.415 13.702C23.415 13.702 23.415 13.7106 23.4237 13.7191C23.441 13.762 23.5017 13.9079 23.4497 14.0194C23.441 14.0366 23.4323 14.0538 23.415 14.0709C23.3542 14.1396 23.2848 14.1567 23.2328 14.1567C23.1894 14.1567 23.1634 14.1481 23.1634 14.1481C23.1634 14.1481 23.1634 14.1481 23.1547 14.1481C23.094 14.1224 23.0246 14.1138 22.9639 14.1138C22.8945 14.1138 22.825 14.1224 22.7643 14.1481C22.7643 14.1481 22.7383 14.1567 22.6949 14.1567C22.6429 14.1567 22.5821 14.1396 22.5127 14.0709C22.5041 14.0623 22.5041 14.0623 22.4954 14.0538C22.4 13.9251 22.5127 13.7106 22.5127 13.7106C22.4607 13.6333 22.4347 13.5647 22.4086 13.5047ZM23.1721 14.2168C23.1721 14.2339 23.1027 14.3455 22.9205 14.3455C22.9031 14.3455 22.8858 14.3455 22.8597 14.3455C22.8424 14.3455 22.8164 14.3455 22.799 14.3455C22.5648 14.3455 22.478 14.131 22.478 14.1052C22.5561 14.1825 22.6342 14.1996 22.6949 14.1996C22.747 14.1996 22.7817 14.1825 22.7903 14.1825C22.8511 14.1567 22.9031 14.1481 22.9639 14.1481C23.0246 14.1481 23.0853 14.1567 23.1374 14.1825C23.1374 14.1825 23.1374 14.1825 23.146 14.1825C23.1547 14.1825 23.1634 14.191 23.1721 14.191C23.1721 14.191 23.1721 14.191 23.1721 14.1996C23.1721 14.2082 23.1721 14.2168 23.1721 14.2168ZM23.5191 14.3369C23.6145 14.4656 23.7013 14.6115 23.736 14.7745C23.736 14.7745 23.5451 14.5257 23.3456 14.3283C23.3456 14.3283 23.3456 14.3283 23.3369 14.3197C23.3195 14.3026 23.2762 14.2683 23.2241 14.2339C23.2241 14.2254 23.2241 14.2254 23.2241 14.2254C23.2241 14.2168 23.2241 14.2082 23.2241 14.1996C23.2241 14.1996 23.2241 14.1996 23.2328 14.1996C23.2935 14.1996 23.3716 14.1825 23.4497 14.0967C23.467 14.0795 23.4844 14.0538 23.4931 14.028V14.0194C23.5017 14.0194 23.5104 14.028 23.5104 14.028C23.7099 14.0452 24.0743 14.1138 24.3085 14.3283C24.3085 14.3283 23.8054 14.1739 23.4931 14.1739C23.6926 14.2511 24.0656 14.4484 24.1784 14.8431C24.1871 14.8431 23.8834 14.4999 23.5191 14.3369Z" fill="white"/>
<path d="M10.3238 19.073H5.94271C5.41351 19.073 4.97974 19.502 4.97974 20.0254V27.9532C4.97974 28.4765 5.41351 28.9055 5.94271 28.9055H10.3238C10.853 28.9055 11.2868 28.4765 11.2868 27.9532V20.0254C11.2868 19.502 10.853 19.073 10.3238 19.073Z" fill="#936748"/>
<path d="M11.2866 20.523V27.4641C11.2866 28.2621 10.6273 28.9141 9.82048 28.9141H8.13745V19.073H9.82916C10.636 19.073 11.2866 19.7251 11.2866 20.523Z" fill="#8E5F39"/>
<path d="M8.13759 22.0159H4.97974V26.3401H8.13759V22.0159Z" fill="#FFBC00"/>
<path d="M11.2953 22.0159H8.13745V26.3401H11.2953V22.0159Z" fill="#FFA300"/>
<path d="M8.13759 16.9368H5.48291V19.0732H8.13759V16.9368Z" fill="#424242"/>
<path d="M10.7921 16.9368H8.13745V19.0732H10.7921V16.9368Z" fill="#333333"/>
<path d="M2.79347 26.1258H1.8999V25.5938C1.8999 25.3536 2.09944 25.1562 2.34235 25.1562C2.58526 25.1562 2.78479 25.3536 2.78479 25.5938V26.1258H2.79347Z" fill="#009097"/>
<path d="M2.79347 26.1257H1.8999V26.6577C1.8999 26.8979 2.09944 27.0953 2.34235 27.0953C2.58526 27.0953 2.78479 26.8979 2.78479 26.6577V26.1257H2.79347Z" fill="#10C19F"/>
<path d="M1.44883 26.7778L0.581288 26.958L0.468507 26.4346C0.416455 26.1944 0.572612 25.9627 0.815524 25.9113C1.05844 25.8598 1.29267 26.0142 1.34472 26.2545L1.44883 26.7778Z" fill="#009097"/>
<path d="M1.44884 26.7778L0.581299 26.958L0.694079 27.4814C0.746132 27.7216 0.980368 27.8675 1.22328 27.8246C1.46619 27.7731 1.61367 27.5414 1.5703 27.3012L1.44884 26.7778Z" fill="#10C19F"/>
<path d="M3.53968 28.142L2.89771 27.5328L3.27075 27.1467C3.43558 26.9751 3.72187 26.9665 3.89538 27.1295C4.06888 27.2926 4.07756 27.5757 3.91273 27.7473L3.53968 28.142Z" fill="#009097"/>
<path d="M3.53964 28.1421L2.89766 27.533L2.52461 27.9191C2.35978 28.0906 2.35978 28.3738 2.54196 28.5368C2.71547 28.6998 3.00176 28.6998 3.16659 28.5196L3.53964 28.1421Z" fill="#10C19F"/>
<path d="M8.13743 22.8396H7.65161V25.3535H8.13743V22.8396Z" fill="white"/>
<path d="M8.62327 22.8396H8.13745V25.3535H8.62327V22.8396Z" fill="white"/>
<path d="M6.8623 23.6118V24.0923V24.5728H8.13759V24.0923V23.6118H6.8623Z" fill="white"/>
<path d="M8.13745 23.6118V24.0923V24.5728H9.40406V24.0923V23.6118H8.13745Z" fill="white"/>
</svg>
