<svg width="34" height="23" viewBox="0 0 34 23" fill="none" xmlns="http://www.w3.org/2000/svg">
<g clip-path="url(#clip0_264_826)">
<path d="M32.2615 19.821H5.60241C4.64422 19.821 3.86377 19.051 3.86377 18.1057V1.71528C3.86377 0.76997 4.64422 0 5.60241 0H32.2615C33.2197 0 34.0001 0.76997 34.0001 1.71528V18.1057C34.0001 19.051 33.2197 19.821 32.2615 19.821Z" fill="#9AE8D9"/>
<path d="M18.9319 17.7932C22.6106 17.7932 25.5928 14.264 25.5928 9.9105C25.5928 5.55702 22.6106 2.02783 18.9319 2.02783C15.2532 2.02783 12.271 5.55702 12.271 9.9105C12.271 14.264 15.2532 17.7932 18.9319 17.7932Z" fill="white"/>
<path d="M28.3977 23H1.73864C0.780455 23 0 22.23 0 21.2847V4.89424C0 3.94893 0.780455 3.17896 1.73864 3.17896H28.3977C29.3559 3.17896 30.1364 3.94893 30.1364 4.89424V21.2847C30.1364 22.23 29.3559 23 28.3977 23Z" fill="#10C19F"/>
<path d="M29.7886 3.75072C29.7268 3.67448 29.6573 3.60587 29.58 3.54488C29.3095 3.31618 28.9695 3.17896 28.5909 3.17896H25.2682H4.86818H1.54545C0.695455 3.17896 0 3.86507 0 4.70365V21.4753C0 22.3139 0.695455 23 1.54545 23H28.5909C29.4409 23 30.1364 22.3139 30.1364 21.4753V4.70365C30.1364 4.33772 30.005 4.00991 29.7886 3.75072ZM27.4318 16.9012C25.5077 16.9012 23.9545 18.4335 23.9545 20.3318H6.18182C6.18182 18.4335 4.62864 16.9012 2.70455 16.9012V9.27773C4.62864 9.27773 6.18182 7.74541 6.18182 5.84717H23.9545C23.9545 7.74541 25.5077 9.27773 27.4318 9.27773V16.9012Z" fill="#009097"/>
<path d="M15.0682 17.6635C17.2021 17.6635 18.9319 15.6157 18.9319 13.0895C18.9319 10.5633 17.2021 8.51538 15.0682 8.51538C12.9344 8.51538 11.2046 10.5633 11.2046 13.0895C11.2046 15.6157 12.9344 17.6635 15.0682 17.6635Z" fill="white"/>
<path d="M6.95432 14.599C7.79931 14.599 8.48432 13.9232 8.48432 13.0895C8.48432 12.2559 7.79931 11.5801 6.95432 11.5801C6.10932 11.5801 5.42432 12.2559 5.42432 13.0895C5.42432 13.9232 6.10932 14.599 6.95432 14.599Z" fill="#9AE8D9"/>
<path d="M23.1819 14.599C24.0269 14.599 24.7119 13.9232 24.7119 13.0895C24.7119 12.2559 24.0269 11.5801 23.1819 11.5801C22.3369 11.5801 21.6519 12.2559 21.6519 13.0895C21.6519 13.9232 22.3369 14.599 23.1819 14.599Z" fill="#9AE8D9"/>
</g>
<defs>
<clipPath id="clip0_264_826">
<rect width="34" height="23" fill="white"/>
</clipPath>
</defs>
</svg>
