<svg width="97" height="15" viewBox="0 0 97 15" fill="none" xmlns="http://www.w3.org/2000/svg">
<path d="M7.66332 12.2636L2.92802 14.7904L3.83243 9.43941L0 5.64916L5.29452 4.86839L7.66332 0L10.0314 4.86839L15.3259 5.64916L11.4942 9.43941L12.3994 14.7904L7.66332 12.2636Z" fill="#F3C13F"/>
<path d="M27.8987 12.2636L23.1634 14.7904L24.0678 9.43941L20.2354 5.64916L25.5299 4.86839L27.8987 0L30.2667 4.86839L35.5612 5.64916L31.7296 9.43941L32.6347 14.7904L27.8987 12.2636Z" fill="#F3C13F"/>
<path d="M48.1343 12.2636L43.399 14.7904L44.3034 9.43941L40.4709 5.64916L45.7655 4.86839L48.1343 0L50.5023 4.86839L55.7968 5.64916L51.9652 9.43941L52.8703 14.7904L48.1343 12.2636Z" fill="#F3C13F"/>
<path d="M68.3699 12.2636L63.6346 14.7904L64.539 9.43941L60.7065 5.64916L66.0011 4.86839L68.3699 0L70.7379 4.86839L76.0324 5.64916L72.2008 9.43941L73.1059 14.7904L68.3699 12.2636Z" fill="#F3C13F"/>
<path d="M88.6055 12.2636L83.8702 14.7904L84.7746 9.43941L80.9421 5.64916L86.2367 4.86839L88.6055 0L90.9735 4.86839L96.268 5.64916L92.4363 9.43941L93.3415 14.7904L88.6055 12.2636Z" fill="#F3C13F"/>
</svg>
