<svg width="30" height="27" viewBox="0 0 30 27" fill="none" xmlns="http://www.w3.org/2000/svg">
<g clip-path="url(#clip0_28_13)">
<path d="M19.6494 26.4387C17.5345 26.4387 15.4192 26.445 13.3039 26.4353C12.5506 26.4319 11.8393 26.2551 11.2208 25.7937C10.2834 25.0933 9.84907 24.1244 9.83986 22.9706C9.82145 20.8787 9.82522 18.7864 9.83735 16.6941C9.84782 15.0116 10.8107 13.7458 12.3824 13.3334C12.6794 13.2565 12.9847 13.2174 13.2913 13.2171C17.5317 13.2098 21.7733 13.2085 26.0162 13.2133C27.6411 13.2133 28.9036 14.1438 29.3359 15.6596C29.4193 15.9697 29.4607 16.2898 29.4589 16.6112C29.4695 18.7496 29.4706 20.8877 29.4622 23.0256C29.4556 24.6602 28.5328 25.8783 26.9712 26.3063C26.6415 26.3921 26.3023 26.4348 25.9618 26.4332C23.8574 26.4442 21.7534 26.4387 19.6494 26.4387ZM24.5558 18.0103C24.5558 17.7464 24.5918 17.4757 24.5441 17.2207C24.5014 17.0239 24.4032 16.8439 24.2612 16.7026C24.0185 16.4644 23.6996 16.453 23.4004 16.5875C23.0807 16.7313 22.9368 17.0189 22.9184 17.3615C22.9016 17.6711 22.9184 17.982 22.9037 18.292C22.8242 19.9994 21.5023 21.4476 19.659 21.4492C18.2333 21.4492 17.0646 20.6457 16.6043 19.1924C16.426 18.6265 16.4369 17.9968 16.3875 17.3941C16.341 16.8493 16.0561 16.519 15.5794 16.5093C15.1191 16.4996 14.753 16.8383 14.7312 17.3581C14.6668 18.8943 14.9568 20.312 16.0071 21.5178C17.4571 23.1812 20.208 23.6405 22.0882 22.4998C23.7687 21.4801 24.56 19.9673 24.5558 18.0103Z" fill="#4ACCD5"/>
<path d="M6.55774 8.24483C6.55774 8.07312 6.55774 7.93863 6.55774 7.80413C6.57406 6.70152 6.55188 5.59637 6.61632 4.49671C6.75316 2.146 8.63705 0.217382 10.9553 0.0228287C13.0627 -0.153538 14.6691 0.693192 15.7492 2.522C16.2011 3.28752 16.358 4.14863 16.3597 5.03681C16.3597 5.96729 16.3597 6.89847 16.3597 7.83035V8.24483C16.5271 8.24483 16.6597 8.24483 16.792 8.24483C17.9051 8.2664 19.0224 8.23595 20.13 8.3235C21.6452 8.44319 22.9437 9.98567 22.8868 11.5163H20.5175C20.2777 10.8328 20.1024 10.7097 19.3697 10.7097H3.56994C2.70164 10.7097 2.44011 10.98 2.44011 11.8703C2.44011 14.9747 2.44011 18.0788 2.44011 21.1827C2.44011 22.0459 2.70834 22.3174 3.55948 22.3174H8.14872V24.7823H7.78298C6.36023 24.7823 4.93747 24.7925 3.51805 24.7794C2.10952 24.7658 0.985961 24.205 0.377104 22.8761C0.152226 22.3754 0.0318587 21.8332 0.0235091 21.2833C-0.00871221 18.099 7.29585e-05 14.9142 0.0105344 11.7295C0.0163928 10.0457 0.979269 8.77943 2.551 8.3658C2.8596 8.28927 3.17604 8.24967 3.49379 8.2478C4.38092 8.23257 5.26805 8.2423 6.15518 8.2423L6.55774 8.24483ZM13.9071 8.2313C13.9159 8.14671 13.9268 8.09216 13.9264 8.03675C13.9226 6.93456 13.9469 5.83152 13.9054 4.73103C13.8582 3.48419 12.8032 2.4962 11.524 2.43614C10.3523 2.38116 9.16683 3.31924 9.06974 4.51998C8.97224 5.72833 9.01911 6.94852 9.00446 8.16363C9.00446 8.18182 9.02873 8.2 9.05091 8.2313H13.9071Z" fill="#4ACCD5"/>
</g>
<defs>
<clipPath id="clip0_28_13">
<rect width="29.467" height="26.4407" fill="white"/>
</clipPath>
</defs>
</svg>
