<svg width="50" height="23" viewBox="0 0 50 23" fill="none" xmlns="http://www.w3.org/2000/svg">
<rect x="2.20093" y="3" width="46" height="17" rx="2" stroke="#10C19F" stroke-width="0.5"/>
<path d="M10.7 15V8.56H11.52V14.36H14.95V15H10.7ZM16.0523 9.15V8.4H16.9623V9.15H16.0523ZM16.1323 15V10.91H15.4023L15.4823 10.26H16.9523V15H16.1323ZM18.366 15V8.26H19.186V12.35L21.406 10.26H22.356L20.416 12.14L22.466 15H21.606L19.896 12.58L19.186 13.25V15H18.366ZM25.1882 15.1C24.3415 15.1 23.7082 14.8967 23.2882 14.49C22.8682 14.0833 22.6582 13.4567 22.6582 12.61C22.6582 11.85 22.8382 11.2533 23.1982 10.82C23.5649 10.38 24.1415 10.16 24.9282 10.16C25.3949 10.16 25.7782 10.2467 26.0782 10.42C26.3849 10.5867 26.6115 10.82 26.7582 11.12C26.9115 11.4133 26.9882 11.7467 26.9882 12.12V13.01H23.4782C23.5049 13.37 23.5815 13.6533 23.7082 13.86C23.8415 14.0667 24.0382 14.2167 24.2982 14.31C24.5649 14.3967 24.9149 14.44 25.3482 14.44C25.8349 14.44 26.2815 14.3567 26.6882 14.19V14.83C26.4815 14.9167 26.2482 14.9833 25.9882 15.03C25.7349 15.0767 25.4682 15.1 25.1882 15.1ZM23.4782 12.42H26.2582V12.03C26.2582 11.6433 26.1549 11.3467 25.9482 11.14C25.7482 10.9267 25.4149 10.82 24.9482 10.82C24.3815 10.82 23.9949 10.9533 23.7882 11.22C23.5815 11.4867 23.4782 11.8867 23.4782 12.42Z" fill="#10C19F"/>
<path d="M38.1264 8.54701C37.1632 7.7131 35.7306 7.8631 34.8464 8.78986L34.5001 9.15236L34.1538 8.78986C33.2714 7.8631 31.8371 7.7131 30.8738 8.54701C29.7699 9.50414 29.7119 11.222 30.6998 12.2594L34.1011 15.8272C34.3208 16.0576 34.6777 16.0576 34.8974 15.8272L38.2987 12.2594C39.2883 11.222 39.2303 9.50414 38.1264 8.54701Z" fill="#10C19F"/>
</svg>
