<svg width="28" height="28" viewBox="0 0 28 28" fill="none" xmlns="http://www.w3.org/2000/svg">
<path d="M25.1484 21.5195C25.1774 24.4636 23.2335 26.8872 20.3769 27.4257C18.4704 27.7852 16.7324 27.2761 15.1667 26.1896C14.0542 25.418 13.0359 25.4389 11.9189 26.1778C10.7613 26.944 9.50497 27.4863 8.07705 27.5239C4.81439 27.6057 2.16117 25.3125 1.95453 22.0175C1.81355 19.7759 2.66104 18.0176 4.50263 16.7909C5.52936 16.1072 6.3555 15.2632 6.95204 14.1784C7.67184 12.8658 8.36505 11.5373 9.11184 10.2402C9.95409 8.77674 11.3127 8.12453 12.9106 7.92867C14.4839 7.73607 15.9203 8.13312 17.1062 9.20118C17.5758 9.6244 17.9246 10.2083 18.2545 10.7644C19.0807 12.1547 19.8416 13.5859 20.6749 14.9729C21.1204 15.7142 21.7657 16.2777 22.5032 16.7361C24.1748 17.7751 25.1287 19.5204 25.1484 21.5195ZM22.2656 21.6197C22.2438 20.7021 21.9107 19.8352 21.0624 19.2828C19.587 18.3223 18.4563 17.051 17.5984 15.5159C16.9539 14.3636 16.3139 13.2085 15.6899 12.0447C15.2186 11.1656 14.457 10.8021 13.5257 10.7992C12.5674 10.7959 11.8182 11.2228 11.3506 12.1032C10.924 12.9091 10.5047 13.7192 10.0649 14.5157C9.02605 16.4041 7.82974 18.1288 5.97042 19.3302C4.44584 20.3149 4.41804 22.707 5.82179 23.8691C7.1333 24.9572 8.94065 24.7347 10.2187 23.7996C12.1832 22.3614 14.6495 22.2948 16.6357 23.6442C17.3241 24.1124 18.0302 24.455 18.8446 24.5564C20.5348 24.7711 22.1838 23.6699 22.2656 21.6197Z" fill="#10C19F"/>
<path d="M11.569 2.93646C11.4997 4.68345 10.3005 5.85464 8.67469 5.83174C6.95663 5.80762 5.80534 4.64092 5.82146 2.9107C5.83797 1.13673 7.009 0.0595844 8.70047 0.00151523C10.2784 -0.0524646 11.5763 1.34365 11.569 2.93646Z" fill="#10C19F"/>
<path d="M21.2688 2.90219C21.2793 4.49255 19.9919 5.88458 18.4088 5.84328C16.7878 5.80238 15.5402 4.77186 15.5217 2.94472C15.5048 1.27093 16.5839 0.0453445 18.3669 0.0146741C20.035 -0.0143605 21.1871 1.18955 21.2688 2.90219Z" fill="#10C19F"/>
<path d="M5.74963 9.82371C5.68357 11.5621 4.49603 12.7423 2.86014 12.7243C1.15577 12.7051 -0.0092102 11.5519 5.48667e-05 9.80776C0.0113341 8.04933 1.17108 6.90839 2.87343 6.9043C4.60238 6.90389 5.6884 8.16301 5.74963 9.82371Z" fill="#10C19F"/>
<path d="M27.0888 9.80744C27.0332 11.5172 25.8852 12.7268 24.2146 12.7244C22.5586 12.7219 21.3461 11.6154 21.3408 9.8238C21.336 8.11239 22.4506 6.92442 24.1989 6.90643C25.8924 6.88925 27.0163 8.11607 27.0888 9.80744Z" fill="#10C19F"/>
</svg>
