<svg width="28" height="28" viewBox="0 0 28 28" fill="none" xmlns="http://www.w3.org/2000/svg">
<g clip-path="url(#clip0_15_570)">
<path d="M27.125 8.75069H0.87505C0.392031 8.75069 7.24792e-05 8.35866 7.24792e-05 7.87571C7.24792e-05 7.39269 0.392103 7.00073 0.87505 7.00073H27.125C27.608 7.00073 28 7.39276 28 7.87571C28 8.35866 27.608 8.75069 27.125 8.75069Z" fill="#030303"/>
<path d="M0.87505 13.125H27.125C27.608 13.125 28 13.517 28 14C28 14.4829 27.608 14.8749 27.125 14.8749H0.87505C0.392031 14.8749 7.24792e-05 14.4829 7.24792e-05 14C7.24792e-05 13.517 0.392031 13.125 0.87505 13.125Z" fill="#030303"/>
<path d="M0.874798 19.251H18.3748C18.8578 19.251 19.2498 19.643 19.2498 20.126C19.2498 20.609 18.8577 21.0009 18.3748 21.0009H0.874798C0.391779 21.0009 -0.000179291 20.6089 -0.000179291 20.126C-0.00025177 19.6429 0.391779 19.251 0.874798 19.251Z" fill="#030303"/>
</g>
<defs>
<clipPath id="clip0_15_570">
<rect width="28" height="28" fill="white" transform="matrix(-1 0 0 1 28 0)"/>
</clipPath>
</defs>
</svg>
