<svg width="21" height="34" viewBox="0 0 21 34" fill="none" xmlns="http://www.w3.org/2000/svg">
<path d="M18.0164 3.901H2.23145V27.1284H18.0164V3.901Z" fill="#D0FFF6"/>
<path d="M13.2037 10.531H7.79615C6.79865 10.531 5.99365 11.3542 5.99365 12.3742V17.9036C5.99365 18.9236 6.79865 19.7468 7.79615 19.7468H13.2037C14.2012 19.7468 15.0062 18.9236 15.0062 17.9036V12.3742C15.0062 11.3542 14.2012 10.531 13.2037 10.531Z" fill="url(#paint0_linear_264_902)"/>
<path d="M14.2625 27.6027H6.66748V32.2821H14.2625V27.6027Z" fill="#FFFFB3"/>
<path d="M17.5 0H3.5C1.56625 0 0 1.60158 0 3.57895V30.4211C0 32.3984 1.56625 34 3.5 34H17.5C19.4338 34 21 32.3984 21 30.4211V3.57895C21 1.60158 19.4338 0 17.5 0ZM11.375 31.7632H9.625C8.6625 31.7632 7.875 30.9579 7.875 29.9737C7.875 28.9895 8.6625 28.1842 9.625 28.1842H11.375C12.3375 28.1842 13.125 28.9895 13.125 29.9737C13.125 30.9579 12.3375 31.7632 11.375 31.7632ZM17.5 25.0526C17.5 25.5447 17.1063 25.9474 16.625 25.9474H4.375C3.89375 25.9474 3.5 25.5447 3.5 25.0526V6.26316C3.5 5.77105 3.89375 5.36842 4.375 5.36842H16.625C17.1063 5.36842 17.5 5.77105 17.5 6.26316V25.0526Z" fill="#009097"/>
<path d="M10.5613 17.7337V18.2706C10.5613 18.3064 10.5613 18.3332 10.5525 18.36C10.5438 18.3869 10.535 18.4137 10.5175 18.4406C10.5 18.4674 10.4825 18.4853 10.4563 18.4943C10.43 18.5032 10.4038 18.5121 10.3688 18.5121C10.3338 18.5121 10.3075 18.5032 10.2813 18.4943C10.255 18.4853 10.2375 18.4585 10.22 18.4406C10.2025 18.4137 10.1938 18.3869 10.185 18.36C10.1763 18.3332 10.1763 18.2974 10.1763 18.2706V17.7337H8.87252C8.81127 17.7337 8.75002 17.7248 8.69752 17.6979C8.64502 17.6711 8.59252 17.6443 8.55752 17.5995C8.52252 17.5548 8.48752 17.51 8.46127 17.4564C8.43502 17.4027 8.42627 17.34 8.42627 17.2774V12.9558C8.42627 12.8932 8.43502 12.8306 8.46127 12.7769C8.48752 12.7232 8.51377 12.6695 8.55752 12.6337C8.60127 12.5979 8.64502 12.5621 8.69752 12.5353C8.75002 12.5085 8.81127 12.4995 8.87252 12.4995H10.1763V12.0253C10.1763 11.9895 10.1763 11.9627 10.185 11.9269C10.1938 11.8911 10.2025 11.8732 10.22 11.8464C10.2375 11.8195 10.255 11.8016 10.2813 11.7927C10.3075 11.7837 10.3338 11.7748 10.3688 11.7748C10.4038 11.7748 10.43 11.7837 10.4563 11.7927C10.4825 11.8016 10.5 11.8285 10.5175 11.8464C10.535 11.8732 10.5438 11.9 10.5613 11.9269C10.5788 11.9537 10.5788 11.9895 10.5788 12.0253V12.4995C10.7275 12.4995 10.8763 12.5085 11.025 12.5264C11.1738 12.5443 11.3138 12.5621 11.445 12.6069C11.5763 12.6516 11.7075 12.6964 11.8213 12.759C11.935 12.8216 12.04 12.9021 12.1188 13.0006C12.1975 13.099 12.2675 13.2153 12.32 13.3585C12.3725 13.5016 12.39 13.6537 12.39 13.8416C12.39 14.1011 12.3463 14.3158 12.2588 14.4948C12.1713 14.6827 12.0313 14.8348 11.8475 14.9511C11.97 15.0048 12.0838 15.0764 12.1713 15.1569C12.2675 15.2374 12.3463 15.3358 12.4163 15.4432C12.4863 15.5506 12.53 15.6669 12.565 15.7921C12.6 15.9174 12.6175 16.0516 12.6175 16.1948C12.6175 16.32 12.6 16.4543 12.565 16.5795C12.53 16.7048 12.4863 16.83 12.425 16.9464C12.3638 17.0627 12.285 17.17 12.1888 17.2685C12.0925 17.3669 11.9875 17.4564 11.865 17.5279C11.7425 17.5995 11.6025 17.6621 11.4538 17.6979C11.305 17.7337 11.1388 17.7606 10.9638 17.7606H10.5613V17.7337ZM10.1588 14.6469V13.2869H9.30127V14.6469H10.1588ZM10.1588 16.9464V15.4432H9.30127V16.9464H10.1588ZM11.48 13.9579C11.48 13.7969 11.4538 13.6627 11.41 13.5732C11.3663 13.4837 11.305 13.4121 11.2175 13.3764C11.13 13.3406 11.0425 13.3048 10.9288 13.2958C10.815 13.2869 10.6925 13.2869 10.5525 13.2869V14.6469C10.8763 14.6379 11.1038 14.5753 11.2525 14.4679C11.4013 14.3606 11.48 14.1816 11.48 13.9579ZM10.5613 15.4432V16.9464H10.8413C10.9813 16.9464 11.095 16.9285 11.2088 16.8927C11.3225 16.8569 11.4013 16.8032 11.4713 16.7316C11.5413 16.66 11.5938 16.5795 11.6375 16.4811C11.6813 16.3827 11.69 16.2664 11.69 16.1411C11.69 15.9979 11.6638 15.8906 11.6025 15.8011C11.5413 15.7116 11.4713 15.64 11.375 15.5864C11.2788 15.5327 11.1738 15.4969 11.0513 15.479C10.9288 15.4611 10.815 15.4521 10.6925 15.4521H10.5613V15.4432Z" fill="white"/>
<defs>
<linearGradient id="paint0_linear_264_902" x1="10.4999" y1="10.6917" x2="10.4999" y2="19.3307" gradientUnits="userSpaceOnUse">
<stop stop-color="#10C19F"/>
<stop offset="1" stop-color="#009097"/>
</linearGradient>
</defs>
</svg>
