<svg width="39" height="40" viewBox="0 0 39 40" fill="none" xmlns="http://www.w3.org/2000/svg">
<path d="M9.10936 19.0695C9.41257 21.8905 9.56418 23.3008 10.4825 24.1505C11.4007 25 12.7736 25 15.5194 25H15.7221H21.7922H23.9792C25.8708 25 26.8165 25 27.584 24.5223C28.3514 24.0447 28.794 23.1807 29.6791 21.4527L33.6587 13.6824C34.5144 12.0117 33.3427 10 31.5138 10H15.7221H15.3402C11.9773 10 10.2959 10 9.3345 11.1103C8.37314 12.2205 8.55884 13.948 8.93021 17.4028L9.10936 19.0695Z" stroke="#10C19F" stroke-width="2" stroke-linejoin="round"/>
<path d="M16.8416 17.3335H24.5809" stroke="#10C19F" stroke-width="2" stroke-linecap="round" stroke-linejoin="round"/>
<path d="M20.7112 13.3335V21.3335" stroke="#10C19F" stroke-width="2" stroke-linecap="round" stroke-linejoin="round"/>
<path d="M4.90991 5H5.7161C6.78703 5 7.6867 5.83237 7.80497 6.93258L9.03045 18.3333" stroke="#10C19F" stroke-width="2" stroke-linecap="round" stroke-linejoin="round"/>
<path d="M14.5842 32.5C14.5842 33.8807 13.5014 35 12.1656 35C10.8299 35 9.74707 33.8807 9.74707 32.5C9.74707 31.1193 10.8299 30 12.1656 30C13.5014 30 14.5842 31.1193 14.5842 32.5Z" stroke="#10C19F" stroke-width="2"/>
<path d="M29.0954 32.5C29.0954 33.8807 28.0125 35 26.6769 35C25.3412 35 24.2583 33.8807 24.2583 32.5C24.2583 31.1193 25.3412 30 26.6769 30C28.0125 30 29.0954 31.1193 29.0954 32.5Z" stroke="#10C19F" stroke-width="2"/>
</svg>
