<svg width="86" height="21" viewBox="0 0 86 21" fill="none" xmlns="http://www.w3.org/2000/svg">
<path d="M0 0H86V21H0L9.84337 10L0 0Z" fill="#10C19F"/>
<path d="M30.5109 15.12C30.0869 15.12 29.6749 15.092 29.2749 15.036C28.8829 14.98 28.5589 14.9 28.3029 14.796V13.704C28.6069 13.824 28.9349 13.916 29.2869 13.98C29.6469 14.044 29.9749 14.076 30.2709 14.076C30.8229 14.076 31.2309 14.028 31.4949 13.932C31.7589 13.828 31.8909 13.616 31.8909 13.296C31.8909 13.064 31.8229 12.888 31.6869 12.768C31.5509 12.648 31.3509 12.544 31.0869 12.456C30.8229 12.36 30.4949 12.248 30.1029 12.12C29.7349 11.992 29.4029 11.852 29.1069 11.7C28.8109 11.548 28.5749 11.356 28.3989 11.124C28.2309 10.892 28.1469 10.6 28.1469 10.248C28.1469 9.68 28.3629 9.232 28.7949 8.904C29.2269 8.568 29.8789 8.4 30.7509 8.4C31.1189 8.4 31.4829 8.428 31.8429 8.484C32.2029 8.54 32.4989 8.608 32.7309 8.688V9.768C32.4669 9.664 32.1709 9.588 31.8429 9.54C31.5229 9.484 31.2229 9.456 30.9429 9.456C30.4789 9.456 30.1069 9.508 29.8269 9.612C29.5469 9.708 29.4069 9.908 29.4069 10.212C29.4069 10.412 29.4789 10.572 29.6229 10.692C29.7669 10.804 29.9709 10.908 30.2349 11.004C30.5069 11.092 30.8309 11.2 31.2069 11.328C31.6309 11.464 31.9869 11.616 32.2749 11.784C32.5629 11.944 32.7789 12.144 32.9229 12.384C33.0749 12.616 33.1509 12.92 33.1509 13.296C33.1509 13.928 32.9109 14.392 32.4309 14.688C31.9589 14.976 31.3189 15.12 30.5109 15.12ZM30.1617 7.536V6.432H29.2137V5.532H31.0617V6.624H33.6537L33.6057 7.536H30.1617ZM36.8817 15V10.92C36.8817 10.592 36.8457 10.32 36.7737 10.104C36.7017 9.888 36.5657 9.728 36.3657 9.624C36.1657 9.512 35.8697 9.456 35.4777 9.456C35.2217 9.456 34.9417 9.484 34.6377 9.54C34.3417 9.596 34.0737 9.672 33.8337 9.768V8.76C34.0737 8.656 34.3617 8.572 34.6977 8.508C35.0417 8.436 35.3857 8.4 35.7297 8.4C36.5937 8.4 37.2177 8.588 37.6017 8.964C37.9937 9.34 38.1897 9.936 38.1897 10.752V15H36.8817ZM41.9269 15.12C41.2309 15.12 40.6869 14.916 40.2949 14.508C39.9109 14.1 39.7189 13.52 39.7189 12.768V8.52H41.0269V12.708C41.0269 13.196 41.1349 13.548 41.3509 13.764C41.5669 13.972 41.9029 14.076 42.3589 14.076C42.7109 14.076 43.0469 14.004 43.3669 13.86C43.6869 13.708 43.9509 13.52 44.1589 13.296V8.52H45.4549V15H44.2669L44.2069 14.292C43.9109 14.54 43.5749 14.74 43.1989 14.892C42.8309 15.044 42.4069 15.12 41.9269 15.12ZM46.9845 15V10.896C46.9845 10.112 47.2205 9.5 47.6925 9.06C48.1645 8.62 48.9085 8.4 49.9245 8.4C50.9485 8.4 51.6885 8.62 52.1445 9.06C52.6085 9.5 52.8405 10.112 52.8405 10.896V15H51.5325V10.776C51.5325 10.32 51.3925 9.988 51.1125 9.78C50.8325 9.564 50.4365 9.456 49.9245 9.456C49.3885 9.456 48.9805 9.564 48.7005 9.78C48.4285 9.988 48.2925 10.32 48.2925 10.776V12.108C48.6445 11.82 49.0645 11.676 49.5525 11.676H50.3325L50.3805 12.72H49.5165C49.0285 12.72 48.6205 12.856 48.2925 13.128V15H46.9845ZM50.0953 7.536V6.432H49.1473V5.532H50.9953V6.624H53.5873L53.5393 7.536H50.0953ZM56.8153 15V10.92C56.8153 10.592 56.7793 10.32 56.7073 10.104C56.6353 9.888 56.4993 9.728 56.2993 9.624C56.0993 9.512 55.8033 9.456 55.4113 9.456C55.1553 9.456 54.8753 9.484 54.5713 9.54C54.2753 9.596 54.0073 9.672 53.7673 9.768V8.76C54.0073 8.656 54.2953 8.572 54.6313 8.508C54.9753 8.436 55.3193 8.4 55.6633 8.4C56.5273 8.4 57.1513 8.588 57.5353 8.964C57.9273 9.34 58.1233 9.936 58.1233 10.752V15H56.8153ZM60.7565 15C60.3165 15 59.9965 14.892 59.7965 14.676C59.5965 14.46 59.4965 14.152 59.4965 13.752V9.78C59.4965 9.38 59.5685 9.044 59.7125 8.772C59.8565 8.5 60.0205 8.272 60.2045 8.088C60.3885 7.896 60.5525 7.724 60.6965 7.572C60.8405 7.412 60.9125 7.244 60.9125 7.068C60.9125 6.836 60.8445 6.68 60.7085 6.6C60.5805 6.52 60.3845 6.48 60.1205 6.48C59.6885 6.48 59.2525 6.6 58.8125 6.84V5.88C59.0525 5.736 59.3285 5.628 59.6405 5.556C59.9605 5.476 60.2685 5.436 60.5645 5.436C61.1325 5.436 61.5565 5.556 61.8365 5.796C62.1165 6.036 62.2565 6.376 62.2565 6.816C62.2565 7.072 62.2045 7.296 62.1005 7.488C62.0045 7.672 61.8845 7.844 61.7405 8.004C61.5965 8.164 61.4525 8.328 61.3085 8.496C61.1645 8.664 61.0405 8.852 60.9365 9.06C60.8405 9.268 60.7925 9.52 60.7925 9.816V13.428C60.7925 13.636 60.8245 13.78 60.8885 13.86C60.9605 13.932 61.1045 13.968 61.3205 13.968H61.8725V15H60.7565ZM63.1798 15V8.52H64.4878V10.56H66.3598C66.8318 10.56 67.1558 10.46 67.3318 10.26C67.5158 10.052 67.6078 9.752 67.6078 9.36V8.52H68.9038V9.324C68.9038 9.724 68.8318 10.076 68.6878 10.38C68.5518 10.684 68.2998 10.904 67.9318 11.04C68.2998 11.168 68.5438 11.372 68.6638 11.652C68.7838 11.924 68.8438 12.244 68.8438 12.612V15H67.5478V12.768C67.5478 12.304 67.4598 11.988 67.2838 11.82C67.1078 11.644 66.7838 11.556 66.3118 11.556H64.4878V15H63.1798ZM73.95 15.12C73.462 15.12 73.034 15.044 72.666 14.892C72.306 14.74 71.978 14.54 71.682 14.292L71.61 15H70.422V8.52H71.73V13.296C71.938 13.52 72.198 13.708 72.51 13.86C72.822 14.004 73.158 14.076 73.518 14.076C73.966 14.076 74.302 13.972 74.526 13.764C74.75 13.548 74.862 13.196 74.862 12.708V8.52H76.158V12.768C76.158 13.52 75.962 14.1 75.57 14.508C75.178 14.916 74.638 15.12 73.95 15.12ZM74.8556 7.524V5.556H76.1636V7.524H74.8556ZM77.5676 13.068L77.4956 9.204V7.272H78.8036V9.204L78.7316 13.068H77.5676ZM77.4476 15V14.016H78.8396V15H77.4476Z" fill="white"/>
<path d="M21 16L21.3333 15.0999L22 14.65L21.3333 14.2002L21 13.3L20.6668 14.2002L20 14.65L20.6668 15.0999L21 16Z" fill="white"/>
<path d="M22.6665 9.99981L24 9.25L22.6665 8.50019L22 7L21.3335 8.50019L20 9.25L21.3335 9.99981L22 11.5L22.6665 9.99981Z" fill="white"/>
<path d="M17.9998 10.9003L17 8.80005L16.0002 10.9003L14 11.95L16.0002 12.9998L17 15.1L17.9998 12.9998L20 11.95L17.9998 10.9003Z" fill="white"/>
</svg>
