<svg width="20" height="20" viewBox="0 0 20 20" fill="none" xmlns="http://www.w3.org/2000/svg">
<path d="M9.91895 4.98413C9.42449 4.98413 8.94114 5.13075 8.53002 5.40546C8.1189 5.68016 7.79847 6.07061 7.60925 6.52742C7.42003 6.98424 7.37052 7.4869 7.46698 7.97186C7.56345 8.45681 7.80155 8.90227 8.15118 9.2519C8.50081 9.60153 8.94627 9.83963 9.43122 9.93609C9.91617 10.0326 10.4188 9.98305 10.8757 9.79383C11.3325 9.60461 11.7229 9.28418 11.9976 8.87306C12.2723 8.46193 12.4189 7.97858 12.4189 7.48413C12.4182 6.82132 12.1546 6.18587 11.6859 5.7172C11.2172 5.24852 10.5818 4.98489 9.91895 4.98413ZM9.91895 8.73413C9.67172 8.73413 9.43005 8.66082 9.22448 8.52347C9.01892 8.38612 8.85871 8.19089 8.7641 7.96249C8.66949 7.73408 8.64473 7.48274 8.69296 7.24027C8.7412 6.99779 8.86025 6.77506 9.03506 6.60025C9.20988 6.42543 9.43261 6.30638 9.67508 6.25815C9.91756 6.20992 10.1689 6.23467 10.3973 6.32928C10.6257 6.42389 10.8209 6.58411 10.9583 6.78967C11.0956 6.99523 11.1689 7.2369 11.1689 7.48413C11.1686 7.81553 11.0367 8.13325 10.8024 8.36759C10.5681 8.60193 10.2503 8.73375 9.91895 8.73413Z" fill="#10C19F"/>
<path d="M14.7227 2.67627C13.5349 1.48879 11.9493 0.783378 10.272 0.69618C8.59474 0.608982 6.94459 1.14618 5.64008 2.2041C4.33556 3.26201 3.46916 4.76565 3.20809 6.4248C2.94701 8.08396 3.30977 9.78101 4.22636 11.1884L8.94929 18.4389C9.05439 18.6003 9.19809 18.7328 9.36738 18.8246C9.53666 18.9163 9.72617 18.9644 9.91872 18.9644C10.1113 18.9644 10.3008 18.9163 10.4701 18.8246C10.6393 18.7328 10.7831 18.6003 10.8882 18.4389L15.6112 11.1884C16.4617 9.88284 16.8376 8.32459 16.6758 6.77485C16.514 5.2251 15.8245 3.77807 14.7227 2.67627ZM14.5639 10.5061L9.91874 17.637L5.27355 10.5061C3.85167 8.32335 4.15663 5.40225 5.99866 3.56014C6.51345 3.04534 7.12459 2.63698 7.7972 2.35837C8.46981 2.07976 9.19071 1.93636 9.91874 1.93636C10.6468 1.93636 11.3677 2.07976 12.0403 2.35837C12.7129 2.63698 13.324 3.04534 13.8388 3.56014C15.6808 5.40225 15.9858 8.32335 14.5639 10.5061Z" fill="#10C19F"/>
</svg>
