<svg width="10" height="12" viewBox="0 0 10 12" fill="none" xmlns="http://www.w3.org/2000/svg">
<path d="M4.07071 11.7579C0.637304 6.82104 0 6.31437 0 4.5C0 2.01471 2.03127 0 4.53698 0C7.0427 0 9.07397 2.01471 9.07397 4.5C9.07397 6.31437 8.43666 6.82104 5.00325 11.7579C4.77794 12.0807 4.296 12.0807 4.07071 11.7579ZM4.53698 6.375C5.58103 6.375 6.42739 5.53554 6.42739 4.5C6.42739 3.46446 5.58103 2.625 4.53698 2.625C3.49293 2.625 2.64657 3.46446 2.64657 4.5C2.64657 5.53554 3.49293 6.375 4.53698 6.375Z" fill="#828282"/>
</svg>
