<svg width="18" height="18" viewBox="0 0 18 18" fill="none" xmlns="http://www.w3.org/2000/svg">
<path d="M17.6699 8.83398C17.6699 9.20981 17.5258 9.57312 17.2564 9.83619C16.9932 10.1055 16.6297 10.2559 16.2538 10.2559H10.5892V15.9184C10.5892 16.2942 10.4388 16.6575 10.1694 16.9206C9.90619 17.1837 9.54902 17.334 9.17305 17.334C8.79709 17.334 8.43365 17.1837 8.17048 16.9206C7.90103 16.6575 7.75064 16.2942 7.75064 15.9184V10.2559H2.08607C1.7101 10.2559 1.34666 10.1055 1.08349 9.83619C0.820309 9.57312 0.669922 9.20981 0.669922 8.83398C0.669922 8.45815 0.820309 8.10112 1.08349 7.83177C1.34666 7.56869 1.7101 7.41836 2.08607 7.41836H7.75064V1.75587C7.75064 1.38004 7.90103 1.01674 8.17048 0.75366C8.43365 0.484316 8.79709 0.333984 9.17305 0.333984C9.54902 0.333984 9.90619 0.484316 10.1694 0.75366C10.4388 1.01674 10.5892 1.38004 10.5892 1.75587V7.41836H16.2538C16.6297 7.41836 16.9932 7.56869 17.2564 7.83177C17.5258 8.10112 17.6699 8.45815 17.6699 8.83398Z" fill="#10C19F"/>
</svg>
