<svg width="34" height="32" viewBox="0 0 34 32" fill="none" xmlns="http://www.w3.org/2000/svg">
<g clip-path="url(#clip0_237_3047)">
<path d="M10.6306 26.0072H10.1652C8.21683 26.0072 6.26921 26.0166 4.32088 26.0072C2.41086 25.9951 1.05001 25.1509 0.327009 23.4753C0.120359 22.9757 0.0149254 22.4436 0.0162407 21.9068C-0.00504475 15.9828 -0.00882694 10.0587 0.00489038 4.13466C0.00489038 1.7785 1.93335 0.010701 4.48406 0.0100279C11.8157 0.0100279 19.1474 0.0100279 26.4791 0.0100279C27.5185 0.0100279 28.5572 -0.000739863 29.596 0.0133971C30.3942 0.0241681 31.1697 0.160154 31.8721 0.545217C33.3032 1.32948 33.9787 2.55334 33.9843 4.07743C34.0066 10.0136 34.0085 15.9498 33.99 21.886C33.99 23.6706 32.8938 25.1846 31.2066 25.7103C30.6651 25.8639 30.1022 25.9386 29.5371 25.9318C26.55 25.9534 23.563 25.9372 20.5759 25.952C20.3237 25.9589 20.0795 26.0375 19.8749 26.1775C17.2733 28.0198 14.6808 29.8718 12.0972 31.7333C11.7978 31.9488 11.4976 32.0975 11.1223 31.9286C10.7243 31.7488 10.6313 31.4122 10.6313 31.0346C10.6313 29.4997 10.6313 27.9653 10.6313 26.4313L10.6306 26.0072ZM12.8081 28.984C12.9458 28.8945 13.021 28.8494 13.0919 28.7969C14.9806 27.4505 16.8751 26.1176 18.7517 24.7578C19.2539 24.3768 19.8829 24.1787 20.5255 24.199C20.832 24.2064 21.1392 24.199 21.4479 24.199C24.1994 24.199 26.9509 24.199 29.7024 24.199C30.209 24.199 30.6844 24.1256 31.1044 23.8247C31.7217 23.3831 31.965 22.7941 31.9629 22.0744C31.9551 19.1286 31.9629 16.182 31.9629 13.2362C31.9629 10.2113 31.9629 7.18666 31.9629 4.16226C31.9629 3.65736 31.882 3.18277 31.5372 2.77279C31.0491 2.18779 30.402 1.99325 29.6357 1.99392C21.2634 2.002 12.8911 2.00379 4.51883 1.9993C4.40034 1.9993 4.28256 1.9993 4.16407 2.00468C3.87442 2.01308 3.59007 2.08049 3.33029 2.20233C3.07051 2.32418 2.84139 2.49761 2.65848 2.71087C2.27038 3.14036 2.17814 3.63986 2.17814 4.18111C2.18097 10.1177 2.18097 16.0548 2.17814 21.9923C2.17814 23.4296 2.98344 24.197 4.49045 24.1984C6.58069 24.1984 8.67163 24.2192 10.7612 24.193C12.6279 24.1694 12.8535 24.3599 12.8102 26.1223C12.7897 27.054 12.8081 27.9837 12.8081 28.984Z" fill="#848484"/>
<path d="M20.8945 19.6914C20.613 19.6909 20.3359 19.6256 20.087 19.5009L17.0702 17.9956L14.0526 19.5009C13.767 19.6445 13.4446 19.7089 13.1223 19.6867C12.7999 19.6646 12.4907 19.5568 12.2299 19.3757C11.9675 19.1963 11.7638 18.9504 11.6419 18.6662C11.5201 18.382 11.4851 18.071 11.5409 17.7688L12.1178 14.5812L9.67561 12.3233C9.44338 12.1102 9.27914 11.8392 9.20171 11.5416C9.12429 11.2439 9.13681 10.9316 9.23784 10.6404C9.33646 10.3482 9.51991 10.0883 9.76715 9.89048C10.0144 9.6927 10.3154 9.56506 10.6356 9.52221L14.0093 9.05704L15.5178 6.15627C15.6599 5.88065 15.8809 5.64858 16.1556 5.48666C16.4303 5.32473 16.7475 5.2395 17.0709 5.24074C17.3942 5.23947 17.7113 5.32469 17.9859 5.48663C18.2605 5.64856 18.4814 5.88065 18.6233 6.15627L20.1317 9.05704L23.5048 9.52221C23.825 9.56517 24.1261 9.69284 24.3734 9.89059C24.6207 10.0883 24.8043 10.3482 24.9032 10.6404C25.004 10.9317 25.0163 11.244 24.9388 11.5416C24.8612 11.8392 24.697 12.1102 24.4648 12.3233L22.0212 14.5812L22.5973 17.7688C22.6532 18.071 22.6181 18.382 22.4963 18.6662C22.3745 18.9504 22.1707 19.1963 21.9084 19.3757C21.614 19.5798 21.2591 19.6903 20.8945 19.6914ZM17.0702 15.9276C17.351 15.9275 17.6276 15.9922 17.8762 16.1161L20.3666 17.3581L19.8926 14.7273C19.8456 14.4653 19.8662 14.1964 19.9527 13.9436C20.0392 13.6908 20.189 13.4617 20.3893 13.2759L22.4043 11.4125L19.6202 11.0288C19.3422 10.9908 19.0782 10.8891 18.851 10.7325C18.6237 10.5759 18.4402 10.3692 18.3161 10.1301L17.0709 7.73625L15.8257 10.1301C15.7015 10.369 15.5179 10.5757 15.2907 10.7323C15.0635 10.8889 14.7995 10.9906 14.5216 11.0288L11.7368 11.4125L13.7518 13.2759C13.9527 13.462 14.103 13.6916 14.1895 13.9451C14.276 14.1985 14.2963 14.4681 14.2484 14.7307L13.7731 17.3615L16.2635 16.1195C16.5119 15.9941 16.7888 15.9283 17.0702 15.9276Z" fill="#848484"/>
</g>
<defs>
<clipPath id="clip0_237_3047">
<rect width="34" height="32" fill="white"/>
</clipPath>
</defs>
</svg>
