<svg width="50" height="23" viewBox="0 0 50 23" fill="none" xmlns="http://www.w3.org/2000/svg">
<rect y="2" width="49" height="18" rx="2" fill="#10C19F"/>
<path d="M9.59 14.1C8.79 14.1 8.14333 14 7.65 13.8V13.07C7.93 13.1767 8.22667 13.26 8.54 13.32C8.86 13.3733 9.18667 13.4 9.52 13.4C10.0933 13.4 10.5233 13.3233 10.81 13.17C11.0967 13.01 11.24 12.7267 11.24 12.32C11.24 12.0667 11.18 11.8667 11.06 11.72C10.9467 11.5667 10.7567 11.44 10.49 11.34C10.2233 11.2333 9.86667 11.1267 9.42 11.02C8.71333 10.8467 8.21667 10.6233 7.93 10.35C7.64333 10.07 7.5 9.69667 7.5 9.23C7.5 8.68333 7.69667 8.25333 8.09 7.94C8.48333 7.62 9.08333 7.46 9.89 7.46C10.2633 7.46 10.61 7.48667 10.93 7.54C11.25 7.59333 11.4967 7.65 11.67 7.71V8.43C11.43 8.34333 11.17 8.27667 10.89 8.23C10.61 8.18333 10.32 8.16 10.02 8.16C9.47333 8.16 9.05333 8.24 8.76 8.4C8.46667 8.56 8.32 8.83667 8.32 9.23C8.32 9.45 8.37 9.63 8.47 9.77C8.57667 9.90333 8.75333 10.02 9 10.12C9.24667 10.2133 9.59 10.3133 10.03 10.42C10.5567 10.5467 10.9667 10.7 11.26 10.88C11.5533 11.0533 11.76 11.26 11.88 11.5C12 11.74 12.06 12.0133 12.06 12.32C12.06 12.8867 11.8533 13.3267 11.44 13.64C11.0267 13.9467 10.41 14.1 9.59 14.1ZM13.2566 14V7.26H14.0766V9.77C14.2966 9.59 14.5533 9.44333 14.8466 9.33C15.1466 9.21667 15.4933 9.16 15.8866 9.16C16.46 9.16 16.89 9.3 17.1766 9.58C17.4633 9.86 17.6066 10.3 17.6066 10.9V14H16.7866V10.93C16.7866 10.5167 16.6933 10.23 16.5066 10.07C16.3266 9.90333 16.0266 9.82 15.6066 9.82C15.34 9.82 15.0633 9.88 14.7766 10C14.4966 10.1133 14.2633 10.2633 14.0766 10.45V14H13.2566ZM20.2833 14.1C19.9833 14.1 19.7066 14.0467 19.4533 13.94C19.1999 13.8333 18.9966 13.6767 18.8433 13.47C18.6899 13.2567 18.6133 12.99 18.6133 12.67C18.6133 12.2367 18.7566 11.8833 19.0433 11.61C19.3299 11.33 19.7966 11.19 20.4433 11.19H22.0933V10.9C22.0933 10.64 22.0566 10.4333 21.9833 10.28C21.9166 10.1267 21.7866 10.0167 21.5933 9.95C21.3999 9.88333 21.1166 9.85 20.7433 9.85C20.4566 9.85 20.1799 9.87333 19.9133 9.92C19.6466 9.96667 19.3966 10.03 19.1633 10.11V9.43C19.3766 9.35 19.6266 9.28667 19.9133 9.24C20.2066 9.18667 20.5199 9.16 20.8533 9.16C21.5266 9.16 22.0299 9.29667 22.3633 9.57C22.7033 9.84333 22.8733 10.2867 22.8733 10.9V14H22.1833L22.1233 13.46C21.9166 13.6733 21.6666 13.8333 21.3733 13.94C21.0799 14.0467 20.7166 14.1 20.2833 14.1ZM20.4933 13.43C20.8399 13.43 21.1466 13.37 21.4133 13.25C21.6799 13.1233 21.9066 12.9533 22.0933 12.74V11.82H20.4633C20.0899 11.82 19.8233 11.89 19.6633 12.03C19.5033 12.17 19.4233 12.3833 19.4233 12.67C19.4233 12.9567 19.5199 13.1567 19.7133 13.27C19.9066 13.3767 20.1666 13.43 20.4933 13.43ZM24.2234 14V9.26H24.9634L25.0234 9.86C25.2568 9.70667 25.5301 9.56667 25.8434 9.44C26.1634 9.31333 26.4768 9.22 26.7834 9.16V9.8C26.5968 9.84 26.3934 9.89667 26.1734 9.97C25.9534 10.0367 25.7434 10.1133 25.5434 10.2C25.3434 10.2867 25.1768 10.3767 25.0434 10.47V14H24.2234ZM29.8152 14.1C28.9685 14.1 28.3352 13.8967 27.9152 13.49C27.4952 13.0833 27.2852 12.4567 27.2852 11.61C27.2852 10.85 27.4652 10.2533 27.8252 9.82C28.1918 9.38 28.7685 9.16 29.5552 9.16C30.0218 9.16 30.4052 9.24667 30.7052 9.42C31.0118 9.58667 31.2385 9.82 31.3852 10.12C31.5385 10.4133 31.6152 10.7467 31.6152 11.12V12.01H28.1052C28.1318 12.37 28.2085 12.6533 28.3352 12.86C28.4685 13.0667 28.6652 13.2167 28.9252 13.31C29.1918 13.3967 29.5418 13.44 29.9752 13.44C30.4618 13.44 30.9085 13.3567 31.3152 13.19V13.83C31.1085 13.9167 30.8752 13.9833 30.6152 14.03C30.3618 14.0767 30.0952 14.1 29.8152 14.1ZM28.1052 11.42H30.8852V11.03C30.8852 10.6433 30.7818 10.3467 30.5752 10.14C30.3752 9.92667 30.0418 9.82 29.5752 9.82C29.0085 9.82 28.6218 9.95333 28.4152 10.22C28.2085 10.4867 28.1052 10.8867 28.1052 11.42Z" fill="white"/>
<path d="M42.8702 9.46618L40.1201 7.09142C39.8794 6.88353 39.5 7.0523 39.5 7.37523V8.62606C36.9902 8.65479 35 9.15781 35 11.5363C35 12.4964 35.6185 13.4474 36.3021 13.9446C36.5154 14.0998 36.8194 13.9051 36.7408 13.6535C36.0323 11.3877 37.0768 10.7862 39.5 10.7513V12.125C39.5 12.4484 39.8797 12.6164 40.1201 12.4088L42.8702 10.0338C43.0432 9.8844 43.0434 9.61579 42.8702 9.46618Z" fill="white"/>
</svg>
