<svg width="22" height="19" viewBox="0 0 22 19" fill="none" xmlns="http://www.w3.org/2000/svg">
<path d="M20.45 6.95042L20.45 6.95039L14.0743 1.55322C13.2112 0.82248 11.8136 1.3943 11.8136 2.57985V4.9309C9.08382 4.9918 6.56531 5.31383 4.68607 6.28269C3.67888 6.80196 2.8441 7.51244 2.2645 8.47393C1.68531 9.43473 1.38086 10.6131 1.38086 12.0369C1.38086 14.4176 2.92631 16.7174 4.60929 17.9174C5.04272 18.2265 5.56603 18.1816 5.93187 17.947C6.30378 17.7086 6.5645 17.2344 6.39301 16.6968C5.58642 14.1681 5.85555 12.8079 6.72756 12.0205C7.19009 11.6028 7.8751 11.2906 8.82126 11.0808C9.64797 10.8975 10.6454 10.7987 11.8136 10.7638V13.3748C11.8136 14.5626 13.2127 15.1308 14.0743 14.4014C14.0743 14.4014 14.0743 14.4014 14.0743 14.4014L20.45 9.00367L20.45 9.00366C21.0867 8.46457 21.0877 7.49035 20.45 6.95042Z" stroke="black"/>
</svg>
