<svg width="43" height="33" viewBox="0 0 43 33" fill="none" xmlns="http://www.w3.org/2000/svg">
<g clip-path="url(#clip0_237_3024)">
<path d="M4.24566 18.5949H6.35206V22.1903C6.48551 22.0985 6.5633 22.0485 6.63751 21.9934C8.88633 20.3185 12.0507 20.206 14.3959 21.7437C15.4473 22.4325 16.2157 23.3641 16.7171 24.4879C16.8123 24.7015 16.9266 24.7778 17.1749 24.7749C19.9342 24.7652 22.6935 24.7686 25.4527 24.7686H25.8118V24.4403C25.8118 17.7144 25.8118 10.9886 25.8118 4.26308C25.8118 3.36423 25.4862 2.64847 24.615 2.25816C24.2959 2.12478 23.9511 2.0575 23.603 2.06071C18.5932 2.04885 13.5828 2.04674 8.57216 2.0544C7.4268 2.0544 6.53756 2.81665 6.39095 3.9032C6.36702 4.07539 6.42447 4.25792 6.42626 4.43528C6.43105 5.00926 6.42626 5.5798 6.42626 6.19511H6.78531C9.81327 6.19511 12.8412 6.19511 15.8692 6.19511C16.0183 6.19195 16.1673 6.20214 16.3144 6.22553C16.853 6.32483 17.1689 6.69046 17.1779 7.20704C17.1869 7.72363 16.8476 8.11279 16.3054 8.21323C16.1879 8.23302 16.0687 8.24224 15.9494 8.24078C11.038 8.24078 6.12726 8.24078 1.2171 8.24078C0.546278 8.24078 0.169279 7.99742 0.0352353 7.48887C-0.154461 6.77196 0.309307 6.20601 1.11237 6.19568C2.04889 6.18363 2.9854 6.19281 3.92131 6.19281H4.28455C4.28455 5.81169 4.26899 5.4518 4.28455 5.09306C4.31746 4.45594 4.28455 3.8016 4.43176 3.18686C4.87338 1.31109 6.59622 0.0110173 8.61466 0.00585146C13.6054 -0.00715882 18.5957 -0.00715882 23.5857 0.00585146C26.023 0.0121653 27.911 1.86211 27.9337 4.21946C27.9403 4.86634 27.9337 5.51379 27.9337 6.19281H28.2826C29.5872 6.19281 30.8923 6.19741 32.1968 6.19281C33.2811 6.18765 34.1644 6.57796 34.8645 7.3735C36.6119 9.35871 38.363 11.3409 40.118 13.32C40.632 13.9008 40.8468 14.5747 40.8462 15.3289C40.8427 18.3473 40.8427 21.3661 40.8462 24.3852V24.7692C41.1975 24.7692 41.532 24.7635 41.8635 24.7692C42.4326 24.7807 42.8114 25.0332 42.9347 25.4723C43.1441 26.2185 42.6792 26.8045 41.8504 26.8132C40.9139 26.8235 39.978 26.8132 39.0415 26.8132H38.689C38.6226 28.7796 37.8674 30.4149 36.2774 31.6518C35.0859 32.5788 33.6946 33.0139 32.1783 32.9932C28.7637 32.9479 25.8812 30.4677 25.7837 26.8321H17.1456C17.0576 27.3487 17.0044 27.8653 16.8793 28.3595C16.5694 29.6043 15.8529 30.7215 14.8345 31.5484C13.8161 32.3752 12.5489 32.8684 11.2177 32.9559C8.54105 33.1281 6.47712 32.1059 5.07385 29.9138C4.48322 28.9914 4.23129 27.9542 4.22411 26.8792C4.20616 24.1757 4.21694 21.4722 4.21694 18.7688C4.2325 18.7165 4.24027 18.6626 4.24566 18.5949ZM10.7486 30.9613C13.0824 30.9556 15.0494 29.0672 15.0523 26.8286C15.0523 24.601 13.074 22.696 10.7492 22.692C8.42436 22.6879 6.43704 24.5861 6.43106 26.8137C6.42507 29.0637 8.407 30.9671 10.7486 30.9613ZM32.2537 30.9613C34.5875 30.9613 36.5568 29.0833 36.57 26.8424C36.5832 24.6171 34.6066 22.7057 32.28 22.6931C29.9534 22.6805 27.9415 24.5964 27.9493 26.8315C27.9571 29.0666 29.9211 30.959 32.2537 30.9613ZM27.9786 16.5113V22.1714C28.0845 22.0916 28.1534 22.0376 28.2246 21.9865C30.2113 20.5665 32.3775 20.2761 34.6802 21.1181C36.3869 21.7426 37.5317 22.9548 38.2611 24.5396C38.3646 24.7652 38.4873 24.8151 38.7027 24.7422V16.5113H27.9786ZM38.3664 14.4387C38.3114 14.3663 38.2904 14.3342 38.2647 14.3061C36.5568 12.4146 34.8488 10.5237 33.1405 8.63339C33.028 8.50529 32.8864 8.40357 32.7265 8.33602C32.5667 8.26847 32.3929 8.23688 32.2184 8.24366C30.8941 8.24882 29.5692 8.24366 28.2449 8.24366H27.9714V14.4369L38.3664 14.4387Z" fill="#848484"/>
<path d="M10.7481 12.3728C8.2886 12.3728 5.82893 12.3728 3.36906 12.3728C2.70123 12.3728 2.32603 12.1272 2.19259 11.6146C2.02803 10.9832 2.37211 10.4638 3.04353 10.3484C3.16228 10.3307 3.28244 10.3232 3.40257 10.326C8.30236 10.326 13.2022 10.326 18.1019 10.326C18.2114 10.3239 18.3209 10.3304 18.4293 10.3455C18.9978 10.4385 19.3383 10.8168 19.3395 11.3488C19.3407 11.8809 18.9906 12.2626 18.4275 12.3527C18.2992 12.3698 18.1697 12.3765 18.0403 12.3728C15.6092 12.3736 13.1784 12.3736 10.7481 12.3728Z" fill="#848484"/>
<path d="M8.58892 14.4525C11.0189 14.4525 13.4488 14.4525 15.8788 14.4525C16.0279 14.4492 16.1769 14.4596 16.324 14.4835C16.8626 14.5833 17.1773 14.9501 17.1851 15.4661C17.1929 15.9821 16.8536 16.3707 16.3108 16.4706C16.1933 16.4907 16.0741 16.4999 15.9548 16.4981C11.0454 16.4981 6.13585 16.4981 1.22609 16.4981C0.554673 16.4981 0.177673 16.2559 0.0424318 15.7479C-0.125722 15.1166 0.216569 14.5925 0.880207 14.476C1.01878 14.4556 1.15896 14.4472 1.29909 14.4507C3.72904 14.4511 6.15898 14.4517 8.58892 14.4525Z" fill="#848484"/>
</g>
<defs>
<clipPath id="clip0_237_3024">
<rect width="43" height="33" fill="white"/>
</clipPath>
</defs>
</svg>
