<svg width="20" height="16" viewBox="0 0 20 16" fill="none" xmlns="http://www.w3.org/2000/svg">
<path d="M1.9746 8.565H2.95432V10.2211C3.01639 10.1788 3.05257 10.1558 3.08709 10.1304C4.13305 9.35893 5.60486 9.30711 6.69564 10.0154C7.18467 10.3326 7.54204 10.7617 7.77529 11.2794C7.81954 11.3777 7.8727 11.4129 7.98821 11.4116C9.27159 11.4071 10.555 11.4087 11.8384 11.4087H12.0054V11.2574C12.0054 8.15944 12.0054 5.06152 12.0054 1.96369C12.0054 1.54967 11.8539 1.21999 11.4487 1.04021C11.3003 0.978778 11.1399 0.947787 10.978 0.949266C8.64785 0.943802 6.31748 0.942833 3.98692 0.946358C3.4542 0.946358 3.0406 1.29745 2.97241 1.79793C2.96128 1.87724 2.988 1.96131 2.98884 2.04301C2.99106 2.30739 2.98884 2.57018 2.98884 2.8536H3.15583C4.56419 2.8536 5.97254 2.8536 7.38089 2.8536C7.45023 2.85214 7.51955 2.85683 7.58797 2.86761C7.83847 2.91334 7.98542 3.08176 7.9896 3.3197C7.99377 3.55764 7.83596 3.73689 7.5838 3.78316C7.52913 3.79227 7.47368 3.79651 7.41819 3.79584C5.13383 3.79584 2.84976 3.79584 0.565967 3.79584C0.253958 3.79584 0.0786097 3.68375 0.0162636 3.44951C-0.0719672 3.1193 0.143739 2.85862 0.517259 2.85386C0.952846 2.84831 1.38843 2.85254 1.82374 2.85254H1.99269C1.99269 2.67699 1.98545 2.51122 1.99269 2.34599C2.008 2.05252 1.99269 1.75113 2.06116 1.46798C2.26657 0.603985 3.06788 0.0051649 4.00669 0.00278548C6.32797 -0.00320714 8.64906 -0.00320714 10.97 0.00278548C12.1036 0.00569366 12.9817 0.85779 12.9923 1.9436C12.9954 2.24155 12.9923 2.53978 12.9923 2.85254H13.1546C13.7613 2.85254 14.3684 2.85465 14.9751 2.85254C15.4795 2.85016 15.8903 3.02994 16.2159 3.39637C17.0287 4.31077 17.8432 5.22376 18.6594 6.13534C18.8985 6.4029 18.9984 6.71328 18.9981 7.06067C18.9965 8.45096 18.9965 9.84142 18.9981 11.2321V11.4089C19.1615 11.4089 19.3171 11.4063 19.4713 11.4089C19.736 11.4142 19.9122 11.5305 19.9695 11.7328C20.0669 12.0765 19.8507 12.3464 19.4652 12.3504C19.0296 12.3551 18.5943 12.3504 18.1587 12.3504H17.9948C17.9639 13.2562 17.6126 14.0094 16.8731 14.5791C16.3189 15.0061 15.6718 15.2065 14.9665 15.197C13.3784 15.1761 12.0376 14.0337 11.9923 12.3591H7.97457C7.93365 12.5971 7.90888 12.835 7.85071 13.0626C7.70655 13.636 7.37333 14.1506 6.89964 14.5315C6.42595 14.9123 5.83657 15.1395 5.21743 15.1798C3.97246 15.2591 3.01249 14.7882 2.35981 13.7786C2.08509 13.3537 1.96792 12.876 1.96458 12.3808C1.95623 11.1356 1.96124 9.89033 1.96124 8.6451C1.96848 8.62104 1.9721 8.59619 1.9746 8.565ZM4.99922 14.2611C6.08471 14.2584 6.99958 13.3886 7.00097 12.3575C7.00097 11.3315 6.08081 10.454 4.9995 10.4521C3.91818 10.4503 2.99385 11.3246 2.99106 12.3507C2.98828 13.387 3.91011 14.2637 4.99922 14.2611ZM15.0016 14.2611C16.0871 14.2611 17.0031 13.396 17.0092 12.3639C17.0153 11.3389 16.096 10.4585 15.0138 10.4527C13.9317 10.4469 12.9959 11.3294 12.9995 12.3588C13.0032 13.3883 13.9167 14.26 15.0016 14.2611ZM13.0132 7.6053V10.2123C13.0625 10.1756 13.0945 10.1507 13.1276 10.1272C14.0516 9.47314 15.0592 9.33937 16.1302 9.72721C16.924 10.0149 17.4565 10.5732 17.7957 11.3032C17.8439 11.4071 17.901 11.4301 18.0012 11.3965V7.6053H13.0132ZM17.8447 6.65062C17.8191 6.61731 17.8094 6.6025 17.7974 6.58955C17.0031 5.71833 16.2086 4.84737 15.4141 3.97668C15.3617 3.91768 15.2959 3.87083 15.2215 3.83971C15.1472 3.8086 15.0663 3.79405 14.9852 3.79717C14.3692 3.79955 13.753 3.79717 13.137 3.79717H13.0099V6.64983L17.8447 6.65062Z" fill="#10C19F"/>
<path d="M4.99873 5.69914C3.85479 5.69914 2.71075 5.69914 1.56663 5.69914C1.25601 5.69914 1.0815 5.58598 1.01943 5.34989C0.942893 5.05908 1.10293 4.81981 1.41522 4.76667C1.47045 4.75854 1.52634 4.75509 1.58222 4.75636C3.86119 4.75636 6.14016 4.75636 8.41913 4.75636C8.47005 4.75538 8.52097 4.75838 8.57138 4.76535C8.83579 4.80818 8.99416 4.98241 8.99472 5.22749C8.99528 5.47257 8.83245 5.64838 8.57054 5.68989C8.51089 5.69774 8.45065 5.70083 8.39046 5.69914C7.2597 5.69949 6.12912 5.69949 4.99873 5.69914Z" fill="#10C19F"/>
<path d="M3.99485 6.65692C5.12506 6.65692 6.25527 6.65692 7.38547 6.65692C7.45482 6.65542 7.52416 6.6602 7.59255 6.67119C7.84305 6.7172 7.98945 6.88613 7.99307 7.12381C7.99669 7.36149 7.83887 7.54047 7.58643 7.58648C7.53178 7.59574 7.47632 7.59999 7.42082 7.59917C5.1374 7.59917 2.85388 7.59917 0.570274 7.59917C0.257987 7.59917 0.0826384 7.4876 0.0197357 7.25362C-0.0584752 6.9628 0.10073 6.72143 0.409398 6.66776C0.473849 6.65838 0.539051 6.65449 0.60423 6.65612C1.73444 6.6563 2.86464 6.65656 3.99485 6.65692Z" fill="#10C19F"/>
</svg>
