<svg width="31" height="30" viewBox="0 0 31 30" fill="none" xmlns="http://www.w3.org/2000/svg">
<path d="M21.9961 11H21.0508V6.43359L19.6562 6.91016V6.10938L21.875 5.29297H21.9961V11ZM27.7969 11H23.9727V10.3477L25.8672 8.28125C26.1406 7.97656 26.3346 7.72266 26.4492 7.51953C26.5664 7.3138 26.625 7.10807 26.625 6.90234C26.625 6.63151 26.5482 6.41276 26.3945 6.24609C26.2435 6.07943 26.0391 5.99609 25.7812 5.99609C25.474 5.99609 25.2357 6.08984 25.0664 6.27734C24.8971 6.46484 24.8125 6.72135 24.8125 7.04688H23.8633C23.8633 6.70052 23.9414 6.38932 24.0977 6.11328C24.2565 5.83464 24.4818 5.61849 24.7734 5.46484C25.0677 5.3112 25.4062 5.23438 25.7891 5.23438C26.3411 5.23438 26.776 5.3737 27.0938 5.65234C27.4141 5.92839 27.5742 6.3112 27.5742 6.80078C27.5742 7.08464 27.4935 7.38281 27.332 7.69531C27.1732 8.00521 26.9115 8.35807 26.5469 8.75391L25.1562 10.2422H27.7969V11Z" fill="white"/>
<path d="M24 6H10C8.89543 6 8 6.89543 8 8V9.17157C8 9.70201 8.21071 10.2107 8.58579 10.5858L14.4142 16.4142C14.7893 16.7893 15 17.298 15 17.8284V23V23.2857C15 23.9183 15.7649 24.2351 16.2122 23.7878L17 23L18.4142 21.5858C18.7893 21.2107 19 20.702 19 20.1716V17.8284C19 17.298 19.2107 16.7893 19.5858 16.4142L25.4142 10.5858C25.7893 10.2107 26 9.70201 26 9.17157V8C26 6.89543 25.1046 6 24 6Z" stroke="black" stroke-width="2" stroke-linecap="round" stroke-linejoin="round"/>
</svg>
