<svg width="65" height="12" viewBox="0 0 65 12" fill="none" xmlns="http://www.w3.org/2000/svg">
<path d="M6.0003 9.94989L2.29261 12L3.00075 7.65853L0 4.58337L4.14555 3.94989L6.0003 0L7.85445 3.94989L12 4.58337L8.99985 7.65853L9.70859 12L6.0003 9.94989Z" fill="#F3C13F"/>
<path d="M19.3018 9.94989L15.5941 12L16.3023 7.65853L13.3015 4.58337L17.4471 3.94989L19.3018 0L21.156 3.94989L25.3015 4.58337L22.3014 7.65853L23.0101 12L19.3018 9.94989Z" fill="#F3C13F"/>
<path d="M32.6033 9.94989L28.8956 12L29.6038 7.65853L26.603 4.58337L30.7486 3.94989L32.6033 0L34.4575 3.94989L38.603 4.58337L35.6029 7.65853L36.3116 12L32.6033 9.94989Z" fill="#F3C13F"/>
<path d="M45.9048 9.94989L42.1971 12L42.9053 7.65853L39.9045 4.58337L44.0501 3.94989L45.9048 0L47.759 3.94989L51.9045 4.58337L48.9044 7.65853L49.6131 12L45.9048 9.94989Z" fill="#F3C13F"/>
<path d="M59.0003 9.94989L55.2926 12L56.0008 7.65853L53 4.58337L57.1456 3.94989L59.0003 0L60.8544 3.94989L65 4.58337L61.9998 7.65853L62.7086 12L59.0003 9.94989Z" fill="#F3C13F"/>
</svg>
