<svg width="20" height="19" viewBox="0 0 20 19" fill="none" xmlns="http://www.w3.org/2000/svg">
<path d="M14.227 6.89794C12.8526 8.28902 10.9095 8.16605 9.6283 6.88686C8.98226 7.49651 8.24375 7.90114 7.32203 7.89966C6.40946 7.89818 5.67664 7.49577 5.05655 6.91938C4.65306 7.17049 4.28541 7.46324 3.86979 7.64658C2.081 8.43514 -0.0581305 7.26463 0.00120751 5.06774C0.0157948 4.52388 0.206665 4.02314 0.495691 3.56455C1.13357 2.55666 1.78308 1.55593 2.42047 0.547558C2.65559 0.175455 2.97552 -0.000491819 3.41957 1.03246e-06C7.55971 0.00443669 11.6999 0.00443669 15.84 1.03246e-06C16.2719 1.03246e-06 16.5901 0.161897 16.822 0.530057C17.4708 1.55913 18.1398 2.57539 18.7837 3.60742C19.4759 4.71634 19.4205 5.98223 18.6106 6.96128C18.0442 7.64535 17.2686 7.94846 16.3874 7.8765C15.4481 7.80085 15.122 7.62244 14.227 6.89794ZM9.63646 1.12074C7.62193 1.12074 5.60642 1.11877 3.59239 1.12641C3.49498 1.12641 3.35603 1.18259 3.30658 1.25825C2.66491 2.23557 2.03147 3.21824 1.40628 4.20624C1.15484 4.60298 1.0463 5.03447 1.14891 5.50884C1.30096 6.21115 1.97791 6.93663 2.94067 6.76241C3.45987 6.66852 3.88488 6.43589 4.25277 6.07562C4.52721 5.80702 4.86346 5.69613 5.22542 5.79667C5.44003 5.85631 5.65488 5.98913 5.8188 6.14167C6.35482 6.64314 6.96872 6.86443 7.69586 6.73678C8.05856 6.67296 8.37009 6.50564 8.65812 6.26981C8.8841 6.08474 9.13357 5.89524 9.40504 5.80578C9.82535 5.66754 10.1695 5.89277 10.4949 6.1562C10.7231 6.34127 10.9743 6.53053 11.2475 6.62195C12.0982 6.90632 12.8516 6.70524 13.4999 6.07981C13.9414 5.65374 14.5266 5.64437 14.9771 6.06847C15.439 6.50317 15.9559 6.73604 16.6025 6.75699C17.0104 6.77005 17.3277 6.63747 17.6026 6.38735C18.2365 5.80899 18.3159 4.93911 17.8209 4.16237C17.2137 3.20945 16.5973 2.26243 15.9928 1.30802C15.9018 1.16411 15.8024 1.11507 15.6331 1.11581C13.6344 1.12296 11.6354 1.12074 9.63646 1.12074Z" fill="white"/>
<path d="M2.81291 12.4223H16.4315V12.166C16.4315 11.358 16.4297 10.5502 16.4315 9.74243C16.4315 9.36072 16.5603 9.15618 16.8332 9.07856C17.1744 8.98147 17.4731 9.16407 17.5339 9.51054C17.5442 9.58037 17.5484 9.65094 17.5465 9.72149C17.5465 11.7296 17.551 13.7382 17.5453 15.7454C17.5426 16.6953 17.1116 17.4109 16.2559 17.8195C15.9209 17.9742 15.5565 18.0553 15.1873 18.0573C11.481 18.0737 7.77464 18.0765 4.06816 18.0657C2.70338 18.0635 1.70626 17.0692 1.69835 15.6961C1.68722 13.7116 1.6939 11.7271 1.69662 9.74268C1.69662 9.22321 2.00715 8.95584 2.44353 9.08447C2.68657 9.15618 2.80921 9.34396 2.81069 9.67392C2.81415 10.4975 2.81193 11.3213 2.81193 12.1448L2.81291 12.4223ZM2.81291 13.5573C2.81291 14.2786 2.81143 14.975 2.81291 15.6717C2.81538 16.5189 3.24534 16.9499 4.09041 16.9501C7.7809 16.9501 11.4716 16.9501 15.1626 16.9501C16.0102 16.9501 16.4258 16.5391 16.4302 15.6956C16.4337 15.0524 16.4302 14.4092 16.4302 13.7661C16.4302 13.6988 16.4196 13.6315 16.4132 13.5573H2.81291Z" fill="white"/>
</svg>
