<svg width="10" height="10" viewBox="0 0 10 10" fill="none" xmlns="http://www.w3.org/2000/svg">
<path d="M8.98512 6.86997L7.00016 6.02621C6.91536 5.99036 6.82112 5.98281 6.73162 6.00469C6.64212 6.02656 6.56221 6.07668 6.50391 6.1475L5.62486 7.21275C4.24526 6.56759 3.135 5.46638 2.48453 4.09803L3.55854 3.22614C3.63009 3.16842 3.68072 3.08916 3.70279 3.00035C3.72485 2.91154 3.71715 2.81802 3.68083 2.73394L2.83013 0.765158C2.79027 0.674525 2.71978 0.600526 2.63081 0.555921C2.54184 0.511317 2.43996 0.498902 2.34275 0.520817L0.499568 0.9427C0.405844 0.964166 0.322223 1.01651 0.262353 1.09118C0.202483 1.16586 0.1699 1.25845 0.169922 1.35386C0.169922 5.86273 3.85452 9.51025 8.39335 9.51025C8.48957 9.51031 8.58297 9.47801 8.6583 9.41863C8.73362 9.35925 8.78642 9.27628 8.80807 9.18329L9.23342 7.35514C9.25537 7.25825 9.24259 7.1568 9.19727 7.06825C9.15195 6.9797 9.07693 6.90958 8.98512 6.86997Z" fill="#828282"/>
</svg>
