<svg width="34" height="25" viewBox="0 0 34 25" fill="none" xmlns="http://www.w3.org/2000/svg">
<g clip-path="url(#clip0_264_836)">
<g opacity="0.66">
<path opacity="0.66" d="M32.2497 20.2242H5.41375C4.44921 20.2242 3.66357 19.4386 3.66357 18.474V1.75017C3.66357 0.785633 4.44921 0 5.41375 0H32.2497C33.2142 0 33.9999 0.785633 33.9999 1.75017V18.474C33.9999 19.4386 33.2142 20.2242 32.2497 20.2242Z" fill="url(#paint0_linear_264_836)"/>
<path opacity="0.46" d="M33.9999 2.55908H3.66357V5.81051H33.9999V2.55908Z" fill="url(#paint1_linear_264_836)"/>
</g>
<path d="M28.5861 24.728H1.75017C0.785633 24.728 0 23.9424 0 22.9778V6.25396C0 5.28942 0.785633 4.50378 1.75017 4.50378H28.5861C29.5507 4.50378 30.3363 5.28942 30.3363 6.25396V22.9778C30.3363 23.9424 29.5507 24.728 28.5861 24.728Z" fill="url(#paint2_linear_264_836)"/>
<path d="M6.73645 19.7186H3.33723C3.01053 19.7186 2.73828 19.4542 2.73828 19.1197C2.73828 18.793 3.00275 18.5208 3.33723 18.5208H6.73645C7.06315 18.5208 7.3354 18.7852 7.3354 19.1197C7.32762 19.4542 7.06315 19.7186 6.73645 19.7186Z" fill="white"/>
<path d="M13.2623 19.7186H9.86311C9.53641 19.7186 9.26416 19.4542 9.26416 19.1197C9.26416 18.793 9.52863 18.5208 9.86311 18.5208H13.2623C13.589 18.5208 13.8613 18.7852 13.8613 19.1197C13.8613 19.4542 13.5968 19.7186 13.2623 19.7186Z" fill="white"/>
<path d="M19.7965 19.7186H16.3973C16.0706 19.7186 15.7983 19.4542 15.7983 19.1197C15.7983 18.793 16.0628 18.5208 16.3973 18.5208H19.7965C20.1232 18.5208 20.3955 18.7852 20.3955 19.1197C20.3877 19.4542 20.1232 19.7186 19.7965 19.7186Z" fill="white"/>
<path d="M26.3224 19.7186H22.9232C22.5965 19.7186 22.3242 19.4542 22.3242 19.1197C22.3242 18.793 22.5887 18.5208 22.9232 18.5208H26.3224C26.6491 18.5208 26.9213 18.7852 26.9213 19.1197C26.9213 19.4542 26.6491 19.7186 26.3224 19.7186Z" fill="white"/>
<path d="M6.33151 16.3661H3.24343C2.9634 16.3661 2.74561 16.1405 2.74561 15.8682V13.838C2.74561 13.558 2.97118 13.3402 3.24343 13.3402H6.33151C6.61154 13.3402 6.82934 13.5658 6.82934 13.838V15.8682C6.83712 16.1483 6.61154 16.3661 6.33151 16.3661Z" fill="#FFFFB3"/>
<path d="M26.338 9.62205C27.1886 9.62205 27.8782 8.9325 27.8782 8.0819C27.8782 7.2313 27.1886 6.54175 26.338 6.54175C25.4874 6.54175 24.7979 7.2313 24.7979 8.0819C24.7979 8.9325 25.4874 9.62205 26.338 9.62205Z" fill="#9AE8D9"/>
</g>
<defs>
<linearGradient id="paint0_linear_264_836" x1="18.8306" y1="0" x2="18.8306" y2="20.2243" gradientUnits="userSpaceOnUse">
<stop stop-color="#73EFD8"/>
<stop offset="1" stop-color="#10C19F"/>
</linearGradient>
<linearGradient id="paint1_linear_264_836" x1="3.66249" y1="4.18355" x2="55.0993" y2="4.18355" gradientUnits="userSpaceOnUse">
<stop stop-color="#009097"/>
<stop offset="1" stop-color="#10C19F"/>
</linearGradient>
<linearGradient id="paint2_linear_264_836" x1="15.1682" y1="4.50161" x2="15.1682" y2="24.7259" gradientUnits="userSpaceOnUse">
<stop stop-color="#10C19F"/>
<stop offset="1" stop-color="#009097"/>
</linearGradient>
<clipPath id="clip0_264_836">
<rect width="34" height="24.728" fill="white"/>
</clipPath>
</defs>
</svg>
