<svg width="38" height="31" viewBox="0 0 38 31" fill="none" xmlns="http://www.w3.org/2000/svg">
<path d="M0 5.78743C11.4649 -1.92589 26.5351 -1.92589 38 5.78743C38 8.06199 38 10.3365 38 12.6019C26.5351 4.88861 11.4649 4.88861 0 12.6019C0 10.3274 0 8.05281 0 5.78743Z" fill="#009097"/>
<path d="M38 12.6019C26.5351 20.3152 11.4649 20.3152 0 12.6019C0 10.3273 0 8.05274 0 5.78735C11.4649 13.5007 26.5351 13.5007 38 5.78735C38 8.05274 38 10.3273 38 12.6019Z" fill="#10C19F"/>
<path d="M21.0761 20.2234H16.9239C15.0239 20.2234 13.4761 18.6917 13.4761 16.8115V13.2163C13.4761 11.3361 15.0239 9.80444 16.9239 9.80444H21.0761C22.9761 9.80444 24.5239 11.3361 24.5239 13.2163V16.8115C24.5239 18.6917 22.9761 20.2234 21.0761 20.2234ZM16.9239 11.4278C15.9229 11.4278 15.1073 12.2349 15.1073 13.2254V16.8207C15.1073 17.8112 15.9229 18.6183 16.9239 18.6183H21.0761C22.0771 18.6183 22.8927 17.8112 22.8927 16.8207V13.2254C22.8927 12.2349 22.0771 11.4278 21.0761 11.4278H16.9239Z" fill="#FFA300"/>
<path d="M18.9999 23.9653C18.5551 23.9653 18.1843 23.6077 18.1843 23.1582V19.4162C18.1843 18.976 18.5458 18.6091 18.9999 18.6091C19.4448 18.6091 19.8156 18.9668 19.8156 19.4162V23.1582C19.8156 23.6077 19.4448 23.9653 18.9999 23.9653Z" fill="#FFA300"/>
<path d="M18.9999 30.9999C19.481 30.9999 19.8711 30.6139 19.8711 30.1378C19.8711 29.6616 19.481 29.2756 18.9999 29.2756C18.5187 29.2756 18.1287 29.6616 18.1287 30.1378C18.1287 30.6139 18.5187 30.9999 18.9999 30.9999Z" fill="#C4870C"/>
<path d="M23.2449 29.927H14.5234V25.6072C14.5234 23.2226 16.479 21.2874 18.8888 21.2874C21.2985 21.2874 23.2542 23.2226 23.2542 25.6072V29.927H23.2449Z" fill="#FFBC00"/>
<path d="M23.2449 29.2299H14.5234V28.2944C17.3781 28.6338 20.2883 28.6246 23.2449 28.2944V29.2299Z" fill="#E8A207"/>
<path d="M23.3931 30.5689H14.3658C13.8653 30.5689 13.4482 30.1654 13.4482 29.6609C13.4482 29.1657 13.856 28.7529 14.3658 28.7529H23.4024C23.9029 28.7529 24.3199 29.1565 24.3199 29.6609C24.3107 30.1654 23.9029 30.5689 23.3931 30.5689Z" fill="#FFBC00"/>
<path d="M13.8561 29.8718H13.8468C13.7727 29.8627 13.7171 29.8076 13.7264 29.7343C13.7449 29.4958 13.8283 29.3032 13.9859 29.1748C14.2176 28.973 14.5234 29.0005 14.5327 29.0005C14.6068 29.0097 14.6625 29.0647 14.6532 29.1381C14.6439 29.2115 14.5883 29.2665 14.5142 29.2573C14.4678 29.2573 14.0322 29.239 13.9951 29.7526C13.9766 29.8168 13.921 29.8718 13.8561 29.8718Z" fill="#FFE7B0"/>
<path d="M15.3484 24.8641C15.3299 24.8641 15.3021 24.8641 15.2835 24.8549C15.1445 24.8182 15.0611 24.6715 15.0982 24.5339C15.8118 21.9384 18.5923 21.5807 18.6201 21.5715C18.7684 21.5531 18.8982 21.654 18.9167 21.8008C18.9352 21.9475 18.8333 22.0759 18.685 22.0943C18.583 22.1034 16.2289 22.4244 15.6079 24.6715C15.5708 24.7907 15.4596 24.8641 15.3484 24.8641Z" fill="#FFE6B3"/>
</svg>
