<svg width="24" height="24" viewBox="0 0 24 24" fill="none" xmlns="http://www.w3.org/2000/svg">
<path d="M15 5V8" stroke="#606060" stroke-linecap="round"/>
<path d="M15 16V19" stroke="#606060" stroke-linecap="round"/>
<path d="M15 11V13" stroke="#606060" stroke-linecap="round"/>
<path d="M4.44177 10.4557C3.79269 9.73379 2.96699 8.93468 3.07916 7.97035C3.35848 5.56902 4.46039 5 7.64817 5H16.3522C19.54 5 20.6419 5.56902 20.9212 7.97035C21.0334 8.93468 20.2077 9.73379 19.5586 10.4557C19.2426 10.8072 19.0002 11.3037 19.0002 12C19.0002 12.6963 19.2426 13.1928 19.5586 13.5443C20.2077 14.2662 21.0334 15.0653 20.9212 16.0296C20.6419 18.431 19.54 19 16.3522 19H7.64817C4.46039 19 3.35848 18.431 3.07916 16.0296C2.96699 15.0653 3.79269 14.2662 4.44177 13.5443C4.75778 13.1928 5.00017 12.6963 5.00017 12C5.00017 11.3037 4.75778 10.8072 4.44177 10.4557Z" stroke="#606060"/>
</svg>
