<svg width="67" height="59" viewBox="0 0 67 59" fill="none" xmlns="http://www.w3.org/2000/svg">
<g clip-path="url(#clip0_237_3171)">
<g clip-path="url(#clip1_237_3171)">
<path d="M48.6365 11.5574V10.4988C48.6351 9.30592 48.1501 8.16235 47.2879 7.31896C46.4257 6.47556 45.2568 6.00122 44.0376 6H21.9617C20.7426 6.00139 19.5739 6.47581 18.7119 7.31919C17.8499 8.16257 17.365 9.30603 17.3635 10.4988V11.5574C16.6271 12.1184 16.0314 12.8366 15.6217 13.6571C15.2121 14.4776 14.9995 15.3788 15 16.292V30.996C15.0018 32.5878 15.6489 34.1139 16.7994 35.2395C17.9498 36.3651 19.5097 36.9983 21.1367 37H44.8626C46.4898 36.9984 48.0498 36.3654 49.2004 35.2398C50.351 34.1142 50.9982 32.5879 51 30.996V16.292C51.0004 15.3788 50.7877 14.4777 50.3781 13.6572C49.9685 12.8367 49.3728 12.1185 48.6365 11.5574ZM19.3102 10.4988C19.3111 9.811 19.5907 9.15167 20.0878 8.66535C20.5849 8.17904 21.2588 7.90545 21.9617 7.90458H44.0376C44.7407 7.90528 45.4148 8.17879 45.912 8.66512C46.4092 9.15145 46.6889 9.81089 46.6898 10.4988V10.5565C46.0984 10.3758 45.4823 10.2841 44.8626 10.2846H21.1367C20.5173 10.2842 19.9014 10.3758 19.3102 10.5565V10.4988ZM49.0533 26.9753H36.116C35.2128 26.9743 34.347 26.6228 33.7083 25.998C33.0697 25.3731 32.7104 24.526 32.7093 23.6423C32.7104 22.7587 33.0697 21.9116 33.7084 21.2869C34.347 20.6622 35.2129 20.3108 36.116 20.31H49.0533V26.9753ZM36.116 18.4054C34.6968 18.4069 33.3362 18.9592 32.3326 19.9409C31.3291 20.9227 30.7645 22.2538 30.7627 23.6423C30.7643 25.0309 31.3288 26.3622 32.3324 27.3441C33.336 28.326 34.6967 28.8784 36.116 28.8799H49.0533V30.996C49.0521 32.083 48.6101 33.1251 47.8245 33.8936C47.0388 34.6622 45.9736 35.0944 44.8626 35.0954H21.1367C20.0258 35.0942 18.9608 34.6619 18.1753 33.8934C17.3898 33.1248 16.9479 32.0828 16.9467 30.996V16.292C16.9479 15.205 17.3897 14.163 18.1752 13.3943C18.9607 12.6257 20.0258 12.1932 21.1367 12.1919H44.8626C45.9737 12.1931 47.0389 12.6254 47.8245 13.3941C48.6102 14.1627 49.0521 15.2049 49.0533 16.292V18.408L36.116 18.4054Z" fill="#848484"/>
<path d="M36.5072 24.9276C37.2339 24.7598 37.6839 24.0474 37.5124 23.3364C37.3409 22.6254 36.6128 22.1851 35.8861 22.3529C35.1594 22.5207 34.7094 23.2331 34.8809 23.9441C35.0524 24.655 35.7805 25.0954 36.5072 24.9276Z" fill="#848484"/>
</g>
<path d="M8.80288 59V52.52H9.99088L10.0629 53.228C10.3589 52.972 10.6949 52.772 11.0709 52.628C11.4469 52.476 11.8789 52.4 12.3669 52.4C13.0549 52.4 13.5869 52.604 13.9629 53.012C14.3469 53.42 14.5389 53.992 14.5389 54.728V59H13.2429V54.788C13.2429 54.316 13.1309 53.976 12.9069 53.768C12.6829 53.56 12.3469 53.456 11.8989 53.456C11.5389 53.456 11.2029 53.532 10.8909 53.684C10.5789 53.828 10.3189 54.012 10.1109 54.236V59H8.80288ZM9.5405 51.536L9.6005 50.624H13.4645V49.628H14.5445V51.536H9.5405ZM13.4645 49.076V47.408H14.5445V49.076H13.4645ZM18.4805 59.12C17.9765 59.12 17.5245 59.008 17.1245 58.784C16.7245 58.56 16.4085 58.208 16.1765 57.728C15.9445 57.24 15.8285 56.616 15.8285 55.856C15.8285 54.736 16.0165 53.88 16.3925 53.288C16.7685 52.696 17.2925 52.4 17.9645 52.4C18.2925 52.4 18.5525 52.46 18.7445 52.58C18.9445 52.692 19.1165 52.84 19.2605 53.024C19.4285 52.84 19.6485 52.692 19.9205 52.58C20.1925 52.46 20.4685 52.4 20.7485 52.4C21.2685 52.4 21.6565 52.556 21.9125 52.868C22.1685 53.172 22.2965 53.596 22.2965 54.14V59H20.9885V54.332C20.9885 54.028 20.9445 53.808 20.8565 53.672C20.7765 53.528 20.6085 53.456 20.3525 53.456C20.1925 53.456 20.0445 53.5 19.9085 53.588C19.7725 53.676 19.6725 53.816 19.6085 54.008H18.8885C18.7925 53.816 18.6925 53.676 18.5885 53.588C18.4845 53.5 18.3365 53.456 18.1445 53.456C17.7285 53.456 17.4485 53.676 17.3045 54.116C17.1605 54.556 17.0885 55.136 17.0885 55.856C17.0885 56.68 17.2285 57.256 17.5085 57.584C17.7885 57.912 18.1885 58.076 18.7085 58.076C18.8605 58.076 19.0085 58.068 19.1525 58.052C19.3045 58.036 19.4325 58.012 19.5365 57.98V58.976C19.4005 59.024 19.2485 59.06 19.0805 59.084C18.9125 59.108 18.7125 59.12 18.4805 59.12ZM19.5543 51.536V50.432H18.6063V49.532H20.4543V50.624H23.0463L22.9983 51.536H19.5543ZM26.2503 59.12C25.7383 59.12 25.2543 59.072 24.7983 58.976C24.3503 58.88 23.9743 58.768 23.6703 58.64V55.304H26.2383L26.2983 56.3H24.9303V57.872C25.1143 57.936 25.3223 57.988 25.5543 58.028C25.7943 58.06 26.0263 58.076 26.2503 58.076C26.9623 58.076 27.4623 57.908 27.7503 57.572C28.0463 57.228 28.1943 56.632 28.1943 55.784C28.1943 55.192 28.1223 54.728 27.9783 54.392C27.8343 54.048 27.5943 53.808 27.2583 53.672C26.9303 53.528 26.4823 53.456 25.9143 53.456C25.5703 53.456 25.2103 53.48 24.8343 53.528C24.4583 53.576 24.1023 53.656 23.7663 53.768V52.76C24.1023 52.648 24.4863 52.56 24.9183 52.496C25.3583 52.432 25.7983 52.4 26.2383 52.4C27.3743 52.4 28.1943 52.688 28.6983 53.264C29.2023 53.832 29.4543 54.672 29.4543 55.784C29.4543 56.872 29.2023 57.7 28.6983 58.268C28.1943 58.836 27.3783 59.12 26.2503 59.12ZM33.2727 59.12C33.0887 59.12 32.8847 59.108 32.6607 59.084C32.4367 59.06 32.2407 59.02 32.0727 58.964L30.2487 54.524H31.5207L32.9967 58.124C33.6847 58.156 34.1847 57.96 34.4967 57.536C34.8087 57.104 34.9647 56.444 34.9647 55.556C34.9647 55.036 34.9167 54.628 34.8207 54.332C34.7247 54.028 34.5607 53.816 34.3287 53.696C34.1047 53.568 33.7927 53.504 33.3927 53.504H32.9367V52.52H33.5607C34.4887 52.52 35.1647 52.768 35.5887 53.264C36.0127 53.76 36.2247 54.52 36.2247 55.544C36.2247 56.392 36.0967 57.08 35.8407 57.608C35.5847 58.128 35.2327 58.512 34.7847 58.76C34.3447 59 33.8407 59.12 33.2727 59.12ZM40.1661 59.12C39.2541 59.12 38.5621 58.908 38.0901 58.484C37.6261 58.06 37.3941 57.464 37.3941 56.696V56.06C37.3941 55.804 37.4461 55.568 37.5501 55.352C37.6621 55.136 37.7861 54.94 37.9221 54.764C38.0661 54.58 38.1901 54.412 38.2941 54.26C38.4061 54.1 38.4621 53.952 38.4621 53.816C38.4621 53.688 38.4341 53.604 38.3781 53.564C38.3221 53.524 38.2221 53.504 38.0781 53.504H37.2501L37.3581 52.52H38.8701C39.4781 52.52 39.7821 52.812 39.7821 53.396C39.7821 53.668 39.7261 53.912 39.6141 54.128C39.5101 54.344 39.3821 54.552 39.2301 54.752C39.0861 54.952 38.9581 55.16 38.8461 55.376C38.7421 55.584 38.6901 55.816 38.6901 56.072V56.804C38.6901 57.244 38.8181 57.568 39.0741 57.776C39.3381 57.976 39.7021 58.076 40.1661 58.076C40.6381 58.076 41.0021 57.972 41.2581 57.764C41.5221 57.556 41.6541 57.224 41.6541 56.768V55.976C41.6541 55.6 41.5941 55.34 41.4741 55.196C41.3541 55.044 41.1301 54.968 40.8021 54.968H40.4661L40.5261 54.02H40.7661C41.1021 54.02 41.3341 53.94 41.4621 53.78C41.5901 53.612 41.6541 53.356 41.6541 53.012V52.4H42.9621V52.988C42.9621 53.364 42.9061 53.676 42.7941 53.924C42.6821 54.164 42.4501 54.352 42.0981 54.488C42.4661 54.64 42.7021 54.84 42.8061 55.088C42.9101 55.336 42.9621 55.644 42.9621 56.012V56.684C42.9621 57.452 42.7141 58.052 42.2181 58.484C41.7221 58.908 41.0381 59.12 40.1661 59.12ZM42.3025 51.824C41.9265 51.824 41.6065 51.7 41.3425 51.452C41.0785 51.204 40.9465 50.896 40.9465 50.528C40.9465 50.152 41.0785 49.84 41.3425 49.592C41.6065 49.344 41.9265 49.22 42.3025 49.22C42.6785 49.22 42.9985 49.344 43.2625 49.592C43.5185 49.84 43.6465 50.152 43.6465 50.528C43.6465 50.896 43.5185 51.204 43.2625 51.452C42.9985 51.7 42.6785 51.824 42.3025 51.824ZM42.3025 51.08C42.4545 51.08 42.5865 51.024 42.6985 50.912C42.8025 50.8 42.8545 50.672 42.8545 50.528C42.8545 50.368 42.8025 50.232 42.6985 50.12C42.5865 50.008 42.4545 49.952 42.3025 49.952C42.1505 49.952 42.0185 50.008 41.9065 50.12C41.7865 50.232 41.7265 50.368 41.7265 50.528C41.7265 50.672 41.7865 50.8 41.9065 50.912C42.0185 51.024 42.1505 51.08 42.3025 51.08ZM46.9345 59V54.92C46.9345 54.592 46.8985 54.32 46.8265 54.104C46.7545 53.888 46.6185 53.728 46.4185 53.624C46.2185 53.512 45.9225 53.456 45.5305 53.456C45.2745 53.456 44.9945 53.484 44.6905 53.54C44.3945 53.596 44.1265 53.672 43.8865 53.768V52.76C44.1265 52.656 44.4145 52.572 44.7505 52.508C45.0945 52.436 45.4385 52.4 45.7825 52.4C46.6465 52.4 47.2705 52.588 47.6545 52.964C48.0465 53.34 48.2425 53.936 48.2425 54.752V59H46.9345ZM51.8956 59.12C51.4716 59.12 51.0596 59.092 50.6596 59.036C50.2676 58.98 49.9436 58.9 49.6876 58.796V57.704C49.9916 57.824 50.3196 57.916 50.6716 57.98C51.0316 58.044 51.3596 58.076 51.6556 58.076C52.2076 58.076 52.6156 58.028 52.8796 57.932C53.1436 57.828 53.2756 57.616 53.2756 57.296C53.2756 57.064 53.2076 56.888 53.0716 56.768C52.9356 56.648 52.7356 56.544 52.4716 56.456C52.2076 56.36 51.8796 56.248 51.4876 56.12C51.1196 55.992 50.7876 55.852 50.4916 55.7C50.1956 55.548 49.9596 55.356 49.7836 55.124C49.6156 54.892 49.5316 54.6 49.5316 54.248C49.5316 53.68 49.7476 53.232 50.1796 52.904C50.6116 52.568 51.2636 52.4 52.1356 52.4C52.5036 52.4 52.8676 52.428 53.2276 52.484C53.5876 52.54 53.8836 52.608 54.1156 52.688V53.768C53.8516 53.664 53.5556 53.588 53.2276 53.54C52.9076 53.484 52.6076 53.456 52.3276 53.456C51.8636 53.456 51.4916 53.508 51.2116 53.612C50.9316 53.708 50.7916 53.908 50.7916 54.212C50.7916 54.412 50.8636 54.572 51.0076 54.692C51.1516 54.804 51.3556 54.908 51.6196 55.004C51.8916 55.092 52.2156 55.2 52.5916 55.328C53.0156 55.464 53.3716 55.616 53.6596 55.784C53.9476 55.944 54.1636 56.144 54.3076 56.384C54.4596 56.616 54.5356 56.92 54.5356 57.296C54.5356 57.928 54.2956 58.392 53.8156 58.688C53.3436 58.976 52.7036 59.12 51.8956 59.12ZM55.5785 55.028V53.468H56.6945V54.056H58.4585L58.4105 55.028H55.5785ZM55.5785 58.292V56.732H56.6945V57.332H58.4585L58.4105 58.292H55.5785Z" fill="#868686"/>
<circle cx="57.5" cy="7.5" r="7.5" fill="#EB5757"/>
<path d="M58.8955 12H57.2345V7.457C57.2345 7.33233 57.2345 7.17833 57.2345 6.995C57.2419 6.81167 57.2492 6.621 57.2565 6.423C57.2639 6.225 57.2712 6.049 57.2785 5.895C57.2419 5.939 57.1612 6.01967 57.0365 6.137C56.9192 6.247 56.8092 6.346 56.7065 6.434L55.8045 7.16L55.0015 6.159L57.5315 4.146H58.8955V12Z" fill="white"/>
</g>
<defs>
<clipPath id="clip0_237_3171">
<rect width="67" height="59" fill="white"/>
</clipPath>
<clipPath id="clip1_237_3171">
<rect width="36" height="31" fill="white" transform="translate(15 6)"/>
</clipPath>
</defs>
</svg>
