<svg width="14" height="10" viewBox="0 0 14 10" fill="none" xmlns="http://www.w3.org/2000/svg">
<path d="M12.2316 0.365477C12.4316 0.153017 12.6947 0.0349831 12.9684 0.0467865C13.2421 0.0467865 13.4947 0.16482 13.6947 0.389083C13.8842 0.601543 14 0.896627 14 1.20351C14 1.5104 13.9053 1.80548 13.7158 2.02975L7.75789 8.71044C7.66316 8.81667 7.54737 8.89929 7.42105 8.95831C7.29474 9.01732 7.15789 9.05273 7.02105 9.05273C6.88421 9.05273 6.74737 9.01732 6.61053 8.95831C6.48421 8.89929 6.36842 8.81667 6.27368 8.71044L0.31579 2.02975C0.221053 1.92352 0.136842 1.79368 0.0842106 1.65204C0.031579 1.4986 8.52808e-08 1.34515 8.69785e-08 1.19171C8.86763e-08 1.03827 0.0210527 0.87302 0.0736843 0.73138C0.126316 0.589739 0.210526 0.459903 0.305263 0.341869C0.4 0.235639 0.526316 0.153017 0.652632 0.0939999C0.778947 0.0231798 0.915789 -0.000427234 1.06316 -0.000427232C1.2 -0.000427231 1.33684 0.0349832 1.46316 0.0939999C1.58947 0.153017 1.70526 0.247443 1.81053 0.365477L7.02105 6.20813L8 5.09862L12.2316 0.365477Z" fill="#333333"/>
</svg>
