<svg width="47" height="40" viewBox="0 0 47 40" fill="none" xmlns="http://www.w3.org/2000/svg">
<g clip-path="url(#clip0_482_598)">
<path d="M43.9142 7.17088V5.80484C43.9124 4.2657 43.2792 2.79013 42.1536 1.70188C41.028 0.613626 39.5019 0.00156996 37.9102 0H9.08884C7.49727 0.00179422 5.97141 0.613948 4.846 1.70218C3.72059 2.79041 3.08752 4.26585 3.08566 5.80484V7.17088C2.12421 7.89475 1.34644 8.82138 0.811668 9.88011C0.276899 10.9388 -0.000741742 12.1017 -5.97819e-05 13.2799V32.2529C0.00225993 34.3069 0.847106 36.2761 2.34911 37.7284C3.85112 39.1808 5.88761 39.9978 8.01177 40H38.9873C41.1116 39.998 43.1483 39.1811 44.6505 37.7287C46.1527 36.2763 46.9976 34.307 47 32.2529V13.2799C47.0005 12.1017 46.7228 10.9389 46.188 9.8802C45.6533 8.82149 44.8756 7.89483 43.9142 7.17088ZM5.62715 5.80484C5.62831 4.91742 5.99339 4.06667 6.64233 3.43917C7.29127 2.81167 8.1711 2.45864 9.08884 2.45752H37.9102C38.8281 2.45842 39.7081 2.81134 40.3573 3.43887C41.0064 4.06639 41.3716 4.91727 41.3727 5.80484V5.87941C40.6006 5.64615 39.7962 5.52785 38.9873 5.52858H8.01177C7.2031 5.52794 6.39903 5.64624 5.62715 5.87941V5.80484ZM44.4585 27.065H27.5681C26.3889 27.0636 25.2585 26.6101 24.4247 25.8038C23.5909 24.9976 23.1219 23.9045 23.1205 22.7643C23.1219 21.6242 23.5909 20.5312 24.4247 19.725C25.2586 18.9189 26.389 18.4656 27.5681 18.4645H44.4585V27.065ZM27.5681 16.0069C25.7153 16.009 23.9389 16.7215 22.6287 17.9883C21.3184 19.2551 20.5813 20.9727 20.579 22.7643C20.5811 24.5561 21.3181 26.2739 22.6284 27.5408C23.9386 28.8078 25.7151 29.5205 27.5681 29.5225H44.4585V32.2529C44.4568 33.6554 43.8799 35.0001 42.8541 35.9918C41.8284 36.9834 40.4377 37.5411 38.9873 37.5425H8.01177C6.56144 37.5409 5.17098 36.9831 4.14545 35.9915C3.11991 34.9998 2.54305 33.6553 2.54143 32.2529V13.2799C2.54305 11.8775 3.11988 10.5329 4.14539 9.54106C5.1709 8.54927 6.56136 7.99129 8.01177 7.98949H38.9873C40.4378 7.99106 41.8285 8.54895 42.8542 9.54076C43.8799 10.5326 44.4568 11.8773 44.4585 13.2799V16.0103L27.5681 16.0069Z" fill="white"/>
<path d="M28.0788 24.4228C29.0275 24.2062 29.6151 23.287 29.3912 22.3696C29.1673 21.4523 28.2167 20.8841 27.2679 21.1006C26.3192 21.3171 25.7316 22.2364 25.9556 23.1537C26.1795 24.0711 27.1301 24.6393 28.0788 24.4228Z" fill="white"/>
</g>
<defs>
<clipPath id="clip0_482_598">
<rect width="47" height="40" fill="white"/>
</clipPath>
</defs>
</svg>
