<svg width="36" height="31" viewBox="0 0 36 31" fill="none" xmlns="http://www.w3.org/2000/svg">
<g clip-path="url(#clip0_237_3018)">
<path d="M33.6365 5.55743V4.49875C33.6351 3.30592 33.1501 2.16235 32.2879 1.31896C31.4257 0.47556 30.2568 0.00121672 29.0376 0H6.96171C5.74263 0.00139052 4.57389 0.47581 3.71188 1.31919C2.84986 2.16257 2.36496 3.30603 2.36353 4.49875V5.55743C1.6271 6.11843 1.03136 6.83657 0.62175 7.65709C0.21214 8.4776 -0.000521392 9.37881 9.59949e-07 10.292V24.996C0.00177776 26.5878 0.648894 28.1139 1.79937 29.2395C2.94984 30.3651 4.50971 30.9983 6.13672 31H29.8626C31.4898 30.9984 33.0498 30.3654 34.2004 29.2398C35.351 28.1142 35.9982 26.5879 36 24.996V10.292C36.0004 9.37882 35.7877 8.47765 35.3781 7.65715C34.9685 6.83665 34.3728 6.11849 33.6365 5.55743V5.55743ZM4.31021 4.49875C4.31109 3.811 4.59073 3.15167 5.08779 2.66535C5.58485 2.17904 6.25876 1.90545 6.96171 1.90458H29.0376C29.7407 1.90528 30.4148 2.17879 30.912 2.66512C31.4092 3.15145 31.6889 3.81089 31.6898 4.49875V4.55655C31.0984 4.37577 30.4823 4.28409 29.8626 4.28465H6.13672C5.51731 4.28415 4.90143 4.37584 4.31021 4.55655V4.49875ZM34.0533 20.9753H21.116C20.2128 20.9743 19.347 20.6228 18.7083 19.998C18.0697 19.3731 17.7104 18.526 17.7093 17.6423C17.7104 16.7587 18.0697 15.9116 18.7084 15.2869C19.347 14.6622 20.2129 14.3108 21.116 14.31H34.0533V20.9753ZM21.116 12.4054C19.6968 12.407 18.3362 12.9592 17.3326 13.9409C16.3291 14.9227 15.7645 16.2538 15.7627 17.6423C15.7643 19.0309 16.3288 20.3622 17.3324 21.3441C18.336 22.326 19.6967 22.8784 21.116 22.8799H34.0533V24.996C34.0521 26.083 33.6102 27.1251 32.8245 27.8936C32.0388 28.6622 30.9736 29.0944 29.8626 29.0954H6.13672C5.02583 29.0942 3.9608 28.6619 3.17528 27.8934C2.38977 27.1248 1.94792 26.0828 1.94667 24.996V10.292C1.94792 9.20503 2.38974 8.16296 3.17524 7.39432C3.96074 6.62569 5.02577 6.19325 6.13672 6.19186H29.8626C30.9737 6.19307 32.0389 6.62544 32.8245 7.39409C33.6102 8.16275 34.0521 9.20492 34.0533 10.292V12.408L21.116 12.4054Z" fill="#848484"/>
<path d="M21.5072 18.9276C22.2339 18.7598 22.6839 18.0474 22.5124 17.3364C22.3409 16.6254 21.6128 16.1851 20.8861 16.3529C20.1594 16.5207 19.7094 17.2331 19.8809 17.9441C20.0524 18.655 20.7805 19.0954 21.5072 18.9276Z" fill="#848484"/>
</g>
<defs>
<clipPath id="clip0_237_3018">
<rect width="36" height="31" fill="white"/>
</clipPath>
</defs>
</svg>
