<svg width="232" height="70" viewBox="0 0 232 70" fill="none" xmlns="http://www.w3.org/2000/svg">
<path d="M60.447 1.872L53.427 27H47.487L42.771 9.108L37.839 27L31.935 27.036L25.167 1.872H30.567L34.995 21.384L40.107 1.872H45.723L50.547 21.276L55.011 1.872H60.447ZM82.2779 16.596C82.2779 17.316 82.2299 17.964 82.1339 18.54H67.5539C67.6739 19.98 68.1779 21.108 69.0659 21.924C69.9539 22.74 71.0459 23.148 72.3419 23.148C74.2139 23.148 75.5459 22.344 76.3379 20.736H81.7739C81.1979 22.656 80.0939 24.24 78.4619 25.488C76.8299 26.712 74.8259 27.324 72.4499 27.324C70.5299 27.324 68.8019 26.904 67.2659 26.064C65.7539 25.2 64.5659 23.988 63.7019 22.428C62.8619 20.868 62.4419 19.068 62.4419 17.028C62.4419 14.964 62.8619 13.152 63.7019 11.592C64.5419 10.032 65.7179 8.832 67.2299 7.992C68.7419 7.152 70.4819 6.732 72.4499 6.732C74.3459 6.732 76.0379 7.14 77.5259 7.956C79.0379 8.772 80.2019 9.936 81.0179 11.448C81.8579 12.936 82.2779 14.652 82.2779 16.596ZM77.0579 15.156C77.0339 13.86 76.5659 12.828 75.6539 12.06C74.7419 11.268 73.6259 10.872 72.3059 10.872C71.0579 10.872 70.0019 11.256 69.1379 12.024C68.2979 12.768 67.7819 13.812 67.5899 15.156H77.0579ZM90.9967 0.36V27H85.9567V0.36H90.9967ZM94.6802 17.028C94.6802 14.964 95.1002 13.164 95.9402 11.628C96.7802 10.068 97.9442 8.868 99.4322 8.028C100.92 7.164 102.624 6.732 104.544 6.732C107.016 6.732 109.056 7.356 110.664 8.604C112.296 9.828 113.388 11.556 113.94 13.788H108.504C108.216 12.924 107.724 12.252 107.028 11.772C106.356 11.268 105.516 11.016 104.508 11.016C103.068 11.016 101.928 11.544 101.088 12.6C100.248 13.632 99.8282 15.108 99.8282 17.028C99.8282 18.924 100.248 20.4 101.088 21.456C101.928 22.488 103.068 23.004 104.508 23.004C106.548 23.004 107.88 22.092 108.504 20.268H113.94C113.388 22.428 112.296 24.144 110.664 25.416C109.032 26.688 106.992 27.324 104.544 27.324C102.624 27.324 100.92 26.904 99.4322 26.064C97.9442 25.2 96.7802 24 95.9402 22.464C95.1002 20.904 94.6802 19.092 94.6802 17.028ZM126.488 27.324C124.568 27.324 122.84 26.904 121.304 26.064C119.768 25.2 118.556 23.988 117.668 22.428C116.804 20.868 116.372 19.068 116.372 17.028C116.372 14.988 116.816 13.188 117.704 11.628C118.616 10.068 119.852 8.868 121.412 8.028C122.972 7.164 124.712 6.732 126.632 6.732C128.552 6.732 130.292 7.164 131.852 8.028C133.412 8.868 134.636 10.068 135.524 11.628C136.436 13.188 136.892 14.988 136.892 17.028C136.892 19.068 136.424 20.868 135.488 22.428C134.576 23.988 133.328 25.2 131.744 26.064C130.184 26.904 128.432 27.324 126.488 27.324ZM126.488 22.932C127.4 22.932 128.252 22.716 129.044 22.284C129.86 21.828 130.508 21.156 130.988 20.268C131.468 19.38 131.708 18.3 131.708 17.028C131.708 15.132 131.204 13.68 130.196 12.672C129.212 11.64 128 11.124 126.56 11.124C125.12 11.124 123.908 11.64 122.924 12.672C121.964 13.68 121.484 15.132 121.484 17.028C121.484 18.924 121.952 20.388 122.888 21.42C123.848 22.428 125.048 22.932 126.488 22.932ZM165.357 6.768C167.805 6.768 169.773 7.524 171.261 9.036C172.773 10.524 173.529 12.612 173.529 15.3V27H168.489V15.984C168.489 14.424 168.093 13.236 167.301 12.42C166.509 11.58 165.429 11.16 164.061 11.16C162.693 11.16 161.601 11.58 160.785 12.42C159.993 13.236 159.597 14.424 159.597 15.984V27H154.557V15.984C154.557 14.424 154.161 13.236 153.369 12.42C152.577 11.58 151.497 11.16 150.129 11.16C148.737 11.16 147.633 11.58 146.817 12.42C146.025 13.236 145.629 14.424 145.629 15.984V27H140.589V7.056H145.629V9.468C146.277 8.628 147.105 7.968 148.113 7.488C149.145 7.008 150.273 6.768 151.497 6.768C153.057 6.768 154.449 7.104 155.673 7.776C156.897 8.424 157.845 9.36 158.517 10.584C159.165 9.432 160.101 8.508 161.325 7.812C162.573 7.116 163.917 6.768 165.357 6.768ZM196.852 16.596C196.852 17.316 196.804 17.964 196.708 18.54H182.128C182.248 19.98 182.752 21.108 183.64 21.924C184.528 22.74 185.62 23.148 186.916 23.148C188.788 23.148 190.12 22.344 190.912 20.736H196.348C195.772 22.656 194.668 24.24 193.036 25.488C191.404 26.712 189.4 27.324 187.024 27.324C185.104 27.324 183.376 26.904 181.84 26.064C180.328 25.2 179.14 23.988 178.276 22.428C177.436 20.868 177.016 19.068 177.016 17.028C177.016 14.964 177.436 13.152 178.276 11.592C179.116 10.032 180.292 8.832 181.804 7.992C183.316 7.152 185.056 6.732 187.024 6.732C188.92 6.732 190.612 7.14 192.1 7.956C193.612 8.772 194.776 9.936 195.592 11.448C196.432 12.936 196.852 14.652 196.852 16.596ZM191.632 15.156C191.608 13.86 191.14 12.828 190.228 12.06C189.316 11.268 188.2 10.872 186.88 10.872C185.632 10.872 184.576 11.256 183.712 12.024C182.872 12.768 182.356 13.812 182.164 15.156H191.632ZM7.73091 53.196V62.844C7.73091 63.516 7.88691 64.008 8.19891 64.32C8.53491 64.608 9.08691 64.752 9.85491 64.752H12.1949V69H9.02691C4.77891 69 2.65491 66.936 2.65491 62.808V53.196H0.278906V49.056H2.65491V44.124H7.73091V49.056H12.1949V53.196H7.73091ZM24.6759 69.324C22.7559 69.324 21.0279 68.904 19.4919 68.064C17.9559 67.2 16.7439 65.988 15.8559 64.428C14.9919 62.868 14.5599 61.068 14.5599 59.028C14.5599 56.988 15.0039 55.188 15.8919 53.628C16.8039 52.068 18.0399 50.868 19.5999 50.028C21.1599 49.164 22.8999 48.732 24.8199 48.732C26.7399 48.732 28.4799 49.164 30.0399 50.028C31.5999 50.868 32.8239 52.068 33.7119 53.628C34.6239 55.188 35.0799 56.988 35.0799 59.028C35.0799 61.068 34.6119 62.868 33.6759 64.428C32.7639 65.988 31.5159 67.2 29.9319 68.064C28.3719 68.904 26.6199 69.324 24.6759 69.324ZM24.6759 64.932C25.5879 64.932 26.4399 64.716 27.2319 64.284C28.0479 63.828 28.6959 63.156 29.1759 62.268C29.6559 61.38 29.8959 60.3 29.8959 59.028C29.8959 57.132 29.3919 55.68 28.3839 54.672C27.3999 53.64 26.1879 53.124 24.7479 53.124C23.3079 53.124 22.0959 53.64 21.1119 54.672C20.1519 55.68 19.6719 57.132 19.6719 59.028C19.6719 60.924 20.1399 62.388 21.0759 63.42C22.0359 64.428 23.2359 64.932 24.6759 64.932ZM56.2111 69.324C54.2911 69.324 52.5631 68.904 51.0271 68.064C49.4911 67.2 48.2791 65.988 47.3911 64.428C46.5271 62.868 46.0951 61.068 46.0951 59.028C46.0951 56.988 46.5391 55.188 47.4271 53.628C48.3391 52.068 49.5751 50.868 51.1351 50.028C52.6951 49.164 54.4351 48.732 56.3551 48.732C58.2751 48.732 60.0151 49.164 61.5751 50.028C63.1351 50.868 64.3591 52.068 65.2471 53.628C66.1591 55.188 66.6151 56.988 66.6151 59.028C66.6151 61.068 66.1471 62.868 65.2111 64.428C64.2991 65.988 63.0511 67.2 61.4671 68.064C59.9071 68.904 58.1551 69.324 56.2111 69.324ZM56.2111 64.932C57.1231 64.932 57.9751 64.716 58.7671 64.284C59.5831 63.828 60.2311 63.156 60.7111 62.268C61.1911 61.38 61.4311 60.3 61.4311 59.028C61.4311 57.132 60.9271 55.68 59.9191 54.672C58.9351 53.64 57.7231 53.124 56.2831 53.124C54.8431 53.124 53.6311 53.64 52.6471 54.672C51.6871 55.68 51.2071 57.132 51.2071 59.028C51.2071 60.924 51.6751 62.388 52.6111 63.42C53.5711 64.428 54.7711 64.932 56.2111 64.932ZM89.1401 49.056V69H84.0641V66.48C83.4161 67.344 82.5641 68.028 81.5081 68.532C80.4761 69.012 79.3481 69.252 78.1241 69.252C76.5641 69.252 75.1841 68.928 73.9841 68.28C72.7841 67.608 71.8361 66.636 71.1401 65.364C70.4681 64.068 70.1321 62.532 70.1321 60.756V49.056H75.1721V60.036C75.1721 61.62 75.5681 62.844 76.3601 63.708C77.1521 64.548 78.2321 64.968 79.6001 64.968C80.9921 64.968 82.0841 64.548 82.8761 63.708C83.6681 62.844 84.0641 61.62 84.0641 60.036V49.056H89.1401ZM99.1529 52.152C99.8009 51.096 100.641 50.268 101.673 49.668C102.729 49.068 103.929 48.768 105.273 48.768V54.06H103.941C102.357 54.06 101.157 54.432 100.341 55.176C99.5489 55.92 99.1529 57.216 99.1529 59.064V69H94.1129V49.056H99.1529V52.152ZM122.394 64.752H133.698V69H116.562V65.112L127.794 48.12H116.562V43.872H133.698V47.76L122.394 64.752ZM156.528 58.596C156.528 59.316 156.48 59.964 156.384 60.54H141.804C141.924 61.98 142.428 63.108 143.316 63.924C144.204 64.74 145.296 65.148 146.592 65.148C148.464 65.148 149.796 64.344 150.588 62.736H156.024C155.448 64.656 154.344 66.24 152.712 67.488C151.08 68.712 149.076 69.324 146.7 69.324C144.78 69.324 143.052 68.904 141.516 68.064C140.004 67.2 138.816 65.988 137.952 64.428C137.112 62.868 136.692 61.068 136.692 59.028C136.692 56.964 137.112 55.152 137.952 53.592C138.792 52.032 139.968 50.832 141.48 49.992C142.992 49.152 144.732 48.732 146.7 48.732C148.596 48.732 150.288 49.14 151.776 49.956C153.288 50.772 154.452 51.936 155.268 53.448C156.108 54.936 156.528 56.652 156.528 58.596ZM151.308 57.156C151.284 55.86 150.816 54.828 149.904 54.06C148.992 53.268 147.876 52.872 146.556 52.872C145.308 52.872 144.252 53.256 143.388 54.024C142.548 54.768 142.032 55.812 141.84 57.156H151.308ZM165.247 42.36V69H160.207V42.36H165.247ZM188.766 58.596C188.766 59.316 188.718 59.964 188.622 60.54H174.042C174.162 61.98 174.666 63.108 175.554 63.924C176.442 64.74 177.534 65.148 178.83 65.148C180.702 65.148 182.034 64.344 182.826 62.736H188.262C187.686 64.656 186.582 66.24 184.95 67.488C183.318 68.712 181.314 69.324 178.938 69.324C177.018 69.324 175.29 68.904 173.754 68.064C172.242 67.2 171.054 65.988 170.19 64.428C169.35 62.868 168.93 61.068 168.93 59.028C168.93 56.964 169.35 55.152 170.19 53.592C171.03 52.032 172.206 50.832 173.718 49.992C175.23 49.152 176.97 48.732 178.938 48.732C180.834 48.732 182.526 49.14 184.014 49.956C185.526 50.772 186.69 51.936 187.506 53.448C188.346 54.936 188.766 56.652 188.766 58.596ZM183.546 57.156C183.522 55.86 183.054 54.828 182.142 54.06C181.23 53.268 180.114 52.872 178.794 52.872C177.546 52.872 176.49 53.256 175.626 54.024C174.786 54.768 174.27 55.812 174.078 57.156H183.546ZM210.985 58.596C210.985 59.316 210.937 59.964 210.841 60.54H196.261C196.381 61.98 196.885 63.108 197.773 63.924C198.661 64.74 199.753 65.148 201.049 65.148C202.921 65.148 204.253 64.344 205.045 62.736H210.481C209.905 64.656 208.801 66.24 207.169 67.488C205.537 68.712 203.533 69.324 201.157 69.324C199.237 69.324 197.509 68.904 195.973 68.064C194.461 67.2 193.273 65.988 192.409 64.428C191.569 62.868 191.149 61.068 191.149 59.028C191.149 56.964 191.569 55.152 192.409 53.592C193.249 52.032 194.425 50.832 195.937 49.992C197.449 49.152 199.189 48.732 201.157 48.732C203.053 48.732 204.745 49.14 206.233 49.956C207.745 50.772 208.909 51.936 209.725 53.448C210.565 54.936 210.985 56.652 210.985 58.596ZM205.765 57.156C205.741 55.86 205.273 54.828 204.361 54.06C203.449 53.268 202.333 52.872 201.013 52.872C199.765 52.872 198.709 53.256 197.845 54.024C197.005 54.768 196.489 55.812 196.297 57.156H205.765ZM225.68 69L221.576 62.808L217.94 69H212.54L219.056 58.992L212.468 49.056H218.156L222.224 55.212L225.896 49.056H231.296L224.744 58.992L231.368 69H225.68Z" fill="white"/>
</svg>
