<svg width="17" height="17" viewBox="0 0 17 17" fill="none" xmlns="http://www.w3.org/2000/svg">
<path d="M16.3324 14.7794L16.3315 14.7785L11.4316 10.0022L11.4313 10.002L10.32 8.93288L16.3314 3.08772C16.4571 2.96556 16.5593 2.82958 16.6236 2.67948C16.6869 2.53172 16.7254 2.37057 16.7254 2.2083C16.7254 2.03775 16.7004 1.8752 16.6229 1.72365C16.5602 1.57775 16.4716 1.42956 16.3559 1.31701L16.3559 1.31696L16.3539 1.31523C16.2294 1.20626 16.0903 1.1074 15.9366 1.04513C15.7823 0.982625 15.6044 0.958301 15.4412 0.958301C15.2749 0.958301 15.11 0.995623 14.9472 1.05652L14.9472 1.0565L14.9459 1.05701C14.7922 1.11928 14.6525 1.21834 14.5388 1.32889L7.62272 8.05366C7.50745 8.16574 7.41838 8.30215 7.35502 8.45001L7.355 8.45L7.35448 8.45131C7.29176 8.60988 7.25322 8.77068 7.25322 8.93307C7.25322 9.09534 7.2917 9.25649 7.35502 9.40425C7.41838 9.55212 7.50745 9.68852 7.62272 9.8006L14.5388 16.5254L14.5388 16.5254L14.5398 16.5263C14.7822 16.7496 15.1002 16.8603 15.429 16.8603C15.7602 16.8603 16.0781 16.7242 16.307 16.5016C16.5482 16.2671 16.6762 15.9695 16.6765 15.6469C16.689 15.3236 16.5609 15.0139 16.3324 14.7794Z" fill="#B3B3B3" stroke="#B3B3B3" stroke-width="0.1"/>
<path d="M1.2179 3.03898L1.21881 3.03989L6.11873 7.81614L6.11896 7.81637L7.23031 8.88548L1.21886 14.7306C1.09322 14.8528 0.991034 14.9888 0.926713 15.1389C0.863392 15.2866 0.824918 15.4478 0.824918 15.6101C0.824918 15.7806 0.849871 15.9432 0.927395 16.0947C0.990098 16.2406 1.07867 16.3888 1.19442 16.5014L1.19437 16.5014L1.19635 16.5031C1.32086 16.6121 1.46004 16.711 1.61374 16.7732C1.76801 16.8357 1.94588 16.8601 2.10906 16.8601C2.2754 16.8601 2.44029 16.8227 2.60313 16.7618L2.60313 16.7619L2.60439 16.7613C2.75808 16.6991 2.89779 16.6 3.01148 16.4895L9.92757 9.7647C10.0428 9.65262 10.1319 9.51621 10.1953 9.36835L10.1953 9.36836L10.1958 9.36705C10.2585 9.20848 10.2971 9.04768 10.2971 8.88529C10.2971 8.72302 10.2586 8.56187 10.1953 8.41411C10.1319 8.26624 10.0428 8.12984 9.92757 8.01775L3.01148 1.29299L3.0115 1.29297L3.0105 1.29206C2.76812 1.06879 2.45013 0.958041 2.12128 0.95804C1.79009 0.95804 1.47223 1.09415 1.2433 1.31675C1.00209 1.55128 0.874056 1.84884 0.873796 2.17141C0.861292 2.49471 0.989364 2.80441 1.2179 3.03898Z" fill="#B3B3B3" stroke="#B3B3B3" stroke-width="0.1"/>
</svg>
